%TF.GenerationSoftware,KiCad,Pcbnew,(6.0.2)*%
%TF.CreationDate,2022-08-25T21:07:40-05:00*%
%TF.ProjectId,REF1479,52454631-3437-4392-9e6b-696361645f70,rev?*%
%TF.SameCoordinates,Original*%
%TF.FileFunction,Copper,L2,Bot*%
%TF.FilePolarity,Positive*%
%FSLAX46Y46*%
G04 Gerber Fmt 4.6, Leading zero omitted, Abs format (unit mm)*
G04 Created by KiCad (PCBNEW (6.0.2)) date 2022-08-25 21:07:40*
%MOMM*%
%LPD*%
G01*
G04 APERTURE LIST*
%TA.AperFunction,ComponentPad*%
%ADD10C,2.020000*%
%TD*%
%TA.AperFunction,ComponentPad*%
%ADD11C,1.830000*%
%TD*%
%TA.AperFunction,ComponentPad*%
%ADD12C,4.800000*%
%TD*%
%TA.AperFunction,ComponentPad*%
%ADD13C,1.860000*%
%TD*%
%TA.AperFunction,ComponentPad*%
%ADD14R,1.500000X1.500000*%
%TD*%
%TA.AperFunction,ComponentPad*%
%ADD15C,1.500000*%
%TD*%
%TA.AperFunction,ComponentPad*%
%ADD16R,1.700000X1.700000*%
%TD*%
%TA.AperFunction,ComponentPad*%
%ADD17C,1.700000*%
%TD*%
%TA.AperFunction,ComponentPad*%
%ADD18O,3.090000X2.250000*%
%TD*%
%TA.AperFunction,ViaPad*%
%ADD19C,0.800000*%
%TD*%
%TA.AperFunction,Conductor*%
%ADD20C,0.500000*%
%TD*%
%TA.AperFunction,Conductor*%
%ADD21C,0.200000*%
%TD*%
G04 APERTURE END LIST*
D10*
%TO.P,J2,1,A*%
%TO.N,/GND*%
X168532000Y-64257000D03*
%TO.P,J2,2,B*%
%TO.N,/Switch*%
X171505000Y-64260000D03*
%TO.P,J2,3,C*%
X174408000Y-64259000D03*
%TO.P,J2,4,Case_GND*%
%TO.N,/GND*%
X165075000Y-64259000D03*
%TO.P,J2,5,Case_GND*%
X177857000Y-64261000D03*
%TD*%
D11*
%TO.P,SW1,1,1*%
%TO.N,/GND*%
X126373000Y-57885500D03*
%TO.P,SW1,2,2*%
%TO.N,/Button*%
X127646000Y-55742500D03*
%TO.P,SW1,3,3*%
%TO.N,/GND*%
X132097000Y-55702500D03*
%TO.P,SW1,4,4*%
X133403000Y-57885500D03*
%TD*%
D12*
%TO.P,REF1,1*%
%TO.N,N/C*%
X128945000Y-112498000D03*
%TD*%
%TO.P,REF2,1*%
%TO.N,N/C*%
X172809000Y-112540000D03*
%TD*%
D13*
%TO.P,J4,1,+3.3V/+5V*%
%TO.N,/VCC*%
X174672000Y-74406000D03*
%TO.P,J4,2,Clock*%
%TO.N,/Clk*%
X173125500Y-75914000D03*
%TO.P,J4,3,/WR*%
%TO.N,/Write*%
X171657100Y-74405900D03*
%TO.P,J4,4,/RD*%
%TO.N,/Rd_Game*%
X170109000Y-75912000D03*
%TO.P,J4,5,/CS.ROM*%
%TO.N,/CS.Rom.Game*%
X168639000Y-74406000D03*
%TO.P,J4,6,AD0*%
%TO.N,/AD0*%
X167093000Y-75914000D03*
%TO.P,J4,7,AD1*%
%TO.N,/AD1*%
X165624600Y-74405900D03*
%TO.P,J4,8,AD2*%
%TO.N,/AD2*%
X164075000Y-75913000D03*
%TO.P,J4,9,AD3*%
%TO.N,/AD3*%
X162649000Y-74407000D03*
%TO.P,J4,10,AD4*%
%TO.N,/AD4*%
X161100200Y-75914000D03*
%TO.P,J4,11,AD5*%
%TO.N,/AD5*%
X159592100Y-74405900D03*
%TO.P,J4,12,AD6*%
%TO.N,/AD6*%
X158040000Y-75914000D03*
%TO.P,J4,13,AD7*%
%TO.N,/AD7*%
X156575800Y-74405900D03*
%TO.P,J4,14,AD8*%
%TO.N,/AD8*%
X155026000Y-75914000D03*
%TO.P,J4,15,AD9*%
%TO.N,/AD9*%
X153640000Y-74405000D03*
%TO.P,J4,16,AD10*%
%TO.N,/AD10*%
X152089000Y-75915000D03*
%TO.P,J4,17,AD11*%
%TO.N,/AD11*%
X150619000Y-74406000D03*
%TO.P,J4,18,AD12*%
%TO.N,/AD12*%
X149074000Y-75913000D03*
%TO.P,J4,19,AD13*%
%TO.N,/AD13*%
X147605000Y-74407000D03*
%TO.P,J4,20,AD14*%
%TO.N,/AD14*%
X146057000Y-75915000D03*
%TO.P,J4,21,AD15*%
%TO.N,/AD15*%
X144589000Y-74405000D03*
%TO.P,J4,22,A16*%
%TO.N,/A16*%
X143044000Y-75913000D03*
%TO.P,J4,23,A17*%
%TO.N,/A17*%
X141611000Y-74404000D03*
%TO.P,J4,24,A18*%
%TO.N,/A18*%
X140067000Y-75914000D03*
%TO.P,J4,25,A19*%
%TO.N,/A19*%
X138676000Y-74409000D03*
%TO.P,J4,26,A20*%
%TO.N,/A20*%
X137125000Y-75912000D03*
%TO.P,J4,27,A21*%
%TO.N,/A21*%
X135580000Y-74407000D03*
%TO.P,J4,28,A22*%
%TO.N,/A22*%
X134073000Y-75914000D03*
%TO.P,J4,29,A23*%
%TO.N,/A23*%
X132566000Y-74407000D03*
%TO.P,J4,30,/CS.SRAM*%
%TO.N,/CS.SRAM*%
X131059000Y-75922000D03*
%TO.P,J4,31,/REQ*%
%TO.N,/REQ*%
X129544000Y-74407000D03*
%TO.P,J4,32,GND*%
%TO.N,/GND*%
X128040500Y-75914000D03*
%TD*%
D14*
%TO.P,Y1,1,1*%
%TO.N,/40MHz.Pin1*%
X168694000Y-96045000D03*
D15*
%TO.P,Y1,2,2*%
%TO.N,/GND*%
X171271000Y-96048000D03*
%TO.P,Y1,3,3*%
%TO.N,/40MHz.Pin3*%
X173853400Y-96048000D03*
%TD*%
D16*
%TO.P,J1,1,VBUS*%
%TO.N,/USB.VBUS*%
X132055000Y-67964000D03*
D17*
%TO.P,J1,2,D-*%
%TO.N,/USB.D-*%
X132055000Y-65464000D03*
%TO.P,J1,3,D+*%
%TO.N,/USB.D+*%
X130055000Y-65464000D03*
%TO.P,J1,4,GND*%
%TO.N,/GND*%
X130055000Y-67964000D03*
D18*
%TO.P,J1,5,Shield*%
X127345000Y-72734000D03*
X127345000Y-60694000D03*
%TD*%
D19*
%TO.N,/GND*%
X178774900Y-90319200D03*
X138259500Y-97107800D03*
X175904200Y-100945200D03*
X140484000Y-103828900D03*
%TO.N,/Switch*%
X159557900Y-111488700D03*
X135429100Y-103325300D03*
X129206000Y-78527800D03*
X135429800Y-98165500D03*
%TO.N,/Button*%
X128662300Y-58852200D03*
X135606400Y-55522000D03*
X143555100Y-103450500D03*
%TO.N,/SST.A18*%
X146692100Y-94620800D03*
X152152500Y-100310500D03*
%TO.N,/SST.A17*%
X139117900Y-82334400D03*
X154008800Y-88545800D03*
%TO.N,/SST.A5*%
X139113000Y-90673100D03*
X144730900Y-95890400D03*
%TO.N,/SST.A1*%
X146964900Y-102135700D03*
X141322100Y-95589000D03*
%TO.N,/AD0*%
X161886600Y-90542800D03*
X136916600Y-116295300D03*
%TO.N,/AD8*%
X147766400Y-110606600D03*
X157228500Y-90340900D03*
%TO.N,/AD1*%
X138377900Y-116243000D03*
X161342800Y-89621300D03*
%TO.N,/AD9*%
X157363400Y-88898900D03*
X149563400Y-117565700D03*
%TO.N,/AD2*%
X139887100Y-114890900D03*
X161334600Y-88496400D03*
%TO.N,/AD10*%
X157116300Y-87898700D03*
X150557600Y-116736800D03*
%TO.N,/AD3*%
X141218000Y-114593600D03*
X161326300Y-87496200D03*
%TO.N,/AD11*%
X151750600Y-116978100D03*
X156363200Y-88577400D03*
%TO.N,/VCC*%
X127852000Y-119364900D03*
X152186000Y-101398300D03*
X147897300Y-106200000D03*
X147672500Y-108386100D03*
X166584600Y-100440900D03*
X166752800Y-98740600D03*
X147936000Y-101670700D03*
X161349900Y-114113700D03*
X168538700Y-104810000D03*
%TO.N,/AD4*%
X142336100Y-114193400D03*
%TO.N,/AD12*%
X154848500Y-81779500D03*
X152909000Y-118663100D03*
X152941500Y-112538300D03*
%TO.N,/AD5*%
X143455900Y-113753100D03*
%TO.N,/AD13*%
X172196700Y-90865800D03*
X147824500Y-76840700D03*
X155231700Y-82795700D03*
X152790400Y-115816400D03*
%TO.N,/AD6*%
X144721400Y-113357800D03*
%TO.N,/AD14*%
X155699400Y-83742700D03*
X153707300Y-117161400D03*
X173169600Y-94375100D03*
%TO.N,/AD7*%
X148659200Y-116293500D03*
%TO.N,/AD15*%
X149687900Y-107999800D03*
%TO.N,/SST.A16*%
X153308700Y-82211300D03*
X152238200Y-80071700D03*
%TO.N,/VCC_Internal*%
X133630000Y-98549300D03*
X149986000Y-103401500D03*
X128398200Y-117531500D03*
X165795700Y-115337500D03*
X141606600Y-104691600D03*
X166138000Y-109223500D03*
X164772600Y-112390100D03*
%TO.N,/Const_high*%
X134793900Y-100696300D03*
X137966400Y-102571300D03*
%TO.N,/40MHz.Pin1*%
X163489800Y-106664400D03*
%TO.N,/40MHz.Pin3*%
X162760000Y-105964300D03*
%TO.N,/Clk*%
X133366400Y-116500300D03*
%TO.N,/Write*%
X134465000Y-112008900D03*
X146971200Y-105132000D03*
%TO.N,/Rd_Sys*%
X146968700Y-106685800D03*
X135171400Y-115844900D03*
%TO.N,/CS.Rom.Sys*%
X141298300Y-102263000D03*
X134877000Y-110877600D03*
%TO.N,/A16*%
X158631100Y-119226900D03*
X129724000Y-91009700D03*
X127196700Y-79480500D03*
%TO.N,/A17*%
X160416000Y-119229100D03*
X134237200Y-82451000D03*
%TO.N,/A18*%
X150883300Y-105162900D03*
X136378400Y-80567800D03*
%TO.N,/A19*%
X162824500Y-113793700D03*
X178972800Y-69377300D03*
X172943900Y-105244100D03*
%TO.N,/A20*%
X157594300Y-112891200D03*
X127913700Y-78772800D03*
X132060600Y-69863900D03*
X164913000Y-119629200D03*
X132280700Y-94902200D03*
%TO.N,/A21*%
X128699200Y-91330200D03*
X165071600Y-118619400D03*
X160185900Y-116166900D03*
X128699200Y-81143500D03*
%TO.N,/A22*%
X167908000Y-119613200D03*
X133294000Y-81507900D03*
X159042500Y-112494000D03*
%TO.N,/A23*%
X124288700Y-79877200D03*
X168975000Y-119508900D03*
X123905700Y-93004600D03*
%TO.N,/CS.SRAM*%
X174231200Y-68665400D03*
%TO.N,/REQ*%
X173003500Y-66025100D03*
%TO.N,/Rd_Game*%
X159469100Y-95248700D03*
%TO.N,/CS.Rom.Game*%
X158363300Y-95765700D03*
%TO.N,/Cy.P0-0*%
X154318900Y-69572300D03*
X158425300Y-108451200D03*
%TO.N,/Cy.P0-2*%
X151052200Y-70474200D03*
X159466800Y-107073100D03*
%TO.N,/Cy.P0-3*%
X162324700Y-109885000D03*
X177211500Y-86410700D03*
%TO.N,/Cy.P1-0*%
X155579800Y-69578600D03*
X162364300Y-100066000D03*
%TO.N,/Cy.P1-3*%
X175361900Y-87269900D03*
X151114500Y-57495600D03*
%TO.N,/Cy.P1-1*%
X162379000Y-101082500D03*
X149845500Y-58223700D03*
%TO.N,/Cy.P0-7*%
X178145200Y-88366000D03*
X162347300Y-102104300D03*
%TO.N,/Cy.P0-6*%
X128444000Y-68477800D03*
X151220300Y-102837200D03*
%TO.N,/Cy.P0-5*%
X127743800Y-69200500D03*
X149883100Y-105090600D03*
%TO.N,/Cy.P0-4*%
X176534500Y-90640400D03*
X163051200Y-104333400D03*
%TD*%
D20*
%TO.N,/GND*%
X130055000Y-67964000D02*
X127345000Y-65254000D01*
X166552300Y-64259000D02*
X166554300Y-64257000D01*
X133403000Y-57885500D02*
X126373000Y-57885500D01*
X166554300Y-64256900D02*
X166554300Y-64257000D01*
X173907700Y-98948700D02*
X175904200Y-100945200D01*
X166461200Y-64163800D02*
X166554300Y-64256900D01*
X133403000Y-57885500D02*
X139681300Y-64163800D01*
X173708800Y-97935300D02*
X173907700Y-98134300D01*
X178163100Y-91332300D02*
X178733200Y-90762200D01*
X138259500Y-101604400D02*
X138259500Y-97107800D01*
X176179600Y-93575300D02*
X178163100Y-91591800D01*
X140484000Y-103828900D02*
X138259500Y-101604400D01*
X171271000Y-96048000D02*
X171821400Y-96048000D01*
X173907700Y-98134300D02*
X173907700Y-98948700D01*
X176179600Y-95464500D02*
X176179600Y-93575300D01*
X178733200Y-90360900D02*
X178774900Y-90319200D01*
X173708800Y-97935300D02*
X176179600Y-95464500D01*
X178733200Y-90762200D02*
X178733200Y-90360900D01*
X169996700Y-62792300D02*
X176388300Y-62792300D01*
X165075000Y-64259000D02*
X166552300Y-64259000D01*
X171821400Y-96048000D02*
X173708800Y-97935300D01*
X127345000Y-65254000D02*
X127345000Y-60694000D01*
X166554300Y-64257000D02*
X168532000Y-64257000D01*
X176388300Y-62792300D02*
X177857000Y-64261000D01*
X178163100Y-91591800D02*
X178163100Y-91332300D01*
X168532000Y-64257000D02*
X169996700Y-62792300D01*
X139681300Y-64163800D02*
X166461200Y-64163800D01*
D21*
%TO.N,/Switch*%
X134093700Y-99501600D02*
X135429800Y-98165500D01*
X132651500Y-116791000D02*
X134004000Y-118143500D01*
X157981000Y-111488700D02*
X159557900Y-111488700D01*
X132282000Y-70632500D02*
X126953200Y-70632500D01*
X125484900Y-72100800D02*
X125484900Y-75116900D01*
X128895800Y-78527800D02*
X129206000Y-78527800D01*
X133750100Y-105004300D02*
X133750100Y-114689200D01*
X135429100Y-103325300D02*
X133750100Y-105004300D01*
X170195800Y-65569200D02*
X137345300Y-65569200D01*
X174408000Y-64259000D02*
X171506000Y-64259000D01*
X134093700Y-101989900D02*
X134093700Y-99501600D01*
X171505000Y-64260000D02*
X170195800Y-65569200D01*
X137345300Y-65569200D02*
X132282000Y-70632500D01*
X171506000Y-64259000D02*
X171505000Y-64260000D01*
X125484900Y-75116900D02*
X128895800Y-78527800D01*
X156183600Y-113286100D02*
X157981000Y-111488700D01*
X135988600Y-118143500D02*
X137231000Y-119385900D01*
X153229000Y-119385900D02*
X156183600Y-116431300D01*
X135429100Y-103325300D02*
X134093700Y-101989900D01*
X134004000Y-118143500D02*
X135988600Y-118143500D01*
X137231000Y-119385900D02*
X153229000Y-119385900D01*
X126953200Y-70632500D02*
X125484900Y-72100800D01*
X132651500Y-115787800D02*
X132651500Y-116791000D01*
X156183600Y-116431300D02*
X156183600Y-113286100D01*
X133750100Y-114689200D02*
X132651500Y-115787800D01*
%TO.N,/Button*%
X122311900Y-63255700D02*
X122311900Y-80852300D01*
X126382900Y-59184700D02*
X122311900Y-63255700D01*
X122311900Y-80852300D02*
X124543200Y-83083600D01*
X128662300Y-58852200D02*
X128329800Y-59184700D01*
X134985300Y-91073100D02*
X143555100Y-99642900D01*
X130728300Y-83083600D02*
X133004100Y-80807800D01*
X127646000Y-55742500D02*
X128901200Y-54487300D01*
X133004100Y-80807800D02*
X133584100Y-80807800D01*
X128901200Y-54487300D02*
X134571700Y-54487300D01*
X128329800Y-59184700D02*
X126382900Y-59184700D01*
X124543200Y-83083600D02*
X130728300Y-83083600D01*
X133584100Y-80807800D02*
X134985300Y-82209000D01*
X143555100Y-99642900D02*
X143555100Y-103450500D01*
X134571700Y-54487300D02*
X135606400Y-55522000D01*
X134985300Y-82209000D02*
X134985300Y-91073100D01*
%TO.N,/SST.A18*%
X152152500Y-100081200D02*
X152152500Y-100310500D01*
X146692100Y-94620800D02*
X152152500Y-100081200D01*
%TO.N,/SST.A17*%
X154008800Y-88545800D02*
X145329300Y-88545800D01*
X145329300Y-88545800D02*
X139117900Y-82334400D01*
%TO.N,/SST.A5*%
X139113000Y-90673100D02*
X139513600Y-90673100D01*
X139513600Y-90673100D02*
X144730900Y-95890400D01*
%TO.N,/SST.A1*%
X146964900Y-101231800D02*
X141322100Y-95589000D01*
X146964900Y-102135700D02*
X146964900Y-101231800D01*
%TO.N,/AD0*%
X157651400Y-103911500D02*
X154742400Y-106820500D01*
X154742400Y-108050100D02*
X145849400Y-116943100D01*
X167093000Y-85336400D02*
X161886600Y-90542800D01*
X167093000Y-75914000D02*
X167093000Y-85336400D01*
X145849400Y-116943100D02*
X137564400Y-116943100D01*
X137564400Y-116943100D02*
X136916600Y-116295300D01*
X154742400Y-106820500D02*
X154742400Y-108050100D01*
X157651400Y-95478400D02*
X157651400Y-103911500D01*
X161886600Y-91243200D02*
X157651400Y-95478400D01*
X161886600Y-90542800D02*
X161886600Y-91243200D01*
%TO.N,/AD8*%
X157228500Y-90340900D02*
X154685100Y-92884300D01*
X154685100Y-102917200D02*
X151638400Y-105963900D01*
X151638400Y-105963900D02*
X151638400Y-107052700D01*
X157228500Y-90024000D02*
X157228500Y-90340900D01*
X148084500Y-110606600D02*
X147766400Y-110606600D01*
X158216600Y-79104600D02*
X158216600Y-89035900D01*
X154685100Y-92884300D02*
X154685100Y-102917200D01*
X155026000Y-75914000D02*
X158216600Y-79104600D01*
X158216600Y-89035900D02*
X157228500Y-90024000D01*
X151638400Y-107052700D02*
X148084500Y-110606600D01*
%TO.N,/AD1*%
X160217100Y-90747000D02*
X160217100Y-92229400D01*
X154094700Y-108132000D02*
X145983700Y-116243000D01*
X160217100Y-92229400D02*
X157251200Y-95195300D01*
X157251200Y-103746000D02*
X154094700Y-106902500D01*
X161342800Y-89621300D02*
X160217100Y-90747000D01*
X145983700Y-116243000D02*
X138377900Y-116243000D01*
X165624600Y-74405900D02*
X165624600Y-85339500D01*
X157251200Y-95195300D02*
X157251200Y-103746000D01*
X154094700Y-106902500D02*
X154094700Y-108132000D01*
X165624600Y-85339500D02*
X161342800Y-89621300D01*
%TO.N,/AD9*%
X153640000Y-76313700D02*
X157816500Y-80490200D01*
X153641700Y-112433200D02*
X153641700Y-112866900D01*
X157816500Y-88445800D02*
X157363400Y-88898900D01*
X149857400Y-117271700D02*
X149563400Y-117565700D01*
X175333300Y-72694900D02*
X176371300Y-73732900D01*
X153270200Y-113238400D02*
X152617500Y-113238400D01*
X152617500Y-113238400D02*
X149857400Y-115998500D01*
X162793800Y-93733200D02*
X162793800Y-95711200D01*
X156524800Y-109550100D02*
X153641700Y-112433200D01*
X157816500Y-80490200D02*
X157816500Y-88445800D01*
X155350100Y-72694900D02*
X175333300Y-72694900D01*
X153640000Y-74405000D02*
X153640000Y-76313700D01*
X156524800Y-107301300D02*
X156524800Y-109550100D01*
X153640000Y-74405000D02*
X155350100Y-72694900D01*
X149857400Y-115998500D02*
X149857400Y-117271700D01*
X162793800Y-95711200D02*
X159641700Y-98863300D01*
X176371300Y-73732900D02*
X176371300Y-80155700D01*
X159641700Y-104184400D02*
X156524800Y-107301300D01*
X159641700Y-98863300D02*
X159641700Y-104184400D01*
X153641700Y-112866900D02*
X153270200Y-113238400D01*
X176371300Y-80155700D02*
X162793800Y-93733200D01*
%TO.N,/AD2*%
X146267200Y-115393700D02*
X140389900Y-115393700D01*
X164075000Y-75913000D02*
X164075000Y-85756000D01*
X156768400Y-94664100D02*
X156768400Y-103662900D01*
X164075000Y-85756000D02*
X161334600Y-88496400D01*
X153670500Y-106760800D02*
X153670500Y-107990400D01*
X160217100Y-89864400D02*
X159817000Y-90264500D01*
X159817000Y-90264500D02*
X159817000Y-91615500D01*
X140389900Y-115393700D02*
X139887100Y-114890900D01*
X156768400Y-103662900D02*
X153670500Y-106760800D01*
X160217100Y-89613900D02*
X160217100Y-89864400D01*
X161334600Y-88496400D02*
X160217100Y-89613900D01*
X159817000Y-91615500D02*
X156768400Y-94664100D01*
X153670500Y-107990400D02*
X146267200Y-115393700D01*
%TO.N,/AD10*%
X150557600Y-115864000D02*
X150557600Y-116736800D01*
X175577000Y-72291900D02*
X176800400Y-73515300D01*
X157116300Y-80843300D02*
X157116300Y-87898700D01*
X152188000Y-75915000D02*
X152089000Y-75915000D01*
X152188000Y-75915000D02*
X157116300Y-80843300D01*
X176800400Y-80292400D02*
X163193900Y-93898900D01*
X163193900Y-93898900D02*
X163193900Y-95876900D01*
X153435900Y-113638500D02*
X152783100Y-113638500D01*
X152188000Y-75915000D02*
X152188000Y-74072400D01*
X154041800Y-113032600D02*
X153435900Y-113638500D01*
X153968500Y-72291900D02*
X175577000Y-72291900D01*
X156924900Y-109715800D02*
X154041800Y-112598900D01*
X156924900Y-107467000D02*
X156924900Y-109715800D01*
X176800400Y-73515300D02*
X176800400Y-80292400D01*
X154041800Y-112598900D02*
X154041800Y-113032600D01*
X163193900Y-95876900D02*
X160041800Y-99029000D01*
X160041800Y-99029000D02*
X160041800Y-104350100D01*
X152188000Y-74072400D02*
X153968500Y-72291900D01*
X152783100Y-113638500D02*
X150557600Y-115864000D01*
X160041800Y-104350100D02*
X156924900Y-107467000D01*
%TO.N,/AD3*%
X159817000Y-89005500D02*
X159817000Y-89698700D01*
X159416900Y-90098800D02*
X159416900Y-91449800D01*
X162649000Y-74407000D02*
X162649000Y-86173500D01*
X153238800Y-107856300D02*
X146101600Y-114993500D01*
X156368300Y-103497200D02*
X153238800Y-106626700D01*
X162649000Y-86173500D02*
X161326300Y-87496200D01*
X159416900Y-91449800D02*
X156368300Y-94498400D01*
X156368300Y-94498400D02*
X156368300Y-103497200D01*
X153238800Y-106626700D02*
X153238800Y-107856300D01*
X141617900Y-114993500D02*
X141218000Y-114593600D01*
X159817000Y-89698700D02*
X159416900Y-90098800D01*
X146101600Y-114993500D02*
X141617900Y-114993500D01*
X161326300Y-87496200D02*
X159817000Y-89005500D01*
%TO.N,/AD11*%
X177241800Y-80416800D02*
X163594000Y-94064600D01*
X160441900Y-99194700D02*
X160441900Y-104515800D01*
X157325000Y-107632700D02*
X157325000Y-109881500D01*
X163594000Y-94064600D02*
X163594000Y-96042600D01*
X160441900Y-104515800D02*
X157325000Y-107632700D01*
X156416100Y-88524500D02*
X156363200Y-88577400D01*
X154441900Y-112764600D02*
X154441900Y-113198300D01*
X177241800Y-73362600D02*
X177241800Y-80416800D01*
X150619000Y-76326500D02*
X156416100Y-82123600D01*
X153140600Y-71884400D02*
X175763600Y-71884400D01*
X175763600Y-71884400D02*
X177241800Y-73362600D01*
X151650500Y-116878000D02*
X151750600Y-116978100D01*
X157325000Y-109881500D02*
X154441900Y-112764600D01*
X154441900Y-113198300D02*
X153601600Y-114038600D01*
X150619000Y-74406000D02*
X153140600Y-71884400D01*
X156416100Y-82123600D02*
X156416100Y-88524500D01*
X163594000Y-96042600D02*
X160441900Y-99194700D01*
X151650500Y-115336900D02*
X151650500Y-116878000D01*
X152948800Y-114038600D02*
X151650500Y-115336900D01*
X153601600Y-114038600D02*
X152948800Y-114038600D01*
X150619000Y-74406000D02*
X150619000Y-76326500D01*
D20*
%TO.N,/VCC*%
X169168300Y-123625900D02*
X172504800Y-120289400D01*
X165443600Y-114487400D02*
X165287200Y-114643800D01*
X172504800Y-118983900D02*
X168008300Y-114487400D01*
X147936000Y-101670700D02*
X151913600Y-101670700D01*
X147897300Y-108161300D02*
X147897300Y-106200000D01*
X168008300Y-114487400D02*
X165443600Y-114487400D01*
X166752800Y-100272700D02*
X166584600Y-100440900D01*
X172504800Y-120289400D02*
X172504800Y-118983900D01*
X147672500Y-108386100D02*
X147897300Y-108161300D01*
X166752800Y-98740600D02*
X166752800Y-100272700D01*
X161349900Y-114113700D02*
X161349900Y-112292200D01*
X151913600Y-101670700D02*
X152186000Y-101398300D01*
X165287200Y-114643800D02*
X161880000Y-114643800D01*
X161349900Y-112292200D02*
X168538700Y-105103400D01*
X161880000Y-114643800D02*
X161349900Y-114113700D01*
X127852000Y-119364900D02*
X132113000Y-123625900D01*
X132113000Y-123625900D02*
X169168300Y-123625900D01*
X168538700Y-105103400D02*
X168538700Y-104810000D01*
D21*
%TO.N,/AD4*%
X159416900Y-88557000D02*
X159416900Y-89533000D01*
X142666000Y-114523300D02*
X142336100Y-114193400D01*
X161100200Y-75914000D02*
X159817000Y-77197200D01*
X159416900Y-89533000D02*
X159016800Y-89933100D01*
X155968200Y-103331500D02*
X152838700Y-106461000D01*
X152838700Y-107665400D02*
X145980800Y-114523300D01*
X159016800Y-89933100D02*
X159016800Y-91284100D01*
X152838700Y-106461000D02*
X152838700Y-107665400D01*
X159817000Y-77197200D02*
X159817000Y-88156900D01*
X155968200Y-94332700D02*
X155968200Y-103331500D01*
X159016800Y-91284100D02*
X155968200Y-94332700D01*
X145980800Y-114523300D02*
X142666000Y-114523300D01*
X159817000Y-88156900D02*
X159416900Y-88557000D01*
%TO.N,/AD12*%
X148837000Y-117901400D02*
X148837000Y-117301800D01*
X154842000Y-112930300D02*
X154842000Y-113364000D01*
X149074000Y-74136000D02*
X151757700Y-71452300D01*
X177666800Y-80557600D02*
X163994100Y-94230300D01*
X175946000Y-71452300D02*
X177666800Y-73173100D01*
X151757700Y-71452300D02*
X175946000Y-71452300D01*
X163994100Y-94230300D02*
X163994100Y-96208300D01*
X152063600Y-116235500D02*
X152454900Y-116626800D01*
X152909000Y-118663100D02*
X152835800Y-118663100D01*
X149457300Y-115832700D02*
X152751700Y-112538300D01*
X157725100Y-110047200D02*
X154842000Y-112930300D01*
X153767300Y-114438700D02*
X153114500Y-114438700D01*
X149074000Y-75913000D02*
X149074000Y-74136000D01*
X177666800Y-73173100D02*
X177666800Y-80557600D01*
X152063600Y-115489600D02*
X152063600Y-116235500D01*
X160842000Y-99360400D02*
X160842000Y-104681500D01*
X153114500Y-114438700D02*
X152063600Y-115489600D01*
X148837000Y-117301800D02*
X149457300Y-116681500D01*
X152454900Y-116626800D02*
X152454900Y-118282200D01*
X152454900Y-118282200D02*
X149217800Y-118282200D01*
X160842000Y-104681500D02*
X157725100Y-107798400D01*
X149639800Y-75913000D02*
X154848500Y-81121700D01*
X149457300Y-116681500D02*
X149457300Y-115832700D01*
X152835800Y-118663100D02*
X152454900Y-118282200D01*
X149217800Y-118282200D02*
X148837000Y-117901400D01*
X149074000Y-75913000D02*
X149639800Y-75913000D01*
X157725100Y-107798400D02*
X157725100Y-110047200D01*
X154848500Y-81121700D02*
X154848500Y-81779500D01*
X154842000Y-113364000D02*
X153767300Y-114438700D01*
X152751700Y-112538300D02*
X152941500Y-112538300D01*
X163994100Y-96208300D02*
X160842000Y-99360400D01*
%TO.N,/AD5*%
X155568100Y-103165800D02*
X152438600Y-106295300D01*
X145855000Y-114083300D02*
X143786100Y-114083300D01*
X159016800Y-89367300D02*
X158616700Y-89767400D01*
X143786100Y-114083300D02*
X143455900Y-113753100D01*
X159416900Y-74581100D02*
X159416900Y-87991200D01*
X152438600Y-107499700D02*
X145855000Y-114083300D01*
X159592100Y-74405900D02*
X159416900Y-74581100D01*
X152438600Y-106295300D02*
X152438600Y-107499700D01*
X159016800Y-88391300D02*
X159016800Y-89367300D01*
X159416900Y-87991200D02*
X159016800Y-88391300D01*
X158616700Y-91118400D02*
X155568100Y-94167000D01*
X158616700Y-89767400D02*
X158616700Y-91118400D01*
X155568100Y-94167000D02*
X155568100Y-103165800D01*
%TO.N,/AD13*%
X152955400Y-115816400D02*
X152790400Y-115816400D01*
X172196700Y-90865800D02*
X170811300Y-90865800D01*
X170811300Y-90865800D02*
X166788100Y-94889000D01*
X154127800Y-82110200D02*
X154127800Y-80966800D01*
X162961500Y-103412800D02*
X162042300Y-104332000D01*
X166788100Y-94889000D02*
X166788100Y-97785600D01*
X150079100Y-79095300D02*
X147824500Y-76840700D01*
X155231700Y-82795700D02*
X154813300Y-82795700D01*
X154813300Y-82795700D02*
X154127800Y-82110200D01*
X155242100Y-113096000D02*
X155242100Y-113529700D01*
X167496800Y-100518800D02*
X164602800Y-103412800D01*
X162042300Y-106295800D02*
X155242100Y-113096000D01*
X167496800Y-98494300D02*
X167496800Y-100518800D01*
X152256300Y-79095300D02*
X150079100Y-79095300D01*
X154127800Y-80966800D02*
X152256300Y-79095300D01*
X162042300Y-104332000D02*
X162042300Y-106295800D01*
X164602800Y-103412800D02*
X162961500Y-103412800D01*
X155242100Y-113529700D02*
X152955400Y-115816400D01*
X166788100Y-97785600D02*
X167496800Y-98494300D01*
%TO.N,/AD6*%
X146014700Y-113357800D02*
X144721400Y-113357800D01*
X155085200Y-103082900D02*
X152038500Y-106129600D01*
X152038500Y-107334000D02*
X146014700Y-113357800D01*
X158216600Y-90952700D02*
X155085200Y-94084100D01*
X155085200Y-94084100D02*
X155085200Y-103082900D01*
X158616700Y-89201600D02*
X158216600Y-89601700D01*
X158216600Y-89601700D02*
X158216600Y-90952700D01*
X158616700Y-76490700D02*
X158616700Y-89201600D01*
X158040000Y-75914000D02*
X158616700Y-76490700D01*
X152038500Y-106129600D02*
X152038500Y-107334000D01*
%TO.N,/AD14*%
X171416000Y-94375100D02*
X169744200Y-96046900D01*
X173169600Y-94375100D02*
X171416000Y-94375100D01*
X163805300Y-107364500D02*
X161539400Y-107364500D01*
X153672400Y-83742700D02*
X155699400Y-83742700D01*
X146057000Y-75915000D02*
X146057000Y-76127300D01*
X146057000Y-76127300D02*
X153672400Y-83742700D01*
X155642300Y-113261600D02*
X155642300Y-115226400D01*
X155642300Y-115226400D02*
X153707300Y-117161400D01*
X169744200Y-101425600D02*
X163805300Y-107364500D01*
X161539400Y-107364500D02*
X155642300Y-113261600D01*
X169744200Y-96046900D02*
X169744200Y-101425600D01*
%TO.N,/AD7*%
X156575800Y-74405900D02*
X157826000Y-73155700D01*
X161762600Y-94198600D02*
X161762600Y-96176600D01*
X159241600Y-98697600D02*
X159241600Y-104018700D01*
X155942700Y-107317600D02*
X155942700Y-108547100D01*
X159241600Y-104018700D02*
X155942700Y-107317600D01*
X175170300Y-73155700D02*
X175935700Y-73921100D01*
X148659200Y-115830600D02*
X148659200Y-116293500D01*
X157826000Y-73155700D02*
X175170300Y-73155700D01*
X175935700Y-80025500D02*
X161762600Y-94198600D01*
X155942700Y-108547100D02*
X148659200Y-115830600D01*
X161762600Y-96176600D02*
X159241600Y-98697600D01*
X175935700Y-73921100D02*
X175935700Y-80025500D01*
%TO.N,/AD15*%
X144589000Y-74405000D02*
X144589000Y-77892100D01*
X154285000Y-102751500D02*
X149687900Y-107348600D01*
X144589000Y-77892100D02*
X154734700Y-88037800D01*
X149687900Y-107348600D02*
X149687900Y-107999800D01*
X154734700Y-91019000D02*
X154285000Y-91468700D01*
X154734700Y-88037800D02*
X154734700Y-91019000D01*
X154285000Y-91468700D02*
X154285000Y-102751500D01*
%TO.N,/SST.A16*%
X153308700Y-82211300D02*
X152238200Y-81140800D01*
X152238200Y-81140800D02*
X152238200Y-80071700D01*
D20*
%TO.N,/VCC_Internal*%
X141978700Y-104319500D02*
X142148400Y-104319500D01*
X171804700Y-119999300D02*
X171804700Y-119274100D01*
X135951200Y-96228100D02*
X133630000Y-98549300D01*
X171804700Y-119274100D02*
X167868100Y-115337500D01*
X133792500Y-122925800D02*
X168878200Y-122925800D01*
X142148400Y-99781900D02*
X138594600Y-96228100D01*
X166138000Y-111024700D02*
X164772600Y-112390100D01*
X142148400Y-104319500D02*
X143927600Y-104319500D01*
X166138000Y-109223500D02*
X166138000Y-111024700D01*
X141606600Y-104691600D02*
X141978700Y-104319500D01*
X128398200Y-117531500D02*
X133792500Y-122925800D01*
X142148400Y-104319500D02*
X142148400Y-99781900D01*
X144845600Y-103401500D02*
X149986000Y-103401500D01*
X138594600Y-96228100D02*
X135951200Y-96228100D01*
X143927600Y-104319500D02*
X144845600Y-103401500D01*
X168878200Y-122925800D02*
X171804700Y-119999300D01*
X167868100Y-115337500D02*
X165795700Y-115337500D01*
D21*
%TO.N,/Const_high*%
X137966400Y-102571300D02*
X136668900Y-102571300D01*
X136668900Y-102571300D02*
X134793900Y-100696300D01*
%TO.N,/40MHz.Pin1*%
X168800500Y-97201600D02*
X168694000Y-97095100D01*
X168800500Y-101353700D02*
X168800500Y-97201600D01*
X168694000Y-96045000D02*
X168694000Y-97095100D01*
X163489800Y-106664400D02*
X168800500Y-101353700D01*
%TO.N,/40MHz.Pin3*%
X169150000Y-93658700D02*
X173509800Y-93658700D01*
X163247200Y-105964300D02*
X168383500Y-100828000D01*
X173881700Y-96019700D02*
X173853400Y-96048000D01*
X167595000Y-96895100D02*
X167595000Y-95213700D01*
X167595000Y-95213700D02*
X169150000Y-93658700D01*
X168383500Y-100828000D02*
X168383500Y-97683600D01*
X173881700Y-94030600D02*
X173881700Y-96019700D01*
X173509800Y-93658700D02*
X173881700Y-94030600D01*
X168383500Y-97683600D02*
X167595000Y-96895100D01*
X162760000Y-105964300D02*
X163247200Y-105964300D01*
%TO.N,/Clk*%
X160962400Y-94433000D02*
X160962400Y-95845200D01*
X173125500Y-82269900D02*
X160962400Y-94433000D01*
X173125500Y-75914000D02*
X173125500Y-82269900D01*
X158686100Y-98121500D02*
X158686100Y-104008400D01*
X155542600Y-108381500D02*
X146180800Y-117743300D01*
X134609400Y-117743300D02*
X133366400Y-116500300D01*
X146180800Y-117743300D02*
X134609400Y-117743300D01*
X158686100Y-104008400D02*
X155542600Y-107151900D01*
X160962400Y-95845200D02*
X158686100Y-98121500D01*
X155542600Y-107151900D02*
X155542600Y-108381500D01*
%TO.N,/Write*%
X158286000Y-97955800D02*
X158286000Y-103842700D01*
X134465000Y-112008900D02*
X134735700Y-112008900D01*
X158286000Y-103842700D02*
X155142500Y-106986200D01*
X160562300Y-94267300D02*
X160562300Y-95679500D01*
X141352900Y-105391700D02*
X146711500Y-105391700D01*
X171657100Y-83172500D02*
X160562300Y-94267300D01*
X155142500Y-108215800D02*
X146015100Y-117343200D01*
X146711500Y-105391700D02*
X146971200Y-105132000D01*
X134465000Y-116179800D02*
X134465000Y-112008900D01*
X155142500Y-106986200D02*
X155142500Y-108215800D01*
X134735700Y-112008900D02*
X141352900Y-105391700D01*
X135628400Y-117343200D02*
X134465000Y-116179800D01*
X146015100Y-117343200D02*
X135628400Y-117343200D01*
X171657100Y-74405900D02*
X171657100Y-83172500D01*
X160562300Y-95679500D02*
X158286000Y-97955800D01*
%TO.N,/Rd_Sys*%
X144330500Y-106685800D02*
X146968700Y-106685800D01*
X135171400Y-115844900D02*
X144330500Y-106685800D01*
%TO.N,/CS.Rom.Sys*%
X141298300Y-102263000D02*
X141298300Y-104009900D01*
X134877000Y-110431200D02*
X134877000Y-110877600D01*
X141298300Y-104009900D02*
X134877000Y-110431200D01*
%TO.N,/A16*%
X132493300Y-114700100D02*
X132405700Y-114787700D01*
X161155100Y-119482600D02*
X161155100Y-118972400D01*
X161155100Y-118972400D02*
X160665700Y-118483000D01*
X135596700Y-120375200D02*
X149695100Y-120375200D01*
X132405700Y-114787700D02*
X132320100Y-114787700D01*
X125256800Y-81883300D02*
X123564400Y-80190900D01*
X140512600Y-78444400D02*
X132438100Y-78444400D01*
X124021600Y-79092100D02*
X126808300Y-79092100D01*
X131851300Y-117193100D02*
X133671100Y-119012900D01*
X153095500Y-120760200D02*
X153480500Y-120375200D01*
X131851300Y-115256500D02*
X131851300Y-117193100D01*
X160262500Y-120375200D02*
X161155100Y-119482600D01*
X159375000Y-118483000D02*
X158631100Y-119226900D01*
X132980900Y-94266600D02*
X132980900Y-95202000D01*
X132980900Y-95202000D02*
X132493300Y-95689600D01*
X133671100Y-119012900D02*
X134234400Y-119012900D01*
X129724000Y-91009700D02*
X132980900Y-94266600D01*
X126808300Y-79092100D02*
X127196700Y-79480500D01*
X132320100Y-114787700D02*
X131851300Y-115256500D01*
X123564400Y-80190900D02*
X123564400Y-79549300D01*
X150080100Y-120760200D02*
X153095500Y-120760200D01*
X160665700Y-118483000D02*
X159375000Y-118483000D01*
X128999200Y-81883300D02*
X125256800Y-81883300D01*
X132438100Y-78444400D02*
X128999200Y-81883300D01*
X153480500Y-120375200D02*
X160262500Y-120375200D01*
X149695100Y-120375200D02*
X150080100Y-120760200D01*
X132493300Y-95689600D02*
X132493300Y-114700100D01*
X134234400Y-119012900D02*
X135596700Y-120375200D01*
X123564400Y-79549300D02*
X124021600Y-79092100D01*
X143044000Y-75913000D02*
X140512600Y-78444400D01*
%TO.N,/A17*%
X132893500Y-114865700D02*
X132651500Y-115107700D01*
X132651500Y-115107700D02*
X132651500Y-115187800D01*
X135749800Y-119960000D02*
X150011400Y-119960000D01*
X134237200Y-95671000D02*
X132893500Y-97014700D01*
X134402600Y-118612800D02*
X135749800Y-119960000D01*
X132485800Y-115187800D02*
X132251400Y-115422200D01*
X159685100Y-119960000D02*
X160416000Y-119229100D01*
X132251400Y-115422200D02*
X132251400Y-117027400D01*
X134237200Y-82451000D02*
X134237200Y-95671000D01*
X152929800Y-120360100D02*
X153329900Y-119960000D01*
X132251400Y-117027400D02*
X133836800Y-118612800D01*
X150011400Y-119960000D02*
X150011400Y-120125700D01*
X153329900Y-119960000D02*
X159685100Y-119960000D01*
X132893500Y-97014700D02*
X132893500Y-114865700D01*
X133836800Y-118612800D02*
X134402600Y-118612800D01*
X150011400Y-120125700D02*
X150245800Y-120360100D01*
X150245800Y-120360100D02*
X152929800Y-120360100D01*
X132651500Y-115187800D02*
X132485800Y-115187800D01*
%TO.N,/A18*%
X153686300Y-97919500D02*
X153686300Y-102359900D01*
X153686300Y-102359900D02*
X150883300Y-105162900D01*
X136378400Y-80611600D02*
X153686300Y-97919500D01*
X136378400Y-80567800D02*
X136378400Y-80611600D01*
%TO.N,/A19*%
X144235000Y-68850000D02*
X157109000Y-68850000D01*
X138676000Y-74409000D02*
X144235000Y-68850000D01*
X157109000Y-68850000D02*
X157636300Y-69377300D01*
X164394300Y-113793700D02*
X172943900Y-105244100D01*
X162824500Y-113793700D02*
X164394300Y-113793700D01*
X157636300Y-69377300D02*
X178972800Y-69377300D01*
%TO.N,/A20*%
X160428200Y-120775300D02*
X162059200Y-119144300D01*
X164913000Y-119629200D02*
X162544100Y-119629200D01*
X127050600Y-69941500D02*
X125070900Y-71921200D01*
X131983000Y-69941500D02*
X127050600Y-69941500D01*
X135381900Y-120775300D02*
X149529400Y-120775300D01*
X125070900Y-75930000D02*
X127913700Y-78772800D01*
X153646200Y-120775300D02*
X160428200Y-120775300D01*
X132093200Y-95089700D02*
X132093200Y-114448800D01*
X125070900Y-71921200D02*
X125070900Y-75930000D01*
X132060600Y-69863900D02*
X131983000Y-69941500D01*
X157594300Y-114679400D02*
X157594300Y-112891200D01*
X153261200Y-121160300D02*
X153646200Y-120775300D01*
X132093200Y-114448800D02*
X131451200Y-115090800D01*
X133505400Y-119413000D02*
X134019600Y-119413000D01*
X149529400Y-120775300D02*
X149914400Y-121160300D01*
X134019600Y-119413000D02*
X135381900Y-120775300D01*
X162544100Y-119629200D02*
X162059200Y-119144300D01*
X149914400Y-121160300D02*
X153261200Y-121160300D01*
X132280700Y-94902200D02*
X132093200Y-95089700D01*
X162059200Y-119144300D02*
X157594300Y-114679400D01*
X131451200Y-117358800D02*
X133505400Y-119413000D01*
X131451200Y-115090800D02*
X131451200Y-117358800D01*
%TO.N,/A21*%
X153426900Y-121560400D02*
X153811900Y-121175400D01*
X149363700Y-121175400D02*
X149748700Y-121560400D01*
X165071600Y-118619400D02*
X162619100Y-116166900D01*
X131693100Y-114283100D02*
X131051100Y-114925100D01*
X128699200Y-91330200D02*
X128699200Y-96980300D01*
X128699200Y-96980300D02*
X131693100Y-99974200D01*
X165643900Y-119936400D02*
X165643900Y-119191700D01*
X162619100Y-116166900D02*
X160185900Y-116166900D01*
X165643900Y-119191700D02*
X165071600Y-118619400D01*
X133824300Y-77902800D02*
X131939900Y-77902800D01*
X131939900Y-77902800D02*
X128699200Y-81143500D01*
X133339700Y-119813100D02*
X133828500Y-119813100D01*
X153811900Y-121175400D02*
X164404900Y-121175400D01*
X131051100Y-114925100D02*
X131051100Y-117524500D01*
X131051100Y-117524500D02*
X133339700Y-119813100D01*
X133828500Y-119813100D02*
X135190800Y-121175400D01*
X135580000Y-76147100D02*
X133824300Y-77902800D01*
X131693100Y-99974200D02*
X131693100Y-114283100D01*
X135190800Y-121175400D02*
X149363700Y-121175400D01*
X135580000Y-74407000D02*
X135580000Y-76147100D01*
X164404900Y-121175400D02*
X165643900Y-119936400D01*
X149748700Y-121560400D02*
X153426900Y-121560400D01*
%TO.N,/A22*%
X127826600Y-115198100D02*
X128255200Y-115198100D01*
X153977600Y-121575500D02*
X165945700Y-121575500D01*
X126244900Y-88557000D02*
X126244900Y-113616400D01*
X130651000Y-117690200D02*
X133174000Y-120213200D01*
X149198000Y-121575500D02*
X149583000Y-121960500D01*
X133174000Y-120213200D02*
X133270300Y-120213200D01*
X149583000Y-121960500D02*
X153592600Y-121960500D01*
X153592600Y-121960500D02*
X153977600Y-121575500D01*
X134632600Y-121575500D02*
X149198000Y-121575500D01*
X130651000Y-117593900D02*
X130651000Y-117690200D01*
X133270300Y-120213200D02*
X134632600Y-121575500D01*
X133294000Y-81507900D02*
X126244900Y-88557000D01*
X159042500Y-112819500D02*
X159042500Y-112494000D01*
X165945700Y-121575500D02*
X167908000Y-119613200D01*
X128255200Y-115198100D02*
X130651000Y-117593900D01*
X163564700Y-115269900D02*
X161492900Y-115269900D01*
X161492900Y-115269900D02*
X159042500Y-112819500D01*
X126244900Y-113616400D02*
X127826600Y-115198100D01*
X167908000Y-119613200D02*
X163564700Y-115269900D01*
%TO.N,/A23*%
X133008300Y-120613300D02*
X133079500Y-120613300D01*
X125844800Y-113782100D02*
X127660900Y-115598200D01*
X132566000Y-74407000D02*
X132566000Y-76199600D01*
X168975000Y-119574500D02*
X168975000Y-119508900D01*
X133079500Y-120613300D02*
X134441800Y-121975600D01*
X132566000Y-76199600D02*
X128537200Y-80228400D01*
X128537200Y-80228400D02*
X124639900Y-80228400D01*
X124639900Y-80228400D02*
X124288700Y-79877200D01*
X128064400Y-115598200D02*
X130250900Y-117784700D01*
X134441800Y-121975600D02*
X149032300Y-121975600D01*
X149032300Y-121975600D02*
X149417300Y-122360600D01*
X149417300Y-122360600D02*
X153758300Y-122360600D01*
X127660900Y-115598200D02*
X128064400Y-115598200D01*
X125844800Y-94943700D02*
X125844800Y-113782100D01*
X130250900Y-117784700D02*
X130250900Y-117855900D01*
X123905700Y-93004600D02*
X125844800Y-94943700D01*
X154143300Y-121975600D02*
X166573900Y-121975600D01*
X166573900Y-121975600D02*
X168975000Y-119574500D01*
X153758300Y-122360600D02*
X154143300Y-121975600D01*
X130250900Y-117855900D02*
X133008300Y-120613300D01*
%TO.N,/CS.SRAM*%
X174015700Y-68449900D02*
X174231200Y-68665400D01*
X136771800Y-68449900D02*
X174015700Y-68449900D01*
X131059000Y-75922000D02*
X131059000Y-74162700D01*
X131059000Y-74162700D02*
X136771800Y-68449900D01*
%TO.N,/REQ*%
X137925900Y-66025100D02*
X173003500Y-66025100D01*
X129544000Y-74407000D02*
X137925900Y-66025100D01*
%TO.N,/Rd_Game*%
X159469100Y-94792400D02*
X159469100Y-95248700D01*
X170109000Y-84152500D02*
X159469100Y-94792400D01*
X170109000Y-75912000D02*
X170109000Y-84152500D01*
%TO.N,/CS.Rom.Game*%
X168639000Y-85056700D02*
X158363300Y-95332400D01*
X158363300Y-95332400D02*
X158363300Y-95765700D01*
X168639000Y-74406000D02*
X168639000Y-85056700D01*
%TO.N,/Cy.P0-0*%
X164794300Y-96539700D02*
X161642200Y-99691800D01*
X178490000Y-80866000D02*
X164794300Y-94561700D01*
X159083700Y-108451200D02*
X158425300Y-108451200D01*
X155049000Y-70302400D02*
X175998400Y-70302400D01*
X175998400Y-70302400D02*
X178490000Y-72794000D01*
X164794300Y-94561700D02*
X164794300Y-96539700D01*
X178490000Y-72794000D02*
X178490000Y-80866000D01*
X161642200Y-99691800D02*
X161642200Y-105892700D01*
X154318900Y-69572300D02*
X155049000Y-70302400D01*
X161642200Y-105892700D02*
X159083700Y-108451200D01*
%TO.N,/Cy.P0-2*%
X178066900Y-72936700D02*
X178066900Y-80723300D01*
X178066900Y-80723300D02*
X164394200Y-94396000D01*
X164394200Y-94396000D02*
X164394200Y-96374000D01*
X151576400Y-70998400D02*
X176128600Y-70998400D01*
X151052200Y-70474200D02*
X151576400Y-70998400D01*
X161242100Y-105297800D02*
X159466800Y-107073100D01*
X176128600Y-70998400D02*
X178066900Y-72936700D01*
X161242100Y-99526100D02*
X161242100Y-105297800D01*
X164394200Y-96374000D02*
X161242100Y-99526100D01*
%TO.N,/Cy.P0-3*%
X177129800Y-93403100D02*
X179475000Y-91057900D01*
X168136200Y-104073500D02*
X173766300Y-104073500D01*
X162324700Y-109885000D02*
X168136200Y-104073500D01*
X179475000Y-91057900D02*
X179475000Y-88674200D01*
X173766300Y-104073500D02*
X177129800Y-100710000D01*
X179475000Y-88674200D02*
X177211500Y-86410700D01*
X177129800Y-100710000D02*
X177129800Y-93403100D01*
%TO.N,/Cy.P1-0*%
X176197400Y-69902300D02*
X178900100Y-72605000D01*
X178900100Y-81079600D02*
X165194400Y-94785300D01*
X155903500Y-69902300D02*
X176197400Y-69902300D01*
X178900100Y-72605000D02*
X178900100Y-81079600D01*
X165194400Y-94785300D02*
X165194400Y-97235900D01*
X165194400Y-97235900D02*
X162364300Y-100066000D01*
X155579800Y-69578600D02*
X155903500Y-69902300D01*
%TO.N,/Cy.P1-3*%
X173568300Y-57495600D02*
X151114500Y-57495600D01*
X180076500Y-64003800D02*
X173568300Y-57495600D01*
X175361900Y-87269900D02*
X180076500Y-82555300D01*
X180076500Y-82555300D02*
X180076500Y-64003800D01*
%TO.N,/Cy.P1-1*%
X179676400Y-80869100D02*
X165594500Y-94951000D01*
X179676400Y-64169500D02*
X179676400Y-80869100D01*
X165594500Y-97867000D02*
X162379000Y-101082500D01*
X165594500Y-94951000D02*
X165594500Y-97867000D01*
X173730600Y-58223700D02*
X179676400Y-64169500D01*
X149845500Y-58223700D02*
X173730600Y-58223700D01*
%TO.N,/Cy.P0-7*%
X172745300Y-88366000D02*
X165994700Y-95116600D01*
X165994700Y-95116600D02*
X165994700Y-98456900D01*
X165994700Y-98456900D02*
X162347300Y-102104300D01*
X178145200Y-88366000D02*
X172745300Y-88366000D01*
%TO.N,/Cy.P0-6*%
X127361800Y-68477800D02*
X122712000Y-73127600D01*
X128444000Y-68477800D02*
X127361800Y-68477800D01*
X152886100Y-99544000D02*
X152886100Y-101688300D01*
X124786100Y-82683500D02*
X130562600Y-82683500D01*
X133749800Y-80407700D02*
X152886100Y-99544000D01*
X130562600Y-82683500D02*
X132838400Y-80407700D01*
X152886100Y-101688300D02*
X151737300Y-102837100D01*
X151220300Y-102837100D02*
X151220300Y-102837200D01*
X151737300Y-102837100D02*
X151220300Y-102837100D01*
X122712000Y-73127600D02*
X122712000Y-80609400D01*
X132838400Y-80407700D02*
X133749800Y-80407700D01*
X122712000Y-80609400D02*
X124786100Y-82683500D01*
%TO.N,/Cy.P0-5*%
X133915400Y-80007600D02*
X153286200Y-99378400D01*
X127209200Y-69200500D02*
X123112100Y-73297600D01*
X132672700Y-80007600D02*
X133915400Y-80007600D01*
X153286200Y-99378400D02*
X153286200Y-101887300D01*
X123112100Y-80376800D02*
X125018700Y-82283400D01*
X127743800Y-69200500D02*
X127209200Y-69200500D01*
X150510900Y-104462800D02*
X149883100Y-105090600D01*
X123112100Y-73297600D02*
X123112100Y-80376800D01*
X150710700Y-104462800D02*
X150510900Y-104462800D01*
X125018700Y-82283400D02*
X130396900Y-82283400D01*
X130396900Y-82283400D02*
X132672700Y-80007600D01*
X153286200Y-101887300D02*
X150710700Y-104462800D01*
%TO.N,/Cy.P0-4*%
X164293800Y-104333400D02*
X163051200Y-104333400D01*
X167939800Y-100687400D02*
X164293800Y-104333400D01*
X167192000Y-97423900D02*
X167939800Y-98171700D01*
X176534500Y-90640400D02*
X174762700Y-92412200D01*
X167192000Y-95051000D02*
X167192000Y-97423900D01*
X174762700Y-92412200D02*
X169830800Y-92412200D01*
X169830800Y-92412200D02*
X167192000Y-95051000D01*
X167939800Y-98171700D02*
X167939800Y-100687400D01*
%TD*%
M02*
