%TF.GenerationSoftware,KiCad,Pcbnew,(6.0.2)*%
%TF.CreationDate,2022-08-25T21:07:40-05:00*%
%TF.ProjectId,REF1479,52454631-3437-4392-9e6b-696361645f70,rev?*%
%TF.SameCoordinates,Original*%
%TF.FileFunction,Soldermask,Bot*%
%TF.FilePolarity,Negative*%
%FSLAX46Y46*%
G04 Gerber Fmt 4.6, Leading zero omitted, Abs format (unit mm)*
G04 Created by KiCad (PCBNEW (6.0.2)) date 2022-08-25 21:07:40*
%MOMM*%
%LPD*%
G01*
G04 APERTURE LIST*
%ADD10C,2.020000*%
%ADD11C,1.830000*%
%ADD12C,4.800000*%
%ADD13C,1.860000*%
%ADD14R,1.500000X1.500000*%
%ADD15C,1.500000*%
%ADD16R,1.700000X1.700000*%
%ADD17C,1.700000*%
%ADD18O,3.090000X2.250000*%
G04 APERTURE END LIST*
D10*
%TO.C,J2*%
X168532000Y-64257000D03*
X171505000Y-64260000D03*
X174408000Y-64259000D03*
X165075000Y-64259000D03*
X177857000Y-64261000D03*
%TD*%
D11*
%TO.C,SW1*%
X126373000Y-57885500D03*
X127646000Y-55742500D03*
X132097000Y-55702500D03*
X133403000Y-57885500D03*
%TD*%
D12*
%TO.C,REF1*%
X128945000Y-112498000D03*
%TD*%
%TO.C,REF2*%
X172809000Y-112540000D03*
%TD*%
D13*
%TO.C,J4*%
X174672000Y-74406000D03*
X173125500Y-75914000D03*
X171657100Y-74405900D03*
X170109000Y-75912000D03*
X168639000Y-74406000D03*
X167093000Y-75914000D03*
X165624600Y-74405900D03*
X164075000Y-75913000D03*
X162649000Y-74407000D03*
X161100200Y-75914000D03*
X159592100Y-74405900D03*
X158040000Y-75914000D03*
X156575800Y-74405900D03*
X155026000Y-75914000D03*
X153640000Y-74405000D03*
X152089000Y-75915000D03*
X150619000Y-74406000D03*
X149074000Y-75913000D03*
X147605000Y-74407000D03*
X146057000Y-75915000D03*
X144589000Y-74405000D03*
X143044000Y-75913000D03*
X141611000Y-74404000D03*
X140067000Y-75914000D03*
X138676000Y-74409000D03*
X137125000Y-75912000D03*
X135580000Y-74407000D03*
X134073000Y-75914000D03*
X132566000Y-74407000D03*
X131059000Y-75922000D03*
X129544000Y-74407000D03*
X128040500Y-75914000D03*
%TD*%
D14*
%TO.C,Y1*%
X168694000Y-96045000D03*
D15*
X171271000Y-96048000D03*
X173853400Y-96048000D03*
%TD*%
D16*
%TO.C,J1*%
X132055000Y-67964000D03*
D17*
X132055000Y-65464000D03*
X130055000Y-65464000D03*
X130055000Y-67964000D03*
D18*
X127345000Y-72734000D03*
X127345000Y-60694000D03*
%TD*%
M02*
