%TF.GenerationSoftware,KiCad,Pcbnew,(6.0.2)*%
%TF.CreationDate,2022-08-25T20:59:28-05:00*%
%TF.ProjectId,REF1479,52454631-3437-4392-9e6b-696361645f70,rev?*%
%TF.SameCoordinates,Original*%
%TF.FileFunction,Soldermask,Top*%
%TF.FilePolarity,Negative*%
%FSLAX46Y46*%
G04 Gerber Fmt 4.6, Leading zero omitted, Abs format (unit mm)*
G04 Created by KiCad (PCBNEW (6.0.2)) date 2022-08-25 20:59:28*
%MOMM*%
%LPD*%
G01*
G04 APERTURE LIST*
G04 Aperture macros list*
%AMRoundRect*
0 Rectangle with rounded corners*
0 $1 Rounding radius*
0 $2 $3 $4 $5 $6 $7 $8 $9 X,Y pos of 4 corners*
0 Add a 4 corners polygon primitive as box body*
4,1,4,$2,$3,$4,$5,$6,$7,$8,$9,$2,$3,0*
0 Add four circle primitives for the rounded corners*
1,1,$1+$1,$2,$3*
1,1,$1+$1,$4,$5*
1,1,$1+$1,$6,$7*
1,1,$1+$1,$8,$9*
0 Add four rect primitives between the rounded corners*
20,1,$1+$1,$2,$3,$4,$5,0*
20,1,$1+$1,$4,$5,$6,$7,0*
20,1,$1+$1,$6,$7,$8,$9,0*
20,1,$1+$1,$8,$9,$2,$3,0*%
G04 Aperture macros list end*
%ADD10R,1.230000X1.270000*%
%ADD11R,1.270000X1.230000*%
%ADD12R,1.500000X1.500000*%
%ADD13C,1.500000*%
%ADD14RoundRect,0.056000X0.724000X-0.084000X0.724000X0.084000X-0.724000X0.084000X-0.724000X-0.084000X0*%
%ADD15RoundRect,0.011200X0.128800X-0.768800X0.128800X0.768800X-0.128800X0.768800X-0.128800X-0.768800X0*%
%ADD16C,2.020000*%
%ADD17R,0.600000X1.750000*%
%ADD18C,1.830000*%
%ADD19R,1.700000X1.700000*%
%ADD20C,1.700000*%
%ADD21O,3.090000X2.250000*%
%ADD22C,1.860000*%
%ADD23R,1.300000X0.300000*%
%ADD24R,1.030000X7.780000*%
%ADD25R,1.430000X7.780000*%
%ADD26C,4.800000*%
G04 APERTURE END LIST*
D10*
%TO.C,R3*%
X169968000Y-98985500D03*
X171790000Y-98980500D03*
%TD*%
D11*
%TO.C,R5*%
X136861500Y-55842000D03*
X136866500Y-57664000D03*
%TD*%
%TO.C,R4*%
X161790500Y-59885000D03*
X161795500Y-61707000D03*
%TD*%
%TO.C,C5*%
X164882500Y-107213000D03*
X164887500Y-109035000D03*
%TD*%
%TO.C,C6*%
X164884500Y-103405000D03*
X164889500Y-105227000D03*
%TD*%
%TO.C,C7*%
X164870500Y-99312000D03*
X164875500Y-101134000D03*
%TD*%
D12*
%TO.C,C4*%
X138259500Y-95128500D03*
X138256500Y-98463500D03*
%TD*%
D11*
%TO.C,C2*%
X139202000Y-101815000D03*
X139207000Y-103637000D03*
%TD*%
%TO.C,C3*%
X136677000Y-101852000D03*
X136682000Y-103674000D03*
%TD*%
%TO.C,R2*%
X134126500Y-101915000D03*
X134131500Y-103737000D03*
%TD*%
%TO.C,C1*%
X139276000Y-106530000D03*
X139281000Y-108352000D03*
%TD*%
%TO.C,R1*%
X133999500Y-106575000D03*
X134004500Y-108397000D03*
%TD*%
%TO.C,C8*%
X164376000Y-88007000D03*
X164381000Y-89829000D03*
%TD*%
D12*
%TO.C,Y1*%
X168694000Y-96045000D03*
D13*
X171271000Y-96048000D03*
X173853400Y-96048000D03*
%TD*%
D12*
%TO.C,C9*%
X142067500Y-59084500D03*
X142064500Y-62419500D03*
%TD*%
%TO.C,D1*%
X136684500Y-109954500D03*
X136687500Y-106619500D03*
%TD*%
D14*
%TO.C,U3*%
X145582000Y-112599000D03*
X145582000Y-112099000D03*
X145582000Y-111599000D03*
X145582000Y-111099000D03*
X145582000Y-110599000D03*
X145582000Y-110099000D03*
X145582000Y-109599000D03*
X145582000Y-109099000D03*
X145582000Y-108599000D03*
X145582000Y-108099000D03*
X145582000Y-107599000D03*
X145582000Y-107099000D03*
X145582000Y-106599000D03*
X145582000Y-106099000D03*
X145582000Y-105599000D03*
X145582000Y-105099000D03*
X145582000Y-104599000D03*
X145582000Y-104099000D03*
X145582000Y-103599000D03*
X145582000Y-103099000D03*
X145582000Y-102599000D03*
X145582000Y-102099000D03*
X145582000Y-101599000D03*
X145582000Y-101099000D03*
X145582000Y-100599000D03*
D15*
X147262000Y-98919000D03*
X147762000Y-98919000D03*
X148262000Y-98919000D03*
X148762000Y-98919000D03*
X149262000Y-98919000D03*
X149762000Y-98919000D03*
X150262000Y-98919000D03*
X150762000Y-98919000D03*
X151262000Y-98919000D03*
X151762000Y-98919000D03*
X152262000Y-98919000D03*
X152762000Y-98919000D03*
X153262000Y-98919000D03*
X153762000Y-98919000D03*
X154262000Y-98919000D03*
X154762000Y-98919000D03*
X155262000Y-98919000D03*
X155762000Y-98919000D03*
X156262000Y-98919000D03*
X156762000Y-98919000D03*
X157262000Y-98919000D03*
X157762000Y-98919000D03*
X158262000Y-98919000D03*
X158762000Y-98919000D03*
X159262000Y-98919000D03*
D14*
X160942000Y-100599000D03*
X160942000Y-101099000D03*
X160942000Y-101599000D03*
X160942000Y-102099000D03*
X160942000Y-102599000D03*
X160942000Y-103099000D03*
X160942000Y-103599000D03*
X160942000Y-104099000D03*
X160942000Y-104599000D03*
X160942000Y-105099000D03*
X160942000Y-105599000D03*
X160942000Y-106099000D03*
X160942000Y-106599000D03*
X160942000Y-107099000D03*
X160942000Y-107599000D03*
X160942000Y-108099000D03*
X160942000Y-108599000D03*
X160942000Y-109099000D03*
X160942000Y-109599000D03*
X160942000Y-110099000D03*
X160942000Y-110599000D03*
X160942000Y-111099000D03*
X160942000Y-111599000D03*
X160942000Y-112099000D03*
X160942000Y-112599000D03*
D15*
X159262000Y-114279000D03*
X158762000Y-114279000D03*
X158262000Y-114279000D03*
X157762000Y-114279000D03*
X157262000Y-114279000D03*
X156762000Y-114279000D03*
X156262000Y-114279000D03*
X155762000Y-114279000D03*
X155262000Y-114279000D03*
X154762000Y-114279000D03*
X154262000Y-114279000D03*
X153762000Y-114279000D03*
X153262000Y-114279000D03*
X152762000Y-114279000D03*
X152262000Y-114279000D03*
X151762000Y-114279000D03*
X151262000Y-114279000D03*
X150762000Y-114279000D03*
X150262000Y-114279000D03*
X149762000Y-114279000D03*
X149262000Y-114279000D03*
X148762000Y-114279000D03*
X148262000Y-114279000D03*
X147762000Y-114279000D03*
X147262000Y-114279000D03*
%TD*%
D16*
%TO.C,J2*%
X168532000Y-64257000D03*
X171505000Y-64260000D03*
X174408000Y-64259000D03*
X165075000Y-64259000D03*
X177857000Y-64261000D03*
%TD*%
D17*
%TO.C,U2*%
X144764500Y-65242500D03*
X146029500Y-65247500D03*
X147304500Y-65247500D03*
X148574500Y-65245500D03*
X149842500Y-65245500D03*
X151118500Y-65245500D03*
X152387500Y-65243500D03*
X153659500Y-65243500D03*
X154924500Y-65244500D03*
X156196500Y-65244500D03*
X157464500Y-65244500D03*
X158735500Y-65244500D03*
X158734500Y-55592500D03*
X157466500Y-55592500D03*
X156198500Y-55593500D03*
X154928500Y-55593500D03*
X153654500Y-55591500D03*
X152385500Y-55594500D03*
X151114500Y-55591500D03*
X149845500Y-55593500D03*
X148575500Y-55590500D03*
X147305500Y-55595500D03*
X146035500Y-55591500D03*
X144767500Y-55594500D03*
%TD*%
D18*
%TO.C,SW1*%
X126373000Y-57885500D03*
X127646000Y-55742500D03*
X132097000Y-55702500D03*
X133403000Y-57885500D03*
%TD*%
D19*
%TO.C,J1*%
X132055000Y-67964000D03*
D20*
X132055000Y-65464000D03*
X130055000Y-65464000D03*
X130055000Y-67964000D03*
D21*
X127345000Y-72734000D03*
X127345000Y-60694000D03*
%TD*%
D22*
%TO.C,J4*%
X174672000Y-74406000D03*
X173125500Y-75914000D03*
X171657100Y-74405900D03*
X170109000Y-75912000D03*
X168639000Y-74406000D03*
X167093000Y-75914000D03*
X165624600Y-74405900D03*
X164075000Y-75913000D03*
X162649000Y-74407000D03*
X161100200Y-75914000D03*
X159592100Y-74405900D03*
X158040000Y-75914000D03*
X156575800Y-74405900D03*
X155026000Y-75914000D03*
X153640000Y-74405000D03*
X152089000Y-75915000D03*
X150619000Y-74406000D03*
X149074000Y-75913000D03*
X147605000Y-74407000D03*
X146057000Y-75915000D03*
X144589000Y-74405000D03*
X143044000Y-75913000D03*
X141611000Y-74404000D03*
X140067000Y-75914000D03*
X138676000Y-74409000D03*
X137125000Y-75912000D03*
X135580000Y-74407000D03*
X134073000Y-75914000D03*
X132566000Y-74407000D03*
X131059000Y-75922000D03*
X129544000Y-74407000D03*
X128040500Y-75914000D03*
%TD*%
D23*
%TO.C,U1*%
X140372000Y-81173000D03*
X140372000Y-81673000D03*
X140372000Y-82173000D03*
X140372000Y-82673000D03*
X140372000Y-83173000D03*
X140372000Y-83673000D03*
X140372000Y-84173000D03*
X140372000Y-84673000D03*
X140372000Y-85173000D03*
X140372000Y-85673000D03*
X140372000Y-86173000D03*
X140372000Y-86673000D03*
X140372000Y-87173000D03*
X140372000Y-87673000D03*
X140372000Y-88173000D03*
X140372000Y-88673000D03*
X140372000Y-89173000D03*
X140372000Y-89673000D03*
X140372000Y-90173000D03*
X140372000Y-90673000D03*
X140372000Y-91173000D03*
X140372000Y-91673000D03*
X140372000Y-92173000D03*
X140372000Y-92673000D03*
X160072000Y-92673000D03*
X160072000Y-92173000D03*
X160072000Y-91673000D03*
X160072000Y-91173000D03*
X160072000Y-90673000D03*
X160072000Y-90173000D03*
X160072000Y-89673000D03*
X160072000Y-89173000D03*
X160072000Y-88673000D03*
X160072000Y-88173000D03*
X160072000Y-87673000D03*
X160072000Y-87173000D03*
X160072000Y-86673000D03*
X160072000Y-86173000D03*
X160072000Y-85673000D03*
X160072000Y-85173000D03*
X160072000Y-84673000D03*
X160072000Y-84173000D03*
X160072000Y-83673000D03*
X160072000Y-83173000D03*
X160072000Y-82673000D03*
X160072000Y-82173000D03*
X160072000Y-81673000D03*
X160072000Y-81173000D03*
%TD*%
D24*
%TO.C,J3*%
X127406000Y-124151000D03*
X128913000Y-124151000D03*
X130408000Y-124151000D03*
X131915000Y-124151000D03*
X133406000Y-124151000D03*
X134913000Y-124151000D03*
X136408000Y-124151000D03*
X137915000Y-124161000D03*
X139409000Y-124156000D03*
X140908000Y-124160000D03*
X142427000Y-124160000D03*
X143910000Y-124160000D03*
X145417000Y-124160000D03*
X146910000Y-124159000D03*
X148417000Y-124159000D03*
X149924000Y-124159000D03*
X151407000Y-124159000D03*
X152909000Y-124159000D03*
X154415000Y-124159000D03*
X155910000Y-124159000D03*
X157417000Y-124159000D03*
X158912000Y-124159000D03*
X160416000Y-124164000D03*
X161911000Y-124152000D03*
X163406000Y-124152000D03*
X164913000Y-124152000D03*
X166413000Y-124151000D03*
X167908000Y-124151000D03*
X169427000Y-124151000D03*
X170916000Y-124158000D03*
X172411000Y-124158000D03*
D25*
X174109000Y-124158000D03*
%TD*%
D26*
%TO.C,REF1*%
X128945000Y-112498000D03*
%TD*%
%TO.C,REF2*%
X172809000Y-112540000D03*
%TD*%
M02*
