%TF.GenerationSoftware,KiCad,Pcbnew,(6.0.2)*%
%TF.CreationDate,2022-08-25T21:07:40-05:00*%
%TF.ProjectId,REF1479,52454631-3437-4392-9e6b-696361645f70,rev?*%
%TF.SameCoordinates,Original*%
%TF.FileFunction,Legend,Top*%
%TF.FilePolarity,Positive*%
%FSLAX46Y46*%
G04 Gerber Fmt 4.6, Leading zero omitted, Abs format (unit mm)*
G04 Created by KiCad (PCBNEW (6.0.2)) date 2022-08-25 21:07:40*
%MOMM*%
%LPD*%
G01*
G04 APERTURE LIST*
%ADD10C,0.150000*%
%ADD11C,0.100000*%
%ADD12C,0.120000*%
%ADD13C,0.127000*%
%ADD14C,0.200000*%
G04 APERTURE END LIST*
D10*
X138365000Y-100964000D02*
X140154000Y-100964000D01*
X140154000Y-100964000D02*
X140154000Y-104555000D01*
X140154000Y-104555000D02*
X138365000Y-104555000D01*
X138365000Y-104555000D02*
X138365000Y-100964000D01*
X137203000Y-94109000D02*
X139225000Y-94109000D01*
X139225000Y-94109000D02*
X139225000Y-99516000D01*
X139225000Y-99516000D02*
X137203000Y-99516000D01*
X137203000Y-99516000D02*
X137203000Y-94109000D01*
X163988000Y-102534000D02*
X165776000Y-102534000D01*
X165776000Y-102534000D02*
X165776000Y-106112000D01*
X165776000Y-106112000D02*
X163988000Y-106112000D01*
X163988000Y-106112000D02*
X163988000Y-102534000D01*
X135999000Y-54990000D02*
X137792000Y-54990000D01*
X137792000Y-54990000D02*
X137792000Y-58551000D01*
X137792000Y-58551000D02*
X135999000Y-58551000D01*
X135999000Y-58551000D02*
X135999000Y-54990000D01*
X133155000Y-105727000D02*
X134891000Y-105727000D01*
X134891000Y-105727000D02*
X134891000Y-109269000D01*
X134891000Y-109269000D02*
X133155000Y-109269000D01*
X133155000Y-109269000D02*
X133155000Y-105727000D01*
X138388000Y-105682000D02*
X140213000Y-105682000D01*
X140213000Y-105682000D02*
X140213000Y-109251000D01*
X140213000Y-109251000D02*
X138388000Y-109251000D01*
X138388000Y-109251000D02*
X138388000Y-105682000D01*
X133239000Y-101044000D02*
X135041000Y-101044000D01*
X135041000Y-101044000D02*
X135041000Y-104648000D01*
X135041000Y-104648000D02*
X133239000Y-104648000D01*
X133239000Y-104648000D02*
X133239000Y-101044000D01*
X163988000Y-106366000D02*
X165817000Y-106366000D01*
X165817000Y-106366000D02*
X165817000Y-109943000D01*
X165817000Y-109943000D02*
X163988000Y-109943000D01*
X163988000Y-109943000D02*
X163988000Y-106366000D01*
X169119000Y-98128000D02*
X172679000Y-98128000D01*
X172679000Y-98128000D02*
X172679000Y-99873000D01*
X172679000Y-99873000D02*
X169119000Y-99873000D01*
X169119000Y-99873000D02*
X169119000Y-98128000D01*
X135692000Y-105593000D02*
X137694000Y-105593000D01*
X137694000Y-105593000D02*
X137694000Y-110978000D01*
X137694000Y-110978000D02*
X135692000Y-110978000D01*
X135692000Y-110978000D02*
X135692000Y-105593000D01*
X141051000Y-58071000D02*
X143120000Y-58071000D01*
X143120000Y-58071000D02*
X143120000Y-63451000D01*
X143120000Y-63451000D02*
X141051000Y-63451000D01*
X141051000Y-63451000D02*
X141051000Y-58071000D01*
X135802000Y-101004000D02*
X137551000Y-101004000D01*
X137551000Y-101004000D02*
X137551000Y-104595000D01*
X137551000Y-104595000D02*
X135802000Y-104595000D01*
X135802000Y-104595000D02*
X135802000Y-101004000D01*
X160911000Y-59020000D02*
X162718000Y-59020000D01*
X162718000Y-59020000D02*
X162718000Y-62606000D01*
X162718000Y-62606000D02*
X160911000Y-62606000D01*
X160911000Y-62606000D02*
X160911000Y-59020000D01*
X163529000Y-87152000D02*
X165251000Y-87152000D01*
X165251000Y-87152000D02*
X165251000Y-90730000D01*
X165251000Y-90730000D02*
X163529000Y-90730000D01*
X163529000Y-90730000D02*
X163529000Y-87152000D01*
X163961000Y-98462000D02*
X165803000Y-98462000D01*
X165803000Y-98462000D02*
X165803000Y-102040000D01*
X165803000Y-102040000D02*
X163961000Y-102040000D01*
X163961000Y-102040000D02*
X163961000Y-98462000D01*
X162307380Y-64021666D02*
X161831190Y-64355000D01*
X162307380Y-64593095D02*
X161307380Y-64593095D01*
X161307380Y-64212142D01*
X161355000Y-64116904D01*
X161402619Y-64069285D01*
X161497857Y-64021666D01*
X161640714Y-64021666D01*
X161735952Y-64069285D01*
X161783571Y-64116904D01*
X161831190Y-64212142D01*
X161831190Y-64593095D01*
X161640714Y-63164523D02*
X162307380Y-63164523D01*
X161259761Y-63402619D02*
X161974047Y-63640714D01*
X161974047Y-63021666D01*
X142451142Y-64898666D02*
X142498761Y-64946285D01*
X142546380Y-65089142D01*
X142546380Y-65184380D01*
X142498761Y-65327238D01*
X142403523Y-65422476D01*
X142308285Y-65470095D01*
X142117809Y-65517714D01*
X141974952Y-65517714D01*
X141784476Y-65470095D01*
X141689238Y-65422476D01*
X141594000Y-65327238D01*
X141546380Y-65184380D01*
X141546380Y-65089142D01*
X141594000Y-64946285D01*
X141641619Y-64898666D01*
X142546380Y-64422476D02*
X142546380Y-64232000D01*
X142498761Y-64136761D01*
X142451142Y-64089142D01*
X142308285Y-63993904D01*
X142117809Y-63946285D01*
X141736857Y-63946285D01*
X141641619Y-63993904D01*
X141594000Y-64041523D01*
X141546380Y-64136761D01*
X141546380Y-64327238D01*
X141594000Y-64422476D01*
X141641619Y-64470095D01*
X141736857Y-64517714D01*
X141974952Y-64517714D01*
X142070190Y-64470095D01*
X142117809Y-64422476D01*
X142165428Y-64327238D01*
X142165428Y-64136761D01*
X142117809Y-64041523D01*
X142070190Y-63993904D01*
X141974952Y-63946285D01*
X148616809Y-60940142D02*
X148569190Y-60987761D01*
X148426333Y-61035380D01*
X148331095Y-61035380D01*
X148188238Y-60987761D01*
X148093000Y-60892523D01*
X148045380Y-60797285D01*
X147997761Y-60606809D01*
X147997761Y-60463952D01*
X148045380Y-60273476D01*
X148093000Y-60178238D01*
X148188238Y-60083000D01*
X148331095Y-60035380D01*
X148426333Y-60035380D01*
X148569190Y-60083000D01*
X148616809Y-60130619D01*
X149235857Y-60559190D02*
X149235857Y-61035380D01*
X148902523Y-60035380D02*
X149235857Y-60559190D01*
X149569190Y-60035380D01*
X149807285Y-60035380D02*
X150473952Y-60035380D01*
X150045380Y-61035380D01*
X151426333Y-60940142D02*
X151378714Y-60987761D01*
X151235857Y-61035380D01*
X151140619Y-61035380D01*
X150997761Y-60987761D01*
X150902523Y-60892523D01*
X150854904Y-60797285D01*
X150807285Y-60606809D01*
X150807285Y-60463952D01*
X150854904Y-60273476D01*
X150902523Y-60178238D01*
X150997761Y-60083000D01*
X151140619Y-60035380D01*
X151235857Y-60035380D01*
X151378714Y-60083000D01*
X151426333Y-60130619D01*
X152283476Y-60035380D02*
X152093000Y-60035380D01*
X151997761Y-60083000D01*
X151950142Y-60130619D01*
X151854904Y-60273476D01*
X151807285Y-60463952D01*
X151807285Y-60844904D01*
X151854904Y-60940142D01*
X151902523Y-60987761D01*
X151997761Y-61035380D01*
X152188238Y-61035380D01*
X152283476Y-60987761D01*
X152331095Y-60940142D01*
X152378714Y-60844904D01*
X152378714Y-60606809D01*
X152331095Y-60511571D01*
X152283476Y-60463952D01*
X152188238Y-60416333D01*
X151997761Y-60416333D01*
X151902523Y-60463952D01*
X151854904Y-60511571D01*
X151807285Y-60606809D01*
X152712047Y-60035380D02*
X153331095Y-60035380D01*
X152997761Y-60416333D01*
X153140619Y-60416333D01*
X153235857Y-60463952D01*
X153283476Y-60511571D01*
X153331095Y-60606809D01*
X153331095Y-60844904D01*
X153283476Y-60940142D01*
X153235857Y-60987761D01*
X153140619Y-61035380D01*
X152854904Y-61035380D01*
X152759666Y-60987761D01*
X152712047Y-60940142D01*
X153664428Y-60035380D02*
X154331095Y-60035380D01*
X153902523Y-61035380D01*
X155140619Y-60368714D02*
X155140619Y-61035380D01*
X154902523Y-59987761D02*
X154664428Y-60702047D01*
X155283476Y-60702047D01*
X155569190Y-60035380D02*
X156188238Y-60035380D01*
X155854904Y-60416333D01*
X155997761Y-60416333D01*
X156093000Y-60463952D01*
X156140619Y-60511571D01*
X156188238Y-60606809D01*
X156188238Y-60844904D01*
X156140619Y-60940142D01*
X156093000Y-60987761D01*
X155997761Y-61035380D01*
X155712047Y-61035380D01*
X155616809Y-60987761D01*
X155569190Y-60940142D01*
X137152380Y-112904095D02*
X136152380Y-112904095D01*
X136152380Y-112666000D01*
X136200000Y-112523142D01*
X136295238Y-112427904D01*
X136390476Y-112380285D01*
X136580952Y-112332666D01*
X136723809Y-112332666D01*
X136914285Y-112380285D01*
X137009523Y-112427904D01*
X137104761Y-112523142D01*
X137152380Y-112666000D01*
X137152380Y-112904095D01*
X137152380Y-111380285D02*
X137152380Y-111951714D01*
X137152380Y-111666000D02*
X136152380Y-111666000D01*
X136295238Y-111761238D01*
X136390476Y-111856476D01*
X136438095Y-111951714D01*
X144498523Y-85984761D02*
X144641380Y-86032380D01*
X144879476Y-86032380D01*
X144974714Y-85984761D01*
X145022333Y-85937142D01*
X145069952Y-85841904D01*
X145069952Y-85746666D01*
X145022333Y-85651428D01*
X144974714Y-85603809D01*
X144879476Y-85556190D01*
X144689000Y-85508571D01*
X144593761Y-85460952D01*
X144546142Y-85413333D01*
X144498523Y-85318095D01*
X144498523Y-85222857D01*
X144546142Y-85127619D01*
X144593761Y-85080000D01*
X144689000Y-85032380D01*
X144927095Y-85032380D01*
X145069952Y-85080000D01*
X145450904Y-85984761D02*
X145593761Y-86032380D01*
X145831857Y-86032380D01*
X145927095Y-85984761D01*
X145974714Y-85937142D01*
X146022333Y-85841904D01*
X146022333Y-85746666D01*
X145974714Y-85651428D01*
X145927095Y-85603809D01*
X145831857Y-85556190D01*
X145641380Y-85508571D01*
X145546142Y-85460952D01*
X145498523Y-85413333D01*
X145450904Y-85318095D01*
X145450904Y-85222857D01*
X145498523Y-85127619D01*
X145546142Y-85080000D01*
X145641380Y-85032380D01*
X145879476Y-85032380D01*
X146022333Y-85080000D01*
X146308047Y-85032380D02*
X146879476Y-85032380D01*
X146593761Y-86032380D02*
X146593761Y-85032380D01*
X147879476Y-85032380D02*
X148498523Y-85032380D01*
X148165190Y-85413333D01*
X148308047Y-85413333D01*
X148403285Y-85460952D01*
X148450904Y-85508571D01*
X148498523Y-85603809D01*
X148498523Y-85841904D01*
X148450904Y-85937142D01*
X148403285Y-85984761D01*
X148308047Y-86032380D01*
X148022333Y-86032380D01*
X147927095Y-85984761D01*
X147879476Y-85937142D01*
X148974714Y-86032380D02*
X149165190Y-86032380D01*
X149260428Y-85984761D01*
X149308047Y-85937142D01*
X149403285Y-85794285D01*
X149450904Y-85603809D01*
X149450904Y-85222857D01*
X149403285Y-85127619D01*
X149355666Y-85080000D01*
X149260428Y-85032380D01*
X149069952Y-85032380D01*
X148974714Y-85080000D01*
X148927095Y-85127619D01*
X148879476Y-85222857D01*
X148879476Y-85460952D01*
X148927095Y-85556190D01*
X148974714Y-85603809D01*
X149069952Y-85651428D01*
X149260428Y-85651428D01*
X149355666Y-85603809D01*
X149403285Y-85556190D01*
X149450904Y-85460952D01*
X149736619Y-85032380D02*
X150069952Y-86032380D01*
X150403285Y-85032380D01*
X151069952Y-85508571D02*
X150736619Y-85508571D01*
X150736619Y-86032380D02*
X150736619Y-85032380D01*
X151212809Y-85032380D01*
X151546142Y-85127619D02*
X151593761Y-85080000D01*
X151689000Y-85032380D01*
X151927095Y-85032380D01*
X152022333Y-85080000D01*
X152069952Y-85127619D01*
X152117571Y-85222857D01*
X152117571Y-85318095D01*
X152069952Y-85460952D01*
X151498523Y-86032380D01*
X152117571Y-86032380D01*
X152736619Y-85032380D02*
X152831857Y-85032380D01*
X152927095Y-85080000D01*
X152974714Y-85127619D01*
X153022333Y-85222857D01*
X153069952Y-85413333D01*
X153069952Y-85651428D01*
X153022333Y-85841904D01*
X152974714Y-85937142D01*
X152927095Y-85984761D01*
X152831857Y-86032380D01*
X152736619Y-86032380D01*
X152641380Y-85984761D01*
X152593761Y-85937142D01*
X152546142Y-85841904D01*
X152498523Y-85651428D01*
X152498523Y-85413333D01*
X152546142Y-85222857D01*
X152593761Y-85127619D01*
X152641380Y-85080000D01*
X152736619Y-85032380D01*
X153689000Y-85032380D02*
X153784238Y-85032380D01*
X153879476Y-85080000D01*
X153927095Y-85127619D01*
X153974714Y-85222857D01*
X154022333Y-85413333D01*
X154022333Y-85651428D01*
X153974714Y-85841904D01*
X153927095Y-85937142D01*
X153879476Y-85984761D01*
X153784238Y-86032380D01*
X153689000Y-86032380D01*
X153593761Y-85984761D01*
X153546142Y-85937142D01*
X153498523Y-85841904D01*
X153450904Y-85651428D01*
X153450904Y-85413333D01*
X153498523Y-85222857D01*
X153546142Y-85127619D01*
X153593761Y-85080000D01*
X153689000Y-85032380D01*
X154403285Y-85746666D02*
X154879476Y-85746666D01*
X154308047Y-86032380D02*
X154641380Y-85032380D01*
X154974714Y-86032380D01*
X144498523Y-87594761D02*
X144641380Y-87642380D01*
X144879476Y-87642380D01*
X144974714Y-87594761D01*
X145022333Y-87547142D01*
X145069952Y-87451904D01*
X145069952Y-87356666D01*
X145022333Y-87261428D01*
X144974714Y-87213809D01*
X144879476Y-87166190D01*
X144689000Y-87118571D01*
X144593761Y-87070952D01*
X144546142Y-87023333D01*
X144498523Y-86928095D01*
X144498523Y-86832857D01*
X144546142Y-86737619D01*
X144593761Y-86690000D01*
X144689000Y-86642380D01*
X144927095Y-86642380D01*
X145069952Y-86690000D01*
X145450904Y-87594761D02*
X145593761Y-87642380D01*
X145831857Y-87642380D01*
X145927095Y-87594761D01*
X145974714Y-87547142D01*
X146022333Y-87451904D01*
X146022333Y-87356666D01*
X145974714Y-87261428D01*
X145927095Y-87213809D01*
X145831857Y-87166190D01*
X145641380Y-87118571D01*
X145546142Y-87070952D01*
X145498523Y-87023333D01*
X145450904Y-86928095D01*
X145450904Y-86832857D01*
X145498523Y-86737619D01*
X145546142Y-86690000D01*
X145641380Y-86642380D01*
X145879476Y-86642380D01*
X146022333Y-86690000D01*
X146308047Y-86642380D02*
X146879476Y-86642380D01*
X146593761Y-87642380D02*
X146593761Y-86642380D01*
X147879476Y-86642380D02*
X148498523Y-86642380D01*
X148165190Y-87023333D01*
X148308047Y-87023333D01*
X148403285Y-87070952D01*
X148450904Y-87118571D01*
X148498523Y-87213809D01*
X148498523Y-87451904D01*
X148450904Y-87547142D01*
X148403285Y-87594761D01*
X148308047Y-87642380D01*
X148022333Y-87642380D01*
X147927095Y-87594761D01*
X147879476Y-87547142D01*
X148974714Y-87642380D02*
X149165190Y-87642380D01*
X149260428Y-87594761D01*
X149308047Y-87547142D01*
X149403285Y-87404285D01*
X149450904Y-87213809D01*
X149450904Y-86832857D01*
X149403285Y-86737619D01*
X149355666Y-86690000D01*
X149260428Y-86642380D01*
X149069952Y-86642380D01*
X148974714Y-86690000D01*
X148927095Y-86737619D01*
X148879476Y-86832857D01*
X148879476Y-87070952D01*
X148927095Y-87166190D01*
X148974714Y-87213809D01*
X149069952Y-87261428D01*
X149260428Y-87261428D01*
X149355666Y-87213809D01*
X149403285Y-87166190D01*
X149450904Y-87070952D01*
X149736619Y-86642380D02*
X150069952Y-87642380D01*
X150403285Y-86642380D01*
X151069952Y-87118571D02*
X150736619Y-87118571D01*
X150736619Y-87642380D02*
X150736619Y-86642380D01*
X151212809Y-86642380D01*
X151736619Y-87070952D02*
X151641380Y-87023333D01*
X151593761Y-86975714D01*
X151546142Y-86880476D01*
X151546142Y-86832857D01*
X151593761Y-86737619D01*
X151641380Y-86690000D01*
X151736619Y-86642380D01*
X151927095Y-86642380D01*
X152022333Y-86690000D01*
X152069952Y-86737619D01*
X152117571Y-86832857D01*
X152117571Y-86880476D01*
X152069952Y-86975714D01*
X152022333Y-87023333D01*
X151927095Y-87070952D01*
X151736619Y-87070952D01*
X151641380Y-87118571D01*
X151593761Y-87166190D01*
X151546142Y-87261428D01*
X151546142Y-87451904D01*
X151593761Y-87547142D01*
X151641380Y-87594761D01*
X151736619Y-87642380D01*
X151927095Y-87642380D01*
X152022333Y-87594761D01*
X152069952Y-87547142D01*
X152117571Y-87451904D01*
X152117571Y-87261428D01*
X152069952Y-87166190D01*
X152022333Y-87118571D01*
X151927095Y-87070952D01*
X152736619Y-86642380D02*
X152831857Y-86642380D01*
X152927095Y-86690000D01*
X152974714Y-86737619D01*
X153022333Y-86832857D01*
X153069952Y-87023333D01*
X153069952Y-87261428D01*
X153022333Y-87451904D01*
X152974714Y-87547142D01*
X152927095Y-87594761D01*
X152831857Y-87642380D01*
X152736619Y-87642380D01*
X152641380Y-87594761D01*
X152593761Y-87547142D01*
X152546142Y-87451904D01*
X152498523Y-87261428D01*
X152498523Y-87023333D01*
X152546142Y-86832857D01*
X152593761Y-86737619D01*
X152641380Y-86690000D01*
X152736619Y-86642380D01*
X153689000Y-86642380D02*
X153784238Y-86642380D01*
X153879476Y-86690000D01*
X153927095Y-86737619D01*
X153974714Y-86832857D01*
X154022333Y-87023333D01*
X154022333Y-87261428D01*
X153974714Y-87451904D01*
X153927095Y-87547142D01*
X153879476Y-87594761D01*
X153784238Y-87642380D01*
X153689000Y-87642380D01*
X153593761Y-87594761D01*
X153546142Y-87547142D01*
X153498523Y-87451904D01*
X153450904Y-87261428D01*
X153450904Y-87023333D01*
X153498523Y-86832857D01*
X153546142Y-86737619D01*
X153593761Y-86690000D01*
X153689000Y-86642380D01*
X154403285Y-87356666D02*
X154879476Y-87356666D01*
X154308047Y-87642380D02*
X154641380Y-86642380D01*
X154974714Y-87642380D01*
X141713142Y-100948666D02*
X141760761Y-100996285D01*
X141808380Y-101139142D01*
X141808380Y-101234380D01*
X141760761Y-101377238D01*
X141665523Y-101472476D01*
X141570285Y-101520095D01*
X141379809Y-101567714D01*
X141236952Y-101567714D01*
X141046476Y-101520095D01*
X140951238Y-101472476D01*
X140856000Y-101377238D01*
X140808380Y-101234380D01*
X140808380Y-101139142D01*
X140856000Y-100996285D01*
X140903619Y-100948666D01*
X140903619Y-100567714D02*
X140856000Y-100520095D01*
X140808380Y-100424857D01*
X140808380Y-100186761D01*
X140856000Y-100091523D01*
X140903619Y-100043904D01*
X140998857Y-99996285D01*
X141094095Y-99996285D01*
X141236952Y-100043904D01*
X141808380Y-100615333D01*
X141808380Y-99996285D01*
X138641142Y-93154666D02*
X138688761Y-93202285D01*
X138736380Y-93345142D01*
X138736380Y-93440380D01*
X138688761Y-93583238D01*
X138593523Y-93678476D01*
X138498285Y-93726095D01*
X138307809Y-93773714D01*
X138164952Y-93773714D01*
X137974476Y-93726095D01*
X137879238Y-93678476D01*
X137784000Y-93583238D01*
X137736380Y-93440380D01*
X137736380Y-93345142D01*
X137784000Y-93202285D01*
X137831619Y-93154666D01*
X138069714Y-92297523D02*
X138736380Y-92297523D01*
X137688761Y-92535619D02*
X138403047Y-92773714D01*
X138403047Y-92154666D01*
X169286714Y-61933761D02*
X169429571Y-61981380D01*
X169667666Y-61981380D01*
X169762904Y-61933761D01*
X169810523Y-61886142D01*
X169858142Y-61790904D01*
X169858142Y-61695666D01*
X169810523Y-61600428D01*
X169762904Y-61552809D01*
X169667666Y-61505190D01*
X169477190Y-61457571D01*
X169381952Y-61409952D01*
X169334333Y-61362333D01*
X169286714Y-61267095D01*
X169286714Y-61171857D01*
X169334333Y-61076619D01*
X169381952Y-61029000D01*
X169477190Y-60981380D01*
X169715285Y-60981380D01*
X169858142Y-61029000D01*
X170191476Y-61314714D02*
X170381952Y-61981380D01*
X170572428Y-61505190D01*
X170762904Y-61981380D01*
X170953380Y-61314714D01*
X171334333Y-61981380D02*
X171334333Y-61314714D01*
X171334333Y-60981380D02*
X171286714Y-61029000D01*
X171334333Y-61076619D01*
X171381952Y-61029000D01*
X171334333Y-60981380D01*
X171334333Y-61076619D01*
X171667666Y-61314714D02*
X172048619Y-61314714D01*
X171810523Y-60981380D02*
X171810523Y-61838523D01*
X171858142Y-61933761D01*
X171953380Y-61981380D01*
X172048619Y-61981380D01*
X172810523Y-61933761D02*
X172715285Y-61981380D01*
X172524809Y-61981380D01*
X172429571Y-61933761D01*
X172381952Y-61886142D01*
X172334333Y-61790904D01*
X172334333Y-61505190D01*
X172381952Y-61409952D01*
X172429571Y-61362333D01*
X172524809Y-61314714D01*
X172715285Y-61314714D01*
X172810523Y-61362333D01*
X173239095Y-61981380D02*
X173239095Y-60981380D01*
X173667666Y-61981380D02*
X173667666Y-61457571D01*
X173620047Y-61362333D01*
X173524809Y-61314714D01*
X173381952Y-61314714D01*
X173286714Y-61362333D01*
X173239095Y-61409952D01*
X141269857Y-81162428D02*
X142031761Y-81162428D01*
X143031761Y-81543380D02*
X142460333Y-81543380D01*
X142746047Y-81543380D02*
X142746047Y-80543380D01*
X142650809Y-80686238D01*
X142555571Y-80781476D01*
X142460333Y-80829095D01*
X132767380Y-102961666D02*
X132291190Y-103295000D01*
X132767380Y-103533095D02*
X131767380Y-103533095D01*
X131767380Y-103152142D01*
X131815000Y-103056904D01*
X131862619Y-103009285D01*
X131957857Y-102961666D01*
X132100714Y-102961666D01*
X132195952Y-103009285D01*
X132243571Y-103056904D01*
X132291190Y-103152142D01*
X132291190Y-103533095D01*
X131862619Y-102580714D02*
X131815000Y-102533095D01*
X131767380Y-102437857D01*
X131767380Y-102199761D01*
X131815000Y-102104523D01*
X131862619Y-102056904D01*
X131957857Y-102009285D01*
X132053095Y-102009285D01*
X132195952Y-102056904D01*
X132767380Y-102628333D01*
X132767380Y-102009285D01*
X147539714Y-111283380D02*
X146968285Y-111283380D01*
X147254000Y-111283380D02*
X147254000Y-110283380D01*
X147158761Y-110426238D01*
X147063523Y-110521476D01*
X146968285Y-110569095D01*
X147254000Y-113226714D02*
X147254000Y-111798142D01*
X152522857Y-106739750D02*
X152880000Y-106739750D01*
X152451428Y-106954035D02*
X152701428Y-106204035D01*
X152951428Y-106954035D01*
X153630000Y-106882607D02*
X153594285Y-106918321D01*
X153487142Y-106954035D01*
X153415714Y-106954035D01*
X153308571Y-106918321D01*
X153237142Y-106846892D01*
X153201428Y-106775464D01*
X153165714Y-106632607D01*
X153165714Y-106525464D01*
X153201428Y-106382607D01*
X153237142Y-106311178D01*
X153308571Y-106239750D01*
X153415714Y-106204035D01*
X153487142Y-106204035D01*
X153594285Y-106239750D01*
X153630000Y-106275464D01*
X153844285Y-106204035D02*
X154272857Y-106204035D01*
X154058571Y-106954035D02*
X154058571Y-106204035D01*
X154522857Y-106561178D02*
X154772857Y-106561178D01*
X154880000Y-106954035D02*
X154522857Y-106954035D01*
X154522857Y-106204035D01*
X154880000Y-106204035D01*
X155558571Y-106954035D02*
X155201428Y-106954035D01*
X155201428Y-106204035D01*
X150576428Y-107947250D02*
X150933571Y-107947250D01*
X150505000Y-108161535D02*
X150755000Y-107411535D01*
X151005000Y-108161535D01*
X151612142Y-107411535D02*
X151255000Y-107411535D01*
X151219285Y-107768678D01*
X151255000Y-107732964D01*
X151326428Y-107697250D01*
X151505000Y-107697250D01*
X151576428Y-107732964D01*
X151612142Y-107768678D01*
X151647857Y-107840107D01*
X151647857Y-108018678D01*
X151612142Y-108090107D01*
X151576428Y-108125821D01*
X151505000Y-108161535D01*
X151326428Y-108161535D01*
X151255000Y-108125821D01*
X151219285Y-108090107D01*
X152290714Y-107661535D02*
X152290714Y-108161535D01*
X152112142Y-107375821D02*
X151933571Y-107911535D01*
X152397857Y-107911535D01*
X152647857Y-108125821D02*
X152755000Y-108161535D01*
X152933571Y-108161535D01*
X153005000Y-108125821D01*
X153040714Y-108090107D01*
X153076428Y-108018678D01*
X153076428Y-107947250D01*
X153040714Y-107875821D01*
X153005000Y-107840107D01*
X152933571Y-107804392D01*
X152790714Y-107768678D01*
X152719285Y-107732964D01*
X152683571Y-107697250D01*
X152647857Y-107625821D01*
X152647857Y-107554392D01*
X152683571Y-107482964D01*
X152719285Y-107447250D01*
X152790714Y-107411535D01*
X152969285Y-107411535D01*
X153076428Y-107447250D01*
X153326428Y-107411535D02*
X153826428Y-108161535D01*
X153826428Y-107411535D02*
X153326428Y-108161535D01*
X154255000Y-107411535D02*
X154326428Y-107411535D01*
X154397857Y-107447250D01*
X154433571Y-107482964D01*
X154469285Y-107554392D01*
X154505000Y-107697250D01*
X154505000Y-107875821D01*
X154469285Y-108018678D01*
X154433571Y-108090107D01*
X154397857Y-108125821D01*
X154326428Y-108161535D01*
X154255000Y-108161535D01*
X154183571Y-108125821D01*
X154147857Y-108090107D01*
X154112142Y-108018678D01*
X154076428Y-107875821D01*
X154076428Y-107697250D01*
X154112142Y-107554392D01*
X154147857Y-107482964D01*
X154183571Y-107447250D01*
X154255000Y-107411535D01*
X154933571Y-107732964D02*
X154862142Y-107697250D01*
X154826428Y-107661535D01*
X154790714Y-107590107D01*
X154790714Y-107554392D01*
X154826428Y-107482964D01*
X154862142Y-107447250D01*
X154933571Y-107411535D01*
X155076428Y-107411535D01*
X155147857Y-107447250D01*
X155183571Y-107482964D01*
X155219285Y-107554392D01*
X155219285Y-107590107D01*
X155183571Y-107661535D01*
X155147857Y-107697250D01*
X155076428Y-107732964D01*
X154933571Y-107732964D01*
X154862142Y-107768678D01*
X154826428Y-107804392D01*
X154790714Y-107875821D01*
X154790714Y-108018678D01*
X154826428Y-108090107D01*
X154862142Y-108125821D01*
X154933571Y-108161535D01*
X155076428Y-108161535D01*
X155147857Y-108125821D01*
X155183571Y-108090107D01*
X155219285Y-108018678D01*
X155219285Y-107875821D01*
X155183571Y-107804392D01*
X155147857Y-107768678D01*
X155076428Y-107732964D01*
X155505000Y-107947250D02*
X155862142Y-107947250D01*
X155433571Y-108161535D02*
X155683571Y-107411535D01*
X155933571Y-108161535D01*
X156183571Y-107875821D02*
X156755000Y-107875821D01*
X157362142Y-107768678D02*
X157112142Y-107768678D01*
X157112142Y-108161535D02*
X157112142Y-107411535D01*
X157469285Y-107411535D01*
X152558571Y-109369035D02*
X152558571Y-108619035D01*
X152737142Y-108619035D01*
X152844285Y-108654750D01*
X152915714Y-108726178D01*
X152951428Y-108797607D01*
X152987142Y-108940464D01*
X152987142Y-109047607D01*
X152951428Y-109190464D01*
X152915714Y-109261892D01*
X152844285Y-109333321D01*
X152737142Y-109369035D01*
X152558571Y-109369035D01*
X153272857Y-109154750D02*
X153630000Y-109154750D01*
X153201428Y-109369035D02*
X153451428Y-108619035D01*
X153701428Y-109369035D01*
X153844285Y-108619035D02*
X154272857Y-108619035D01*
X154058571Y-109369035D02*
X154058571Y-108619035D01*
X154522857Y-108976178D02*
X154772857Y-108976178D01*
X154880000Y-109369035D02*
X154522857Y-109369035D01*
X154522857Y-108619035D01*
X154880000Y-108619035D01*
X155558571Y-109369035D02*
X155201428Y-109369035D01*
X155201428Y-108619035D01*
X149522857Y-109862250D02*
X149451428Y-109826535D01*
X149344285Y-109826535D01*
X149237142Y-109862250D01*
X149165714Y-109933678D01*
X149130000Y-110005107D01*
X149094285Y-110147964D01*
X149094285Y-110255107D01*
X149130000Y-110397964D01*
X149165714Y-110469392D01*
X149237142Y-110540821D01*
X149344285Y-110576535D01*
X149415714Y-110576535D01*
X149522857Y-110540821D01*
X149558571Y-110505107D01*
X149558571Y-110255107D01*
X149415714Y-110255107D01*
X150130000Y-110183678D02*
X150237142Y-110219392D01*
X150272857Y-110255107D01*
X150308571Y-110326535D01*
X150308571Y-110433678D01*
X150272857Y-110505107D01*
X150237142Y-110540821D01*
X150165714Y-110576535D01*
X149880000Y-110576535D01*
X149880000Y-109826535D01*
X150130000Y-109826535D01*
X150201428Y-109862250D01*
X150237142Y-109897964D01*
X150272857Y-109969392D01*
X150272857Y-110040821D01*
X150237142Y-110112250D01*
X150201428Y-110147964D01*
X150130000Y-110183678D01*
X149880000Y-110183678D01*
X150594285Y-110362250D02*
X150951428Y-110362250D01*
X150522857Y-110576535D02*
X150772857Y-109826535D01*
X151022857Y-110576535D01*
X151237142Y-110362250D02*
X151594285Y-110362250D01*
X151165714Y-110576535D02*
X151415714Y-109826535D01*
X151665714Y-110576535D01*
X152344285Y-110505107D02*
X152308571Y-110540821D01*
X152201428Y-110576535D01*
X152130000Y-110576535D01*
X152022857Y-110540821D01*
X151951428Y-110469392D01*
X151915714Y-110397964D01*
X151880000Y-110255107D01*
X151880000Y-110147964D01*
X151915714Y-110005107D01*
X151951428Y-109933678D01*
X152022857Y-109862250D01*
X152130000Y-109826535D01*
X152201428Y-109826535D01*
X152308571Y-109862250D01*
X152344285Y-109897964D01*
X152558571Y-109826535D02*
X152987142Y-109826535D01*
X152772857Y-110576535D02*
X152772857Y-109826535D01*
X153237142Y-110576535D02*
X153237142Y-109826535D01*
X153737142Y-109826535D02*
X153880000Y-109826535D01*
X153951428Y-109862250D01*
X154022857Y-109933678D01*
X154058571Y-110076535D01*
X154058571Y-110326535D01*
X154022857Y-110469392D01*
X153951428Y-110540821D01*
X153880000Y-110576535D01*
X153737142Y-110576535D01*
X153665714Y-110540821D01*
X153594285Y-110469392D01*
X153558571Y-110326535D01*
X153558571Y-110076535D01*
X153594285Y-109933678D01*
X153665714Y-109862250D01*
X153737142Y-109826535D01*
X154380000Y-110576535D02*
X154380000Y-109826535D01*
X154808571Y-110576535D01*
X154808571Y-109826535D01*
X155594285Y-110576535D02*
X155344285Y-110219392D01*
X155165714Y-110576535D02*
X155165714Y-109826535D01*
X155451428Y-109826535D01*
X155522857Y-109862250D01*
X155558571Y-109897964D01*
X155594285Y-109969392D01*
X155594285Y-110076535D01*
X155558571Y-110147964D01*
X155522857Y-110183678D01*
X155451428Y-110219392D01*
X155165714Y-110219392D01*
X155915714Y-110183678D02*
X156165714Y-110183678D01*
X156272857Y-110576535D02*
X155915714Y-110576535D01*
X155915714Y-109826535D01*
X156272857Y-109826535D01*
X156594285Y-110576535D02*
X156594285Y-109826535D01*
X156880000Y-109826535D01*
X156951428Y-109862250D01*
X156987142Y-109897964D01*
X157022857Y-109969392D01*
X157022857Y-110076535D01*
X156987142Y-110147964D01*
X156951428Y-110183678D01*
X156880000Y-110219392D01*
X156594285Y-110219392D01*
X157701428Y-110576535D02*
X157344285Y-110576535D01*
X157344285Y-109826535D01*
X157915714Y-110362250D02*
X158272857Y-110362250D01*
X157844285Y-110576535D02*
X158094285Y-109826535D01*
X158344285Y-110576535D01*
X158737142Y-110219392D02*
X158737142Y-110576535D01*
X158487142Y-109826535D02*
X158737142Y-110219392D01*
X158987142Y-109826535D01*
X165332142Y-97479666D02*
X165379761Y-97527285D01*
X165427380Y-97670142D01*
X165427380Y-97765380D01*
X165379761Y-97908238D01*
X165284523Y-98003476D01*
X165189285Y-98051095D01*
X164998809Y-98098714D01*
X164855952Y-98098714D01*
X164665476Y-98051095D01*
X164570238Y-98003476D01*
X164475000Y-97908238D01*
X164427380Y-97765380D01*
X164427380Y-97670142D01*
X164475000Y-97527285D01*
X164522619Y-97479666D01*
X164427380Y-97146333D02*
X164427380Y-96479666D01*
X165427380Y-96908238D01*
X137313380Y-60012666D02*
X136837190Y-60346000D01*
X137313380Y-60584095D02*
X136313380Y-60584095D01*
X136313380Y-60203142D01*
X136361000Y-60107904D01*
X136408619Y-60060285D01*
X136503857Y-60012666D01*
X136646714Y-60012666D01*
X136741952Y-60060285D01*
X136789571Y-60107904D01*
X136837190Y-60203142D01*
X136837190Y-60584095D01*
X136313380Y-59107904D02*
X136313380Y-59584095D01*
X136789571Y-59631714D01*
X136741952Y-59584095D01*
X136694333Y-59488857D01*
X136694333Y-59250761D01*
X136741952Y-59155523D01*
X136789571Y-59107904D01*
X136884809Y-59060285D01*
X137122904Y-59060285D01*
X137218142Y-59107904D01*
X137265761Y-59155523D01*
X137313380Y-59250761D01*
X137313380Y-59488857D01*
X137265761Y-59584095D01*
X137218142Y-59631714D01*
X173795333Y-99498380D02*
X173462000Y-99022190D01*
X173223904Y-99498380D02*
X173223904Y-98498380D01*
X173604857Y-98498380D01*
X173700095Y-98546000D01*
X173747714Y-98593619D01*
X173795333Y-98688857D01*
X173795333Y-98831714D01*
X173747714Y-98926952D01*
X173700095Y-98974571D01*
X173604857Y-99022190D01*
X173223904Y-99022190D01*
X174128666Y-98498380D02*
X174747714Y-98498380D01*
X174414380Y-98879333D01*
X174557238Y-98879333D01*
X174652476Y-98926952D01*
X174700095Y-98974571D01*
X174747714Y-99069809D01*
X174747714Y-99307904D01*
X174700095Y-99403142D01*
X174652476Y-99450761D01*
X174557238Y-99498380D01*
X174271523Y-99498380D01*
X174176285Y-99450761D01*
X174128666Y-99403142D01*
X132737380Y-107767666D02*
X132261190Y-108101000D01*
X132737380Y-108339095D02*
X131737380Y-108339095D01*
X131737380Y-107958142D01*
X131785000Y-107862904D01*
X131832619Y-107815285D01*
X131927857Y-107767666D01*
X132070714Y-107767666D01*
X132165952Y-107815285D01*
X132213571Y-107862904D01*
X132261190Y-107958142D01*
X132261190Y-108339095D01*
X132737380Y-106815285D02*
X132737380Y-107386714D01*
X132737380Y-107101000D02*
X131737380Y-107101000D01*
X131880238Y-107196238D01*
X131975476Y-107291476D01*
X132023095Y-107386714D01*
X168948333Y-92847714D02*
X168948333Y-93514380D01*
X168710238Y-92466761D02*
X168472142Y-93181047D01*
X169091190Y-93181047D01*
X169662619Y-92514380D02*
X169757857Y-92514380D01*
X169853095Y-92562000D01*
X169900714Y-92609619D01*
X169948333Y-92704857D01*
X169995952Y-92895333D01*
X169995952Y-93133428D01*
X169948333Y-93323904D01*
X169900714Y-93419142D01*
X169853095Y-93466761D01*
X169757857Y-93514380D01*
X169662619Y-93514380D01*
X169567380Y-93466761D01*
X169519761Y-93419142D01*
X169472142Y-93323904D01*
X169424523Y-93133428D01*
X169424523Y-92895333D01*
X169472142Y-92704857D01*
X169519761Y-92609619D01*
X169567380Y-92562000D01*
X169662619Y-92514380D01*
X171186428Y-93514380D02*
X171186428Y-92514380D01*
X171519761Y-93228666D01*
X171853095Y-92514380D01*
X171853095Y-93514380D01*
X172329285Y-93514380D02*
X172329285Y-92514380D01*
X172329285Y-92990571D02*
X172900714Y-92990571D01*
X172900714Y-93514380D02*
X172900714Y-92514380D01*
X173281666Y-92847714D02*
X173805476Y-92847714D01*
X173281666Y-93514380D01*
X173805476Y-93514380D01*
X167115142Y-108064666D02*
X167162761Y-108112285D01*
X167210380Y-108255142D01*
X167210380Y-108350380D01*
X167162761Y-108493238D01*
X167067523Y-108588476D01*
X166972285Y-108636095D01*
X166781809Y-108683714D01*
X166638952Y-108683714D01*
X166448476Y-108636095D01*
X166353238Y-108588476D01*
X166258000Y-108493238D01*
X166210380Y-108350380D01*
X166210380Y-108255142D01*
X166258000Y-108112285D01*
X166305619Y-108064666D01*
X166210380Y-107159904D02*
X166210380Y-107636095D01*
X166686571Y-107683714D01*
X166638952Y-107636095D01*
X166591333Y-107540857D01*
X166591333Y-107302761D01*
X166638952Y-107207523D01*
X166686571Y-107159904D01*
X166781809Y-107112285D01*
X167019904Y-107112285D01*
X167115142Y-107159904D01*
X167162761Y-107207523D01*
X167210380Y-107302761D01*
X167210380Y-107540857D01*
X167162761Y-107636095D01*
X167115142Y-107683714D01*
X136577142Y-100017666D02*
X136624761Y-100065285D01*
X136672380Y-100208142D01*
X136672380Y-100303380D01*
X136624761Y-100446238D01*
X136529523Y-100541476D01*
X136434285Y-100589095D01*
X136243809Y-100636714D01*
X136100952Y-100636714D01*
X135910476Y-100589095D01*
X135815238Y-100541476D01*
X135720000Y-100446238D01*
X135672380Y-100303380D01*
X135672380Y-100208142D01*
X135720000Y-100065285D01*
X135767619Y-100017666D01*
X135672380Y-99684333D02*
X135672380Y-99065285D01*
X136053333Y-99398619D01*
X136053333Y-99255761D01*
X136100952Y-99160523D01*
X136148571Y-99112904D01*
X136243809Y-99065285D01*
X136481904Y-99065285D01*
X136577142Y-99112904D01*
X136624761Y-99160523D01*
X136672380Y-99255761D01*
X136672380Y-99541476D01*
X136624761Y-99636714D01*
X136577142Y-99684333D01*
X128099857Y-57638571D02*
X128242714Y-57686190D01*
X128290333Y-57733809D01*
X128337952Y-57829047D01*
X128337952Y-57971904D01*
X128290333Y-58067142D01*
X128242714Y-58114761D01*
X128147476Y-58162380D01*
X127766523Y-58162380D01*
X127766523Y-57162380D01*
X128099857Y-57162380D01*
X128195095Y-57210000D01*
X128242714Y-57257619D01*
X128290333Y-57352857D01*
X128290333Y-57448095D01*
X128242714Y-57543333D01*
X128195095Y-57590952D01*
X128099857Y-57638571D01*
X127766523Y-57638571D01*
X129195095Y-57495714D02*
X129195095Y-58162380D01*
X128766523Y-57495714D02*
X128766523Y-58019523D01*
X128814142Y-58114761D01*
X128909380Y-58162380D01*
X129052238Y-58162380D01*
X129147476Y-58114761D01*
X129195095Y-58067142D01*
X129528428Y-57495714D02*
X129909380Y-57495714D01*
X129671285Y-57162380D02*
X129671285Y-58019523D01*
X129718904Y-58114761D01*
X129814142Y-58162380D01*
X129909380Y-58162380D01*
X130099857Y-57495714D02*
X130480809Y-57495714D01*
X130242714Y-57162380D02*
X130242714Y-58019523D01*
X130290333Y-58114761D01*
X130385571Y-58162380D01*
X130480809Y-58162380D01*
X130957000Y-58162380D02*
X130861761Y-58114761D01*
X130814142Y-58067142D01*
X130766523Y-57971904D01*
X130766523Y-57686190D01*
X130814142Y-57590952D01*
X130861761Y-57543333D01*
X130957000Y-57495714D01*
X131099857Y-57495714D01*
X131195095Y-57543333D01*
X131242714Y-57590952D01*
X131290333Y-57686190D01*
X131290333Y-57971904D01*
X131242714Y-58067142D01*
X131195095Y-58114761D01*
X131099857Y-58162380D01*
X130957000Y-58162380D01*
X131718904Y-57495714D02*
X131718904Y-58162380D01*
X131718904Y-57590952D02*
X131766523Y-57543333D01*
X131861761Y-57495714D01*
X132004619Y-57495714D01*
X132099857Y-57543333D01*
X132147476Y-57638571D01*
X132147476Y-58162380D01*
X145064714Y-61903380D02*
X144493285Y-61903380D01*
X144779000Y-61903380D02*
X144779000Y-60903380D01*
X144683761Y-61046238D01*
X144588523Y-61141476D01*
X144493285Y-61189095D01*
X144779000Y-63846714D02*
X144779000Y-62418142D01*
X125952095Y-66443380D02*
X125952095Y-67252904D01*
X125999714Y-67348142D01*
X126047333Y-67395761D01*
X126142571Y-67443380D01*
X126333047Y-67443380D01*
X126428285Y-67395761D01*
X126475904Y-67348142D01*
X126523523Y-67252904D01*
X126523523Y-66443380D01*
X126952095Y-67395761D02*
X127094952Y-67443380D01*
X127333047Y-67443380D01*
X127428285Y-67395761D01*
X127475904Y-67348142D01*
X127523523Y-67252904D01*
X127523523Y-67157666D01*
X127475904Y-67062428D01*
X127428285Y-67014809D01*
X127333047Y-66967190D01*
X127142571Y-66919571D01*
X127047333Y-66871952D01*
X126999714Y-66824333D01*
X126952095Y-66729095D01*
X126952095Y-66633857D01*
X126999714Y-66538619D01*
X127047333Y-66491000D01*
X127142571Y-66443380D01*
X127380666Y-66443380D01*
X127523523Y-66491000D01*
X128285428Y-66919571D02*
X128428285Y-66967190D01*
X128475904Y-67014809D01*
X128523523Y-67110047D01*
X128523523Y-67252904D01*
X128475904Y-67348142D01*
X128428285Y-67395761D01*
X128333047Y-67443380D01*
X127952095Y-67443380D01*
X127952095Y-66443380D01*
X128285428Y-66443380D01*
X128380666Y-66491000D01*
X128428285Y-66538619D01*
X128475904Y-66633857D01*
X128475904Y-66729095D01*
X128428285Y-66824333D01*
X128380666Y-66871952D01*
X128285428Y-66919571D01*
X127952095Y-66919571D01*
X141593142Y-107706666D02*
X141640761Y-107754285D01*
X141688380Y-107897142D01*
X141688380Y-107992380D01*
X141640761Y-108135238D01*
X141545523Y-108230476D01*
X141450285Y-108278095D01*
X141259809Y-108325714D01*
X141116952Y-108325714D01*
X140926476Y-108278095D01*
X140831238Y-108230476D01*
X140736000Y-108135238D01*
X140688380Y-107992380D01*
X140688380Y-107897142D01*
X140736000Y-107754285D01*
X140783619Y-107706666D01*
X141688380Y-106754285D02*
X141688380Y-107325714D01*
X141688380Y-107040000D02*
X140688380Y-107040000D01*
X140831238Y-107135238D01*
X140926476Y-107230476D01*
X140974095Y-107325714D01*
X167003142Y-104379666D02*
X167050761Y-104427285D01*
X167098380Y-104570142D01*
X167098380Y-104665380D01*
X167050761Y-104808238D01*
X166955523Y-104903476D01*
X166860285Y-104951095D01*
X166669809Y-104998714D01*
X166526952Y-104998714D01*
X166336476Y-104951095D01*
X166241238Y-104903476D01*
X166146000Y-104808238D01*
X166098380Y-104665380D01*
X166098380Y-104570142D01*
X166146000Y-104427285D01*
X166193619Y-104379666D01*
X166098380Y-103522523D02*
X166098380Y-103713000D01*
X166146000Y-103808238D01*
X166193619Y-103855857D01*
X166336476Y-103951095D01*
X166526952Y-103998714D01*
X166907904Y-103998714D01*
X167003142Y-103951095D01*
X167050761Y-103903476D01*
X167098380Y-103808238D01*
X167098380Y-103617761D01*
X167050761Y-103522523D01*
X167003142Y-103474904D01*
X166907904Y-103427285D01*
X166669809Y-103427285D01*
X166574571Y-103474904D01*
X166526952Y-103522523D01*
X166479333Y-103617761D01*
X166479333Y-103808238D01*
X166526952Y-103903476D01*
X166574571Y-103951095D01*
X166669809Y-103998714D01*
X164739142Y-92025666D02*
X164786761Y-92073285D01*
X164834380Y-92216142D01*
X164834380Y-92311380D01*
X164786761Y-92454238D01*
X164691523Y-92549476D01*
X164596285Y-92597095D01*
X164405809Y-92644714D01*
X164262952Y-92644714D01*
X164072476Y-92597095D01*
X163977238Y-92549476D01*
X163882000Y-92454238D01*
X163834380Y-92311380D01*
X163834380Y-92216142D01*
X163882000Y-92073285D01*
X163929619Y-92025666D01*
X164262952Y-91454238D02*
X164215333Y-91549476D01*
X164167714Y-91597095D01*
X164072476Y-91644714D01*
X164024857Y-91644714D01*
X163929619Y-91597095D01*
X163882000Y-91549476D01*
X163834380Y-91454238D01*
X163834380Y-91263761D01*
X163882000Y-91168523D01*
X163929619Y-91120904D01*
X164024857Y-91073285D01*
X164072476Y-91073285D01*
X164167714Y-91120904D01*
X164215333Y-91168523D01*
X164262952Y-91263761D01*
X164262952Y-91454238D01*
X164310571Y-91549476D01*
X164358190Y-91597095D01*
X164453428Y-91644714D01*
X164643904Y-91644714D01*
X164739142Y-91597095D01*
X164786761Y-91549476D01*
X164834380Y-91454238D01*
X164834380Y-91263761D01*
X164786761Y-91168523D01*
X164739142Y-91120904D01*
X164643904Y-91073285D01*
X164453428Y-91073285D01*
X164358190Y-91120904D01*
X164310571Y-91168523D01*
X164262952Y-91263761D01*
%TO.C,*%
%TO.C,REF\u002A\u002A*%
X106966666Y-104962380D02*
X106633333Y-104486190D01*
X106395238Y-104962380D02*
X106395238Y-103962380D01*
X106776190Y-103962380D01*
X106871428Y-104010000D01*
X106919047Y-104057619D01*
X106966666Y-104152857D01*
X106966666Y-104295714D01*
X106919047Y-104390952D01*
X106871428Y-104438571D01*
X106776190Y-104486190D01*
X106395238Y-104486190D01*
X107395238Y-104438571D02*
X107728571Y-104438571D01*
X107871428Y-104962380D02*
X107395238Y-104962380D01*
X107395238Y-103962380D01*
X107871428Y-103962380D01*
X108633333Y-104438571D02*
X108300000Y-104438571D01*
X108300000Y-104962380D02*
X108300000Y-103962380D01*
X108776190Y-103962380D01*
X109300000Y-103962380D02*
X109300000Y-104200476D01*
X109061904Y-104105238D02*
X109300000Y-104200476D01*
X109538095Y-104105238D01*
X109157142Y-104390952D02*
X109300000Y-104200476D01*
X109442857Y-104390952D01*
X110061904Y-103962380D02*
X110061904Y-104200476D01*
X109823809Y-104105238D02*
X110061904Y-104200476D01*
X110300000Y-104105238D01*
X109919047Y-104390952D02*
X110061904Y-104200476D01*
X110204761Y-104390952D01*
D11*
%TO.C,*%
X136681000Y-107724000D02*
X135931700Y-108874620D01*
X136681000Y-107724000D02*
X137481100Y-108874620D01*
X137481100Y-107724000D02*
X135880900Y-107724000D01*
X136681000Y-107724000D02*
X136681000Y-106822300D01*
X135931700Y-108874620D02*
X137481100Y-108874620D01*
X136681000Y-108874620D02*
X136681000Y-109872840D01*
D12*
%TO.C,REF\u002A\u002A*%
X105000000Y-108510000D02*
X110700000Y-108510000D01*
X110700000Y-105510000D02*
X105000000Y-105510000D01*
X105000000Y-105510000D02*
X105000000Y-108510000D01*
D13*
%TO.C,U3*%
X146262000Y-99599000D02*
X146262000Y-100139000D01*
X160262000Y-99599000D02*
X160262000Y-100139000D01*
X160262000Y-99599000D02*
X159722000Y-99599000D01*
X160262000Y-113599000D02*
X159722000Y-113599000D01*
X160262000Y-113599000D02*
X160262000Y-113059000D01*
X146262000Y-113599000D02*
X146262000Y-113059000D01*
X146262000Y-113599000D02*
X146802000Y-113599000D01*
X146262000Y-99599000D02*
X146802000Y-99599000D01*
D14*
X147362000Y-116039000D02*
G75*
G03*
X147362000Y-116039000I-100000J0D01*
G01*
%TD*%
M02*
