%TF.GenerationSoftware,KiCad,Pcbnew,(6.0.2)*%
%TF.CreationDate,2022-08-25T20:59:28-05:00*%
%TF.ProjectId,REF1479,52454631-3437-4392-9e6b-696361645f70,rev?*%
%TF.SameCoordinates,Original*%
%TF.FileFunction,Copper,L1,Top*%
%TF.FilePolarity,Positive*%
%FSLAX46Y46*%
G04 Gerber Fmt 4.6, Leading zero omitted, Abs format (unit mm)*
G04 Created by KiCad (PCBNEW (6.0.2)) date 2022-08-25 20:59:28*
%MOMM*%
%LPD*%
G01*
G04 APERTURE LIST*
G04 Aperture macros list*
%AMRoundRect*
0 Rectangle with rounded corners*
0 $1 Rounding radius*
0 $2 $3 $4 $5 $6 $7 $8 $9 X,Y pos of 4 corners*
0 Add a 4 corners polygon primitive as box body*
4,1,4,$2,$3,$4,$5,$6,$7,$8,$9,$2,$3,0*
0 Add four circle primitives for the rounded corners*
1,1,$1+$1,$2,$3*
1,1,$1+$1,$4,$5*
1,1,$1+$1,$6,$7*
1,1,$1+$1,$8,$9*
0 Add four rect primitives between the rounded corners*
20,1,$1+$1,$2,$3,$4,$5,0*
20,1,$1+$1,$4,$5,$6,$7,0*
20,1,$1+$1,$6,$7,$8,$9,0*
20,1,$1+$1,$8,$9,$2,$3,0*%
G04 Aperture macros list end*
%ADD10C,0.200000*%
%TA.AperFunction,NonConductor*%
%ADD11C,0.200000*%
%TD*%
%TA.AperFunction,SMDPad,CuDef*%
%ADD12R,1.230000X1.270000*%
%TD*%
%TA.AperFunction,SMDPad,CuDef*%
%ADD13R,1.270000X1.230000*%
%TD*%
%TA.AperFunction,SMDPad,CuDef*%
%ADD14R,1.500000X1.500000*%
%TD*%
%TA.AperFunction,ComponentPad*%
%ADD15R,1.500000X1.500000*%
%TD*%
%TA.AperFunction,ComponentPad*%
%ADD16C,1.500000*%
%TD*%
%TA.AperFunction,SMDPad,CuDef*%
%ADD17RoundRect,0.056000X0.724000X-0.084000X0.724000X0.084000X-0.724000X0.084000X-0.724000X-0.084000X0*%
%TD*%
%TA.AperFunction,SMDPad,CuDef*%
%ADD18RoundRect,0.011200X0.128800X-0.768800X0.128800X0.768800X-0.128800X0.768800X-0.128800X-0.768800X0*%
%TD*%
%TA.AperFunction,ComponentPad*%
%ADD19C,2.020000*%
%TD*%
%TA.AperFunction,SMDPad,CuDef*%
%ADD20R,0.600000X1.750000*%
%TD*%
%TA.AperFunction,ComponentPad*%
%ADD21C,1.830000*%
%TD*%
%TA.AperFunction,ComponentPad*%
%ADD22R,1.700000X1.700000*%
%TD*%
%TA.AperFunction,ComponentPad*%
%ADD23C,1.700000*%
%TD*%
%TA.AperFunction,ComponentPad*%
%ADD24O,3.090000X2.250000*%
%TD*%
%TA.AperFunction,ComponentPad*%
%ADD25C,1.860000*%
%TD*%
%TA.AperFunction,SMDPad,CuDef*%
%ADD26R,1.300000X0.300000*%
%TD*%
%TA.AperFunction,SMDPad,CuDef*%
%ADD27R,1.030000X7.780000*%
%TD*%
%TA.AperFunction,SMDPad,CuDef*%
%ADD28R,1.430000X7.780000*%
%TD*%
%TA.AperFunction,ComponentPad*%
%ADD29C,4.800000*%
%TD*%
%TA.AperFunction,ViaPad*%
%ADD30C,0.800000*%
%TD*%
%TA.AperFunction,Conductor*%
%ADD31C,0.250000*%
%TD*%
%TA.AperFunction,Conductor*%
%ADD32C,0.200000*%
%TD*%
%TA.AperFunction,Conductor*%
%ADD33C,0.500000*%
%TD*%
%TA.AperFunction,Conductor*%
%ADD34C,0.279800*%
%TD*%
%TA.AperFunction,Conductor*%
%ADD35C,0.550000*%
%TD*%
%TA.AperFunction,Conductor*%
%ADD36C,0.280200*%
%TD*%
G04 APERTURE END LIST*
D10*
D11*
X122567380Y-91180190D02*
X122091190Y-91513523D01*
X122567380Y-91751619D02*
X121567380Y-91751619D01*
X121567380Y-91370666D01*
X121615000Y-91275428D01*
X121662619Y-91227809D01*
X121757857Y-91180190D01*
X121900714Y-91180190D01*
X121995952Y-91227809D01*
X122043571Y-91275428D01*
X122091190Y-91370666D01*
X122091190Y-91751619D01*
X122043571Y-90751619D02*
X122043571Y-90418285D01*
X122567380Y-90275428D02*
X122567380Y-90751619D01*
X121567380Y-90751619D01*
X121567380Y-90275428D01*
X122043571Y-89513523D02*
X122043571Y-89846857D01*
X122567380Y-89846857D02*
X121567380Y-89846857D01*
X121567380Y-89370666D01*
X122567380Y-88465904D02*
X122567380Y-89037333D01*
X122567380Y-88751619D02*
X121567380Y-88751619D01*
X121710238Y-88846857D01*
X121805476Y-88942095D01*
X121853095Y-89037333D01*
X121900714Y-87608761D02*
X122567380Y-87608761D01*
X121519761Y-87846857D02*
X122234047Y-88084952D01*
X122234047Y-87465904D01*
X121567380Y-87180190D02*
X121567380Y-86513523D01*
X122567380Y-86942095D01*
X122567380Y-86084952D02*
X122567380Y-85894476D01*
X122519761Y-85799238D01*
X122472142Y-85751619D01*
X122329285Y-85656380D01*
X122138809Y-85608761D01*
X121757857Y-85608761D01*
X121662619Y-85656380D01*
X121615000Y-85704000D01*
X121567380Y-85799238D01*
X121567380Y-85989714D01*
X121615000Y-86084952D01*
X121662619Y-86132571D01*
X121757857Y-86180190D01*
X121995952Y-86180190D01*
X122091190Y-86132571D01*
X122138809Y-86084952D01*
X122186428Y-85989714D01*
X122186428Y-85799238D01*
X122138809Y-85704000D01*
X122091190Y-85656380D01*
X121995952Y-85608761D01*
D12*
%TO.P,R3,1*%
%TO.N,/40MHz.Pin1*%
X169968000Y-98985500D03*
%TO.P,R3,2*%
%TO.N,/40MHz.Pin3*%
X171790000Y-98980500D03*
%TD*%
D13*
%TO.P,R5,1*%
%TO.N,/Button*%
X136861500Y-55842000D03*
%TO.P,R5,2*%
%TO.N,/VCC*%
X136866500Y-57664000D03*
%TD*%
%TO.P,R4,1*%
%TO.N,/USB.D-*%
X161790500Y-59885000D03*
%TO.P,R4,2*%
%TO.N,/Cy.VREG*%
X161795500Y-61707000D03*
%TD*%
%TO.P,C5,1*%
%TO.N,/GND*%
X164882500Y-107213000D03*
%TO.P,C5,2*%
%TO.N,/VCC_Internal*%
X164887500Y-109035000D03*
%TD*%
%TO.P,C6,1*%
%TO.N,/VCC*%
X164884500Y-103405000D03*
%TO.P,C6,2*%
%TO.N,/GND*%
X164889500Y-105227000D03*
%TD*%
%TO.P,C7,1*%
%TO.N,/GND*%
X164870500Y-99312000D03*
%TO.P,C7,2*%
%TO.N,/VCC*%
X164875500Y-101134000D03*
%TD*%
D14*
%TO.P,C4,1*%
%TO.N,/GND*%
X138259500Y-95128500D03*
%TO.P,C4,2*%
%TO.N,/VCC*%
X138256500Y-98463500D03*
%TD*%
D13*
%TO.P,C2,1*%
%TO.N,/Const_high*%
X139202000Y-101815000D03*
%TO.P,C2,2*%
%TO.N,/GND*%
X139207000Y-103637000D03*
%TD*%
%TO.P,C3,1*%
%TO.N,/VCC*%
X136677000Y-101852000D03*
%TO.P,C3,2*%
%TO.N,/GND*%
X136682000Y-103674000D03*
%TD*%
%TO.P,R2,1*%
%TO.N,/Const_high*%
X134126500Y-101915000D03*
%TO.P,R2,2*%
%TO.N,/VCC*%
X134131500Y-103737000D03*
%TD*%
%TO.P,C1,1*%
%TO.N,/VCC_Internal*%
X139276000Y-106530000D03*
%TO.P,C1,2*%
%TO.N,/GND*%
X139281000Y-108352000D03*
%TD*%
%TO.P,R1,1*%
%TO.N,/Switch*%
X133999500Y-106575000D03*
%TO.P,R1,2*%
%TO.N,/VCC*%
X134004500Y-108397000D03*
%TD*%
%TO.P,C8,1*%
%TO.N,/VCC*%
X164376000Y-88007000D03*
%TO.P,C8,2*%
%TO.N,/GND*%
X164381000Y-89829000D03*
%TD*%
D15*
%TO.P,Y1,1,1*%
%TO.N,/40MHz.Pin1*%
X168694000Y-96045000D03*
D16*
%TO.P,Y1,2,2*%
%TO.N,/GND*%
X171271000Y-96048000D03*
%TO.P,Y1,3,3*%
%TO.N,/40MHz.Pin3*%
X173853400Y-96048000D03*
%TD*%
D14*
%TO.P,C9,1*%
%TO.N,/GND*%
X142067500Y-59084500D03*
%TO.P,C9,2*%
%TO.N,/USB.VBUS*%
X142064500Y-62419500D03*
%TD*%
%TO.P,D1,1,K*%
%TO.N,/VCC*%
X136684500Y-109954500D03*
%TO.P,D1,2,A*%
%TO.N,/VCC_Internal*%
X136687500Y-106619500D03*
%TD*%
D17*
%TO.P,U3,100,TCK\u002C_I/O*%
%TO.N,unconnected-(U3-Pad100)*%
X145582000Y-112599000D03*
%TO.P,U3,99,I/O*%
%TO.N,/AD6*%
X145582000Y-112099000D03*
%TO.P,U3,98,I/O*%
%TO.N,/AD5*%
X145582000Y-111599000D03*
%TO.P,U3,97,I/O*%
%TO.N,/AD4*%
X145582000Y-111099000D03*
%TO.P,U3,96,I/O*%
%TO.N,/AD3*%
X145582000Y-110599000D03*
%TO.P,U3,95,I/O*%
%TO.N,/AD2*%
X145582000Y-110099000D03*
%TO.P,U3,94,I/O*%
%TO.N,/AD1*%
X145582000Y-109599000D03*
%TO.P,U3,93,I/O*%
%TO.N,/AD0*%
X145582000Y-109099000D03*
%TO.P,U3,92,PRA\u002C_I/O*%
%TO.N,unconnected-(U3-Pad92)*%
X145582000Y-108599000D03*
%TO.P,U3,91,GND*%
%TO.N,/GND*%
X145582000Y-108099000D03*
%TO.P,U3,90,VCC*%
%TO.N,/VCC_Internal*%
X145582000Y-107599000D03*
%TO.P,U3,89,N/C*%
%TO.N,unconnected-(U3-Pad89)*%
X145582000Y-107099000D03*
%TO.P,U3,88,CLKB*%
%TO.N,/Const_high*%
X145582000Y-106599000D03*
%TO.P,U3,87,CLKA*%
%TO.N,/CS.Rom.Sys*%
X145582000Y-106099000D03*
%TO.P,U3,86,I/O*%
%TO.N,/Rd_Sys*%
X145582000Y-105599000D03*
%TO.P,U3,85,I/O*%
%TO.N,/Write*%
X145582000Y-105099000D03*
%TO.P,U3,84,I/O*%
%TO.N,unconnected-(U3-Pad84)*%
X145582000Y-104599000D03*
%TO.P,U3,83,I/O*%
%TO.N,/Button*%
X145582000Y-104099000D03*
%TO.P,U3,82,VCC*%
%TO.N,/VCC*%
X145582000Y-103599000D03*
%TO.P,U3,81,I/O*%
%TO.N,/SST.A1*%
X145582000Y-103099000D03*
%TO.P,U3,80,I/O*%
%TO.N,/SST.A2*%
X145582000Y-102599000D03*
%TO.P,U3,79,I/O*%
%TO.N,/SST.A3*%
X145582000Y-102099000D03*
%TO.P,U3,78,I/O*%
%TO.N,/SST.A4*%
X145582000Y-101599000D03*
%TO.P,U3,77,I/O*%
%TO.N,/SST.A5*%
X145582000Y-101099000D03*
%TO.P,U3,76,I/O*%
%TO.N,/SST.A6*%
X145582000Y-100599000D03*
D18*
%TO.P,U3,75,I/O*%
%TO.N,/SST.A7*%
X147262000Y-98919000D03*
%TO.P,U3,74,I/O*%
%TO.N,/SST.WE*%
X147762000Y-98919000D03*
%TO.P,U3,73,I/O*%
%TO.N,/SST.A8*%
X148262000Y-98919000D03*
%TO.P,U3,72,I/O*%
%TO.N,/SST.A9*%
X148762000Y-98919000D03*
%TO.P,U3,71,I/O*%
%TO.N,/SST.A10*%
X149262000Y-98919000D03*
%TO.P,U3,70,I/O*%
%TO.N,/SST.A11*%
X149762000Y-98919000D03*
%TO.P,U3,69,GND*%
%TO.N,/GND*%
X150262000Y-98919000D03*
%TO.P,U3,68,GND*%
X150762000Y-98919000D03*
%TO.P,U3,67,VCC*%
%TO.N,/VCC_Internal*%
X151262000Y-98919000D03*
%TO.P,U3,66,I/O*%
%TO.N,/SST.A12*%
X151762000Y-98919000D03*
%TO.P,U3,65,I/O*%
%TO.N,/SST.A13*%
X152262000Y-98919000D03*
%TO.P,U3,64,I/O*%
%TO.N,/SST.A14*%
X152762000Y-98919000D03*
%TO.P,U3,63,I/O*%
%TO.N,/SST.A15*%
X153262000Y-98919000D03*
%TO.P,U3,62,I/O*%
%TO.N,/SST.A16*%
X153762000Y-98919000D03*
%TO.P,U3,61,I/O*%
%TO.N,/SST.A17*%
X154262000Y-98919000D03*
%TO.P,U3,60,I/O*%
%TO.N,/SST.A18*%
X154762000Y-98919000D03*
%TO.P,U3,59,I/O*%
%TO.N,/SST.OE*%
X155262000Y-98919000D03*
%TO.P,U3,58,VCC*%
%TO.N,/VCC*%
X155762000Y-98919000D03*
%TO.P,U3,57,VCC*%
%TO.N,/VCC_Internal*%
X156262000Y-98919000D03*
%TO.P,U3,56,I/O*%
%TO.N,/SST.CE*%
X156762000Y-98919000D03*
%TO.P,U3,55,I/O*%
%TO.N,/SST.A0*%
X157262000Y-98919000D03*
%TO.P,U3,54,I/O*%
%TO.N,/CS.Rom.Game*%
X157762000Y-98919000D03*
%TO.P,U3,53,I/O*%
%TO.N,/Rd_Game*%
X158262000Y-98919000D03*
%TO.P,U3,52,I/O*%
%TO.N,unconnected-(U3-Pad52)*%
X158762000Y-98919000D03*
%TO.P,U3,51,GND*%
%TO.N,/GND*%
X159262000Y-98919000D03*
D17*
%TO.P,U3,50,I/O*%
%TO.N,/Cy.P1-0*%
X160942000Y-100599000D03*
%TO.P,U3,49,TDI\u002C_I/O*%
%TO.N,unconnected-(U3-Pad49)*%
X160942000Y-101099000D03*
%TO.P,U3,48,I/O*%
%TO.N,/Cy.P1-1*%
X160942000Y-101599000D03*
%TO.P,U3,47,I/O*%
%TO.N,/Cy.P0-7*%
X160942000Y-102099000D03*
%TO.P,U3,46,I/O*%
%TO.N,/Cy.P0-6*%
X160942000Y-102599000D03*
%TO.P,U3,45,I/O*%
%TO.N,/Cy.P0-5*%
X160942000Y-103099000D03*
%TO.P,U3,44,VCC*%
%TO.N,/VCC*%
X160942000Y-103599000D03*
%TO.P,U3,43,I/O*%
%TO.N,/Cy.P0-4*%
X160942000Y-104099000D03*
%TO.P,U3,42,I/O*%
%TO.N,/Cy.P0-0*%
X160942000Y-104599000D03*
%TO.P,U3,41,I/O*%
%TO.N,/40MHz.Pin3*%
X160942000Y-105099000D03*
%TO.P,U3,40,I/O*%
%TO.N,/40MHz.Pin1*%
X160942000Y-105599000D03*
%TO.P,U3,39,HCLK*%
%TO.N,/Loop*%
X160942000Y-106099000D03*
%TO.P,U3,38,I/O*%
X160942000Y-106599000D03*
%TO.P,U3,37,N/C*%
%TO.N,unconnected-(U3-Pad37)*%
X160942000Y-107099000D03*
%TO.P,U3,36,GND*%
%TO.N,/GND*%
X160942000Y-107599000D03*
%TO.P,U3,35,I/O*%
%TO.N,/VCC_Internal*%
X160942000Y-108099000D03*
%TO.P,U3,34,PRB\u002C_I/O*%
%TO.N,unconnected-(U3-Pad34)*%
X160942000Y-108599000D03*
%TO.P,U3,33,I/O*%
%TO.N,/Cy.P0-1*%
X160942000Y-109099000D03*
%TO.P,U3,32,I/O*%
%TO.N,/Cy.P0-2*%
X160942000Y-109599000D03*
%TO.P,U3,31,I/O*%
%TO.N,/Cy.P0-3*%
X160942000Y-110099000D03*
%TO.P,U3,30,I/O*%
%TO.N,/Cy.P1-3*%
X160942000Y-110599000D03*
%TO.P,U3,29,I/O*%
%TO.N,/Cy.P1-2*%
X160942000Y-111099000D03*
%TO.P,U3,28,I/O*%
%TO.N,/Switch*%
X160942000Y-111599000D03*
%TO.P,U3,27,I/O*%
%TO.N,unconnected-(U3-Pad27)*%
X160942000Y-112099000D03*
%TO.P,U3,26,I/O*%
%TO.N,unconnected-(U3-Pad26)*%
X160942000Y-112599000D03*
D18*
%TO.P,U3,25,I/O*%
%TO.N,/VCC*%
X159262000Y-114279000D03*
%TO.P,U3,24,I/O*%
%TO.N,/A23*%
X158762000Y-114279000D03*
%TO.P,U3,23,I/O*%
%TO.N,/A22*%
X158262000Y-114279000D03*
%TO.P,U3,22,I/O*%
%TO.N,/A21*%
X157762000Y-114279000D03*
%TO.P,U3,21,I/O*%
%TO.N,/A20*%
X157262000Y-114279000D03*
%TO.P,U3,20,VCC*%
%TO.N,/VCC*%
X156762000Y-114279000D03*
%TO.P,U3,19,I/O*%
%TO.N,/A19*%
X156262000Y-114279000D03*
%TO.P,U3,18,I/O*%
%TO.N,/A18*%
X155762000Y-114279000D03*
%TO.P,U3,17,I/O*%
%TO.N,/A17*%
X155262000Y-114279000D03*
%TO.P,U3,16,TRST\u002C_I/O*%
%TO.N,/GND*%
X154762000Y-114279000D03*
%TO.P,U3,15,I/O*%
%TO.N,/A16*%
X154262000Y-114279000D03*
%TO.P,U3,14,I/O*%
%TO.N,/AD15*%
X153762000Y-114279000D03*
%TO.P,U3,13,I/O*%
%TO.N,/AD14*%
X153262000Y-114279000D03*
%TO.P,U3,12,I/O*%
%TO.N,/AD13*%
X152762000Y-114279000D03*
%TO.P,U3,11,I/O*%
%TO.N,/AD12*%
X152262000Y-114279000D03*
%TO.P,U3,10,I/O*%
%TO.N,/AD11*%
X151762000Y-114279000D03*
%TO.P,U3,9,GND*%
%TO.N,/GND*%
X151262000Y-114279000D03*
%TO.P,U3,8,VCC*%
%TO.N,/VCC*%
X150762000Y-114279000D03*
%TO.P,U3,7,TMS*%
%TO.N,unconnected-(U3-Pad7)*%
X150262000Y-114279000D03*
%TO.P,U3,6,I/O*%
%TO.N,/AD10*%
X149762000Y-114279000D03*
%TO.P,U3,5,I/O*%
%TO.N,/AD9*%
X149262000Y-114279000D03*
%TO.P,U3,4,I/O*%
%TO.N,/AD8*%
X148762000Y-114279000D03*
%TO.P,U3,3,I/O*%
%TO.N,/AD7*%
X148262000Y-114279000D03*
%TO.P,U3,2,TDI\u002C_I/O*%
%TO.N,unconnected-(U3-Pad2)*%
X147762000Y-114279000D03*
%TO.P,U3,1,GND*%
%TO.N,/GND*%
X147262000Y-114279000D03*
%TD*%
D19*
%TO.P,J2,1,A*%
%TO.N,/GND*%
X168532000Y-64257000D03*
%TO.P,J2,2,B*%
%TO.N,/Switch*%
X171505000Y-64260000D03*
%TO.P,J2,3,C*%
X174408000Y-64259000D03*
%TO.P,J2,4,Case_GND*%
%TO.N,/GND*%
X165075000Y-64259000D03*
%TO.P,J2,5,Case_GND*%
X177857000Y-64261000D03*
%TD*%
D20*
%TO.P,U2,1,P0-0*%
%TO.N,/Cy.P0-0*%
X144764500Y-65242500D03*
%TO.P,U2,2,P0-1*%
%TO.N,/Cy.P0-1*%
X146029500Y-65247500D03*
%TO.P,U2,3,P0-2*%
%TO.N,/Cy.P0-2*%
X147304500Y-65247500D03*
%TO.P,U2,4,P0-3*%
%TO.N,/Cy.P0-3*%
X148574500Y-65245500D03*
%TO.P,U2,5,P1-0*%
%TO.N,/Cy.P1-0*%
X149842500Y-65245500D03*
%TO.P,U2,6,P1-2*%
%TO.N,/Cy.P1-2*%
X151118500Y-65245500D03*
%TO.P,U2,7,P1-4*%
%TO.N,unconnected-(U2-Pad7)*%
X152387500Y-65243500D03*
%TO.P,U2,8,P1-6*%
%TO.N,unconnected-(U2-Pad8)*%
X153659500Y-65243500D03*
%TO.P,U2,9,VSS*%
%TO.N,/GND*%
X154924500Y-65244500D03*
%TO.P,U2,10,VPP*%
%TO.N,unconnected-(U2-Pad10)*%
X156196500Y-65244500D03*
%TO.P,U2,11,VREG/P2-0*%
%TO.N,/Cy.VREG*%
X157464500Y-65244500D03*
%TO.P,U2,12,XTALIN/P2-1*%
%TO.N,unconnected-(U2-Pad12)*%
X158735500Y-65244500D03*
%TO.P,U2,13,XTALOUT*%
%TO.N,unconnected-(U2-Pad13)*%
X158734500Y-55592500D03*
%TO.P,U2,14,VCC*%
%TO.N,/USB.VBUS*%
X157466500Y-55592500D03*
%TO.P,U2,15,D-/SDATA*%
%TO.N,/USB.D-*%
X156198500Y-55593500D03*
%TO.P,U2,16,D+/SCLK*%
%TO.N,/USB.D+*%
X154928500Y-55593500D03*
%TO.P,U2,17,P1-7*%
%TO.N,unconnected-(U2-Pad17)*%
X153654500Y-55591500D03*
%TO.P,U2,18,P1-5*%
%TO.N,unconnected-(U2-Pad18)*%
X152385500Y-55594500D03*
%TO.P,U2,19,P1-3*%
%TO.N,/Cy.P1-3*%
X151114500Y-55591500D03*
%TO.P,U2,20,P1-1*%
%TO.N,/Cy.P1-1*%
X149845500Y-55593500D03*
%TO.P,U2,21,P0-7*%
%TO.N,/Cy.P0-7*%
X148575500Y-55590500D03*
%TO.P,U2,22,P0-6*%
%TO.N,/Cy.P0-6*%
X147305500Y-55595500D03*
%TO.P,U2,23,P0-5*%
%TO.N,/Cy.P0-5*%
X146035500Y-55591500D03*
%TO.P,U2,24,P0-4*%
%TO.N,/Cy.P0-4*%
X144767500Y-55594500D03*
%TD*%
D21*
%TO.P,SW1,1,1*%
%TO.N,/GND*%
X126373000Y-57885500D03*
%TO.P,SW1,2,2*%
%TO.N,/Button*%
X127646000Y-55742500D03*
%TO.P,SW1,3,3*%
%TO.N,/GND*%
X132097000Y-55702500D03*
%TO.P,SW1,4,4*%
X133403000Y-57885500D03*
%TD*%
D22*
%TO.P,J1,1,VBUS*%
%TO.N,/USB.VBUS*%
X132055000Y-67964000D03*
D23*
%TO.P,J1,2,D-*%
%TO.N,/USB.D-*%
X132055000Y-65464000D03*
%TO.P,J1,3,D+*%
%TO.N,/USB.D+*%
X130055000Y-65464000D03*
%TO.P,J1,4,GND*%
%TO.N,/GND*%
X130055000Y-67964000D03*
D24*
%TO.P,J1,5,Shield*%
X127345000Y-72734000D03*
X127345000Y-60694000D03*
%TD*%
D25*
%TO.P,J4,1,+3.3V/+5V*%
%TO.N,/VCC*%
X174672000Y-74406000D03*
%TO.P,J4,2,Clock*%
%TO.N,/Clk*%
X173125500Y-75914000D03*
%TO.P,J4,3,/WR*%
%TO.N,/Write*%
X171657100Y-74405900D03*
%TO.P,J4,4,/RD*%
%TO.N,/Rd_Game*%
X170109000Y-75912000D03*
%TO.P,J4,5,/CS.ROM*%
%TO.N,/CS.Rom.Game*%
X168639000Y-74406000D03*
%TO.P,J4,6,AD0*%
%TO.N,/AD0*%
X167093000Y-75914000D03*
%TO.P,J4,7,AD1*%
%TO.N,/AD1*%
X165624600Y-74405900D03*
%TO.P,J4,8,AD2*%
%TO.N,/AD2*%
X164075000Y-75913000D03*
%TO.P,J4,9,AD3*%
%TO.N,/AD3*%
X162649000Y-74407000D03*
%TO.P,J4,10,AD4*%
%TO.N,/AD4*%
X161100200Y-75914000D03*
%TO.P,J4,11,AD5*%
%TO.N,/AD5*%
X159592100Y-74405900D03*
%TO.P,J4,12,AD6*%
%TO.N,/AD6*%
X158040000Y-75914000D03*
%TO.P,J4,13,AD7*%
%TO.N,/AD7*%
X156575800Y-74405900D03*
%TO.P,J4,14,AD8*%
%TO.N,/AD8*%
X155026000Y-75914000D03*
%TO.P,J4,15,AD9*%
%TO.N,/AD9*%
X153640000Y-74405000D03*
%TO.P,J4,16,AD10*%
%TO.N,/AD10*%
X152089000Y-75915000D03*
%TO.P,J4,17,AD11*%
%TO.N,/AD11*%
X150619000Y-74406000D03*
%TO.P,J4,18,AD12*%
%TO.N,/AD12*%
X149074000Y-75913000D03*
%TO.P,J4,19,AD13*%
%TO.N,/AD13*%
X147605000Y-74407000D03*
%TO.P,J4,20,AD14*%
%TO.N,/AD14*%
X146057000Y-75915000D03*
%TO.P,J4,21,AD15*%
%TO.N,/AD15*%
X144589000Y-74405000D03*
%TO.P,J4,22,A16*%
%TO.N,/A16*%
X143044000Y-75913000D03*
%TO.P,J4,23,A17*%
%TO.N,/A17*%
X141611000Y-74404000D03*
%TO.P,J4,24,A18*%
%TO.N,/A18*%
X140067000Y-75914000D03*
%TO.P,J4,25,A19*%
%TO.N,/A19*%
X138676000Y-74409000D03*
%TO.P,J4,26,A20*%
%TO.N,/A20*%
X137125000Y-75912000D03*
%TO.P,J4,27,A21*%
%TO.N,/A21*%
X135580000Y-74407000D03*
%TO.P,J4,28,A22*%
%TO.N,/A22*%
X134073000Y-75914000D03*
%TO.P,J4,29,A23*%
%TO.N,/A23*%
X132566000Y-74407000D03*
%TO.P,J4,30,/CS.SRAM*%
%TO.N,/CS.SRAM*%
X131059000Y-75922000D03*
%TO.P,J4,31,/REQ*%
%TO.N,/REQ*%
X129544000Y-74407000D03*
%TO.P,J4,32,GND*%
%TO.N,/GND*%
X128040500Y-75914000D03*
%TD*%
D26*
%TO.P,U1,1,A15*%
%TO.N,/SST.A15*%
X140372000Y-81173000D03*
%TO.P,U1,2,A14*%
%TO.N,/SST.A14*%
X140372000Y-81673000D03*
%TO.P,U1,3,A13*%
%TO.N,/SST.A13*%
X140372000Y-82173000D03*
%TO.P,U1,4,A12*%
%TO.N,/SST.A12*%
X140372000Y-82673000D03*
%TO.P,U1,5,A11*%
%TO.N,/SST.A11*%
X140372000Y-83173000D03*
%TO.P,U1,6,A10*%
%TO.N,/SST.A10*%
X140372000Y-83673000D03*
%TO.P,U1,7,A9*%
%TO.N,/SST.A9*%
X140372000Y-84173000D03*
%TO.P,U1,8,A8*%
%TO.N,/SST.A8*%
X140372000Y-84673000D03*
%TO.P,U1,9,NC_1*%
%TO.N,unconnected-(U1-Pad9)*%
X140372000Y-85173000D03*
%TO.P,U1,10,NC_2*%
%TO.N,unconnected-(U1-Pad10)*%
X140372000Y-85673000D03*
%TO.P,U1,11,WE#*%
%TO.N,/SST.WE*%
X140372000Y-86173000D03*
%TO.P,U1,12,NC_3*%
%TO.N,unconnected-(U1-Pad12)*%
X140372000Y-86673000D03*
%TO.P,U1,13,NC_4*%
%TO.N,unconnected-(U1-Pad13)*%
X140372000Y-87173000D03*
%TO.P,U1,14,NC_5*%
%TO.N,unconnected-(U1-Pad14)*%
X140372000Y-87673000D03*
%TO.P,U1,15,NC_6*%
%TO.N,unconnected-(U1-Pad15)*%
X140372000Y-88173000D03*
%TO.P,U1,16,A18*%
%TO.N,/SST.A18*%
X140372000Y-88673000D03*
%TO.P,U1,17,A17*%
%TO.N,/SST.A17*%
X140372000Y-89173000D03*
%TO.P,U1,18,A7*%
%TO.N,/SST.A7*%
X140372000Y-89673000D03*
%TO.P,U1,19,A6*%
%TO.N,/SST.A6*%
X140372000Y-90173000D03*
%TO.P,U1,20,A5*%
%TO.N,/SST.A5*%
X140372000Y-90673000D03*
%TO.P,U1,21,A4*%
%TO.N,/SST.A4*%
X140372000Y-91173000D03*
%TO.P,U1,22,A3*%
%TO.N,/SST.A3*%
X140372000Y-91673000D03*
%TO.P,U1,23,A2*%
%TO.N,/SST.A2*%
X140372000Y-92173000D03*
%TO.P,U1,24,A1*%
%TO.N,/SST.A1*%
X140372000Y-92673000D03*
%TO.P,U1,25,A0*%
%TO.N,/SST.A0*%
X160072000Y-92673000D03*
%TO.P,U1,26,CE#*%
%TO.N,/SST.CE*%
X160072000Y-92173000D03*
%TO.P,U1,27,VSS_1*%
%TO.N,/GND*%
X160072000Y-91673000D03*
%TO.P,U1,28,OE#*%
%TO.N,/SST.OE*%
X160072000Y-91173000D03*
%TO.P,U1,29,DQ0*%
%TO.N,/AD0*%
X160072000Y-90673000D03*
%TO.P,U1,30,DQ8*%
%TO.N,/AD8*%
X160072000Y-90173000D03*
%TO.P,U1,31,DQ1*%
%TO.N,/AD1*%
X160072000Y-89673000D03*
%TO.P,U1,32,DQ9*%
%TO.N,/AD9*%
X160072000Y-89173000D03*
%TO.P,U1,33,DQ2*%
%TO.N,/AD2*%
X160072000Y-88673000D03*
%TO.P,U1,34,DQ10*%
%TO.N,/AD10*%
X160072000Y-88173000D03*
%TO.P,U1,35,DQ3*%
%TO.N,/AD3*%
X160072000Y-87673000D03*
%TO.P,U1,36,DQ11*%
%TO.N,/AD11*%
X160072000Y-87173000D03*
%TO.P,U1,37,VDD*%
%TO.N,/VCC*%
X160072000Y-86673000D03*
%TO.P,U1,38,DQ4*%
%TO.N,/AD4*%
X160072000Y-86173000D03*
%TO.P,U1,39,DQ12*%
%TO.N,/AD12*%
X160072000Y-85673000D03*
%TO.P,U1,40,DQ5*%
%TO.N,/AD5*%
X160072000Y-85173000D03*
%TO.P,U1,41,DQ13*%
%TO.N,/AD13*%
X160072000Y-84673000D03*
%TO.P,U1,42,DQ6*%
%TO.N,/AD6*%
X160072000Y-84173000D03*
%TO.P,U1,43,DQ14*%
%TO.N,/AD14*%
X160072000Y-83673000D03*
%TO.P,U1,44,DQ7*%
%TO.N,/AD7*%
X160072000Y-83173000D03*
%TO.P,U1,45,DQ15*%
%TO.N,/AD15*%
X160072000Y-82673000D03*
%TO.P,U1,46,VSS_2*%
%TO.N,/GND*%
X160072000Y-82173000D03*
%TO.P,U1,47,NC_9*%
%TO.N,unconnected-(U1-Pad47)*%
X160072000Y-81673000D03*
%TO.P,U1,48,A16*%
%TO.N,/SST.A16*%
X160072000Y-81173000D03*
%TD*%
D27*
%TO.P,J3,1,+3.3V/+5V*%
%TO.N,/VCC*%
X127406000Y-124151000D03*
%TO.P,J3,2,Clock*%
%TO.N,/Clk*%
X128913000Y-124151000D03*
%TO.P,J3,3,/WR*%
%TO.N,/Write*%
X130408000Y-124151000D03*
%TO.P,J3,4,/RD*%
%TO.N,/Rd_Sys*%
X131915000Y-124151000D03*
%TO.P,J3,5,/CS.ROM*%
%TO.N,/CS.Rom.Sys*%
X133406000Y-124151000D03*
%TO.P,J3,6,AD0*%
%TO.N,/AD0*%
X134913000Y-124151000D03*
%TO.P,J3,7,AD1*%
%TO.N,/AD1*%
X136408000Y-124151000D03*
%TO.P,J3,8,AD2*%
%TO.N,/AD2*%
X137915000Y-124161000D03*
%TO.P,J3,9,AD3*%
%TO.N,/AD3*%
X139409000Y-124156000D03*
%TO.P,J3,10,AD4*%
%TO.N,/AD4*%
X140908000Y-124160000D03*
%TO.P,J3,11,AD5*%
%TO.N,/AD5*%
X142427000Y-124160000D03*
%TO.P,J3,12,AD6*%
%TO.N,/AD6*%
X143910000Y-124160000D03*
%TO.P,J3,13,AD7*%
%TO.N,/AD7*%
X145417000Y-124160000D03*
%TO.P,J3,14,AD8*%
%TO.N,/AD8*%
X146910000Y-124159000D03*
%TO.P,J3,15,AD9*%
%TO.N,/AD9*%
X148417000Y-124159000D03*
%TO.P,J3,16,AD10*%
%TO.N,/AD10*%
X149924000Y-124159000D03*
%TO.P,J3,17,AD11*%
%TO.N,/AD11*%
X151407000Y-124159000D03*
%TO.P,J3,18,AD12*%
%TO.N,/AD12*%
X152909000Y-124159000D03*
%TO.P,J3,19,AD13*%
%TO.N,/AD13*%
X154415000Y-124159000D03*
%TO.P,J3,20,AD14*%
%TO.N,/AD14*%
X155910000Y-124159000D03*
%TO.P,J3,21,AD15*%
%TO.N,/AD15*%
X157417000Y-124159000D03*
%TO.P,J3,22,A16*%
%TO.N,/A16*%
X158912000Y-124159000D03*
%TO.P,J3,23,A17*%
%TO.N,/A17*%
X160416000Y-124164000D03*
%TO.P,J3,24,A18*%
%TO.N,/A18*%
X161911000Y-124152000D03*
%TO.P,J3,25,A19*%
%TO.N,/A19*%
X163406000Y-124152000D03*
%TO.P,J3,26,A20*%
%TO.N,/A20*%
X164913000Y-124152000D03*
%TO.P,J3,27,A21*%
%TO.N,/A21*%
X166413000Y-124151000D03*
%TO.P,J3,28,A22*%
%TO.N,/A22*%
X167908000Y-124151000D03*
%TO.P,J3,29,A23*%
%TO.N,/A23*%
X169427000Y-124151000D03*
%TO.P,J3,30,/CS.SRAM*%
%TO.N,/CS.SRAM*%
X170916000Y-124158000D03*
%TO.P,J3,31,/REQ*%
%TO.N,/REQ*%
X172411000Y-124158000D03*
D28*
%TO.P,J3,32,GND*%
%TO.N,/GND*%
X174109000Y-124158000D03*
%TD*%
D29*
%TO.P,REF1,1*%
%TO.N,N/C*%
X128945000Y-112498000D03*
%TD*%
%TO.P,REF2,1*%
%TO.N,N/C*%
X172809000Y-112540000D03*
%TD*%
D30*
%TO.N,/Cy.P0-4*%
X176534500Y-90640400D03*
X163051200Y-104333400D03*
%TO.N,/Cy.P0-5*%
X127743800Y-69200500D03*
X149883100Y-105090600D03*
%TO.N,/Cy.P0-6*%
X151220300Y-102837200D03*
X128444000Y-68477800D03*
%TO.N,/Cy.P0-7*%
X178145200Y-88366000D03*
X162347300Y-102104300D03*
%TO.N,/Cy.P1-1*%
X149845500Y-58223700D03*
X162379000Y-101082500D03*
%TO.N,/Cy.P1-3*%
X151114500Y-57495600D03*
X175361900Y-87269900D03*
%TO.N,/Cy.P1-0*%
X155579800Y-69578600D03*
X162364300Y-100066000D03*
%TO.N,/Cy.P0-3*%
X162324700Y-109885000D03*
X177211500Y-86410700D03*
%TO.N,/Cy.P0-2*%
X151052200Y-70474200D03*
X159466800Y-107073100D03*
%TO.N,/Cy.P0-0*%
X154318900Y-69572300D03*
X158425300Y-108451200D03*
%TO.N,/CS.Rom.Game*%
X158363300Y-95765700D03*
%TO.N,/Rd_Game*%
X159469100Y-95248700D03*
%TO.N,/REQ*%
X173003500Y-66025100D03*
%TO.N,/CS.SRAM*%
X174231200Y-68665400D03*
%TO.N,/A23*%
X168975000Y-119508900D03*
X123905700Y-93004600D03*
X124288700Y-79877200D03*
%TO.N,/A22*%
X167908000Y-119613200D03*
X159042500Y-112494000D03*
X133294000Y-81507900D03*
%TO.N,/A21*%
X165071600Y-118619400D03*
X160185900Y-116166900D03*
X128699200Y-91330200D03*
X128699200Y-81143500D03*
%TO.N,/A20*%
X164913000Y-119629200D03*
X157594300Y-112891200D03*
X132060600Y-69863900D03*
X127913700Y-78772800D03*
X132280700Y-94902200D03*
%TO.N,/A19*%
X162824500Y-113793700D03*
X172943900Y-105244100D03*
X178972800Y-69377300D03*
%TO.N,/A18*%
X150883300Y-105162900D03*
X136378400Y-80567800D03*
%TO.N,/A17*%
X134237200Y-82451000D03*
X160416000Y-119229100D03*
%TO.N,/A16*%
X158631100Y-119226900D03*
X129724000Y-91009700D03*
X127196700Y-79480500D03*
%TO.N,/CS.Rom.Sys*%
X134877000Y-110877600D03*
X141298300Y-102263000D03*
%TO.N,/Rd_Sys*%
X135171400Y-115844900D03*
X146968700Y-106685800D03*
%TO.N,/Write*%
X134465000Y-112008900D03*
X146971200Y-105132000D03*
%TO.N,/Clk*%
X133366400Y-116500300D03*
%TO.N,/40MHz.Pin3*%
X162760000Y-105964300D03*
%TO.N,/40MHz.Pin1*%
X163489800Y-106664400D03*
%TO.N,/Const_high*%
X137966400Y-102571300D03*
X134793900Y-100696300D03*
%TO.N,/VCC_Internal*%
X166138000Y-109223500D03*
X164772600Y-112390100D03*
X165795700Y-115337500D03*
X128398200Y-117531500D03*
X133630000Y-98549300D03*
X141606600Y-104691600D03*
X149986000Y-103401500D03*
%TO.N,/SST.A16*%
X152238200Y-80071700D03*
X153308700Y-82211300D03*
%TO.N,/AD15*%
X149687900Y-107999800D03*
%TO.N,/AD7*%
X148659200Y-116293500D03*
%TO.N,/AD14*%
X153707300Y-117161400D03*
X173169600Y-94375100D03*
X155699400Y-83742700D03*
%TO.N,/AD6*%
X144721400Y-113357800D03*
%TO.N,/AD13*%
X152790400Y-115816400D03*
X172196700Y-90865800D03*
X147824500Y-76840700D03*
X155231700Y-82795700D03*
%TO.N,/AD5*%
X143455900Y-113753100D03*
%TO.N,/AD12*%
X152941500Y-112538300D03*
X152909000Y-118663100D03*
X154848500Y-81779500D03*
%TO.N,/AD4*%
X142336100Y-114193400D03*
%TO.N,/VCC*%
X147897300Y-106200000D03*
X147672500Y-108386100D03*
X147936000Y-101670700D03*
X152186000Y-101398300D03*
X166752800Y-98740600D03*
X127852000Y-119364900D03*
X161349900Y-114113700D03*
X166584600Y-100440900D03*
X168538700Y-104810000D03*
%TO.N,/AD11*%
X156363200Y-88577400D03*
X151750600Y-116978100D03*
%TO.N,/AD3*%
X161326300Y-87496200D03*
X141218000Y-114593600D03*
%TO.N,/AD10*%
X157116300Y-87898700D03*
X150557600Y-116736800D03*
%TO.N,/AD2*%
X161334600Y-88496400D03*
X139887100Y-114890900D03*
%TO.N,/AD9*%
X149563400Y-117565700D03*
X157363400Y-88898900D03*
%TO.N,/AD1*%
X161342800Y-89621300D03*
X138377900Y-116243000D03*
%TO.N,/AD8*%
X157228500Y-90340900D03*
X147766400Y-110606600D03*
%TO.N,/AD0*%
X161886600Y-90542800D03*
X136916600Y-116295300D03*
%TO.N,/SST.A1*%
X141322100Y-95589000D03*
X146964900Y-102135700D03*
%TO.N,/SST.A5*%
X139113000Y-90673100D03*
X144730900Y-95890400D03*
%TO.N,/SST.A17*%
X139117900Y-82334400D03*
X154008800Y-88545800D03*
%TO.N,/SST.A18*%
X146692100Y-94620800D03*
X152152500Y-100310500D03*
%TO.N,/Button*%
X128662300Y-58852200D03*
X143555100Y-103450500D03*
X135606400Y-55522000D03*
%TO.N,/Switch*%
X129206000Y-78527800D03*
X135429800Y-98165500D03*
X135429100Y-103325300D03*
X159557900Y-111488700D03*
%TO.N,/GND*%
X175904200Y-100945200D03*
X178774900Y-90319200D03*
X138259500Y-97107800D03*
X140484000Y-103828900D03*
%TD*%
D31*
%TO.N,/VCC_Internal*%
X156262000Y-99902000D02*
X156989100Y-100629100D01*
X156262000Y-98919000D02*
X156262000Y-99902000D01*
%TO.N,/Loop*%
X160942000Y-106599000D02*
X160942000Y-106099000D01*
D32*
%TO.N,/Cy.P0-4*%
X176897600Y-90640400D02*
X176534500Y-90640400D01*
X179155100Y-88382900D02*
X176897600Y-90640400D01*
X179155100Y-71986600D02*
X179155100Y-88382900D01*
X173893800Y-66725300D02*
X179155100Y-71986600D01*
X172055400Y-66725300D02*
X173893800Y-66725300D01*
X170017600Y-64687500D02*
X172055400Y-66725300D01*
X170017600Y-63877200D02*
X170017600Y-64687500D01*
X159717000Y-53576600D02*
X170017600Y-63877200D01*
X146373500Y-53576600D02*
X159717000Y-53576600D01*
X144767500Y-55182600D02*
X146373500Y-53576600D01*
X144767500Y-55594500D02*
X144767500Y-55182600D01*
X162816800Y-104099000D02*
X163051200Y-104333400D01*
X160942000Y-104099000D02*
X162816800Y-104099000D01*
%TO.N,/Cy.P0-5*%
X127743800Y-65503500D02*
X127743800Y-69200500D01*
X133112700Y-60134600D02*
X127743800Y-65503500D01*
X142976200Y-60134600D02*
X133112700Y-60134600D01*
X146035500Y-57075300D02*
X142976200Y-60134600D01*
X146035500Y-55591500D02*
X146035500Y-57075300D01*
X150510900Y-104462800D02*
X149883100Y-105090600D01*
X156546400Y-104462800D02*
X150510900Y-104462800D01*
X157969800Y-103039400D02*
X156546400Y-104462800D01*
X160882400Y-103039400D02*
X157969800Y-103039400D01*
X160942000Y-103099000D02*
X160882400Y-103039400D01*
%TO.N,/Cy.P0-6*%
X147305500Y-55595500D02*
X147305500Y-56770600D01*
X143541400Y-60534700D02*
X147305500Y-56770600D01*
X133333000Y-60534700D02*
X143541400Y-60534700D01*
X128444000Y-65423700D02*
X133333000Y-60534700D01*
X128444000Y-68477800D02*
X128444000Y-65423700D01*
X157551600Y-102837200D02*
X151220300Y-102837200D01*
X157789800Y-102599000D02*
X157551600Y-102837200D01*
X160942000Y-102599000D02*
X157789800Y-102599000D01*
%TO.N,/Cy.P0-7*%
X148575500Y-55590500D02*
X148575500Y-54415400D01*
X162342000Y-102099000D02*
X162347300Y-102104300D01*
X160942000Y-102099000D02*
X162342000Y-102099000D01*
X178731500Y-87779700D02*
X178145200Y-88366000D01*
X178731500Y-72165800D02*
X178731500Y-87779700D01*
X174309200Y-67743500D02*
X178731500Y-72165800D01*
X170104500Y-67743500D02*
X174309200Y-67743500D01*
X167202700Y-64841700D02*
X170104500Y-67743500D01*
X167202700Y-61848400D02*
X167202700Y-64841700D01*
X159338100Y-53983800D02*
X167202700Y-61848400D01*
X149007100Y-53983800D02*
X159338100Y-53983800D01*
X148575500Y-54415400D02*
X149007100Y-53983800D01*
%TO.N,/Cy.P1-1*%
X161862500Y-101599000D02*
X160942000Y-101599000D01*
X162379000Y-101082500D02*
X161862500Y-101599000D01*
X149845500Y-55593500D02*
X149845500Y-58223700D01*
%TO.N,/Cy.P1-3*%
X151114500Y-55591500D02*
X151114500Y-56766600D01*
X151114500Y-56766600D02*
X151114500Y-57495600D01*
X166372000Y-110599000D02*
X160942000Y-110599000D01*
X171243300Y-105727700D02*
X166372000Y-110599000D01*
X171243300Y-101897000D02*
X171243300Y-105727700D01*
X175361900Y-97778400D02*
X171243300Y-101897000D01*
X175361900Y-91589400D02*
X175361900Y-97778400D01*
X175034200Y-91261700D02*
X175361900Y-91589400D01*
X175034200Y-90019100D02*
X175034200Y-91261700D01*
X175361900Y-89691400D02*
X175034200Y-90019100D01*
X175361900Y-87269900D02*
X175361900Y-89691400D01*
%TO.N,/USB.D+*%
X154928500Y-55593500D02*
X154928500Y-56768600D01*
X150762300Y-60934800D02*
X154928500Y-56768600D01*
X134584200Y-60934800D02*
X150762300Y-60934800D01*
X130055000Y-65464000D02*
X134584200Y-60934800D01*
%TO.N,/Cy.P1-2*%
X166439000Y-111099000D02*
X160942000Y-111099000D01*
X171843600Y-105694400D02*
X166439000Y-111099000D01*
X171843600Y-101899900D02*
X171843600Y-105694400D01*
X175812600Y-97930900D02*
X171843600Y-101899900D01*
X175812600Y-91474300D02*
X175812600Y-97930900D01*
X175434300Y-91096000D02*
X175812600Y-91474300D01*
X175434300Y-90184800D02*
X175434300Y-91096000D01*
X175812600Y-89806500D02*
X175434300Y-90184800D01*
X175812600Y-88799600D02*
X175812600Y-89806500D01*
X177923200Y-86689000D02*
X175812600Y-88799600D01*
X177923200Y-73481000D02*
X177923200Y-86689000D01*
X175479600Y-71037400D02*
X177923200Y-73481000D01*
X154218400Y-71037400D02*
X175479600Y-71037400D01*
X151118500Y-67937500D02*
X154218400Y-71037400D01*
X151118500Y-65245500D02*
X151118500Y-67937500D01*
%TO.N,/Cy.P1-0*%
X149842500Y-65245500D02*
X149842500Y-64070400D01*
X154851900Y-70306500D02*
X155579800Y-69578600D01*
X154053300Y-70306500D02*
X154851900Y-70306500D01*
X151753000Y-68006200D02*
X154053300Y-70306500D01*
X151753000Y-64238100D02*
X151753000Y-68006200D01*
X151585300Y-64070400D02*
X151753000Y-64238100D01*
X149842500Y-64070400D02*
X151585300Y-64070400D01*
X161475000Y-100066000D02*
X160942000Y-100599000D01*
X162364300Y-100066000D02*
X161475000Y-100066000D01*
%TO.N,/Cy.P0-3*%
X148574500Y-65245500D02*
X148574500Y-66420600D01*
X162119700Y-110090000D02*
X162324700Y-109885000D01*
X161593000Y-110090000D02*
X162119700Y-110090000D01*
X161593000Y-110090000D02*
X161573000Y-110110000D01*
X161573000Y-110110000D02*
X161553000Y-110130000D01*
X160953000Y-110110000D02*
X160942000Y-110099000D01*
X161573000Y-110110000D02*
X160953000Y-110110000D01*
X177211500Y-73412100D02*
X177211500Y-86410700D01*
X175536900Y-71737500D02*
X177211500Y-73412100D01*
X153891400Y-71737500D02*
X175536900Y-71737500D01*
X148574500Y-66420600D02*
X153891400Y-71737500D01*
%TO.N,/Cy.P0-2*%
X147304500Y-65247500D02*
X147304500Y-66422600D01*
X151052200Y-70170300D02*
X151052200Y-70474200D01*
X147304500Y-66422600D02*
X151052200Y-70170300D01*
X159466800Y-108954100D02*
X159466800Y-107073100D01*
X160111700Y-109599000D02*
X159466800Y-108954100D01*
X160942000Y-109599000D02*
X160111700Y-109599000D01*
%TO.N,/Cy.P0-1*%
X146029500Y-65247500D02*
X146029500Y-66422600D01*
X163100800Y-109099000D02*
X160942000Y-109099000D01*
X163974600Y-109972800D02*
X163100800Y-109099000D01*
X166394700Y-109972800D02*
X163974600Y-109972800D01*
X170843200Y-105524300D02*
X166394700Y-109972800D01*
X170843200Y-101731300D02*
X170843200Y-105524300D01*
X174909500Y-97665000D02*
X170843200Y-101731300D01*
X174909500Y-92569900D02*
X174909500Y-97665000D01*
X174634100Y-92294500D02*
X174909500Y-92569900D01*
X174634100Y-79523700D02*
X174634100Y-92294500D01*
X176722900Y-77434900D02*
X174634100Y-79523700D01*
X176722900Y-73552000D02*
X176722900Y-77434900D01*
X175545500Y-72374600D02*
X176722900Y-73552000D01*
X151908400Y-72374600D02*
X175545500Y-72374600D01*
X146029500Y-66495700D02*
X151908400Y-72374600D01*
X146029500Y-66422600D02*
X146029500Y-66495700D01*
%TO.N,/Cy.P0-0*%
X144764500Y-65242500D02*
X144764500Y-64067400D01*
X158425300Y-106243300D02*
X158425300Y-108451200D01*
X160069600Y-104599000D02*
X158425300Y-106243300D01*
X160942000Y-104599000D02*
X160069600Y-104599000D01*
X152987700Y-68241100D02*
X154318900Y-69572300D01*
X152987700Y-64224400D02*
X152987700Y-68241100D01*
X152400200Y-63636900D02*
X152987700Y-64224400D01*
X145195000Y-63636900D02*
X152400200Y-63636900D01*
X144764500Y-64067400D02*
X145195000Y-63636900D01*
%TO.N,/CS.Rom.Game*%
X157762000Y-96367000D02*
X158363300Y-95765700D01*
X157762000Y-98919000D02*
X157762000Y-96367000D01*
%TO.N,/Rd_Game*%
X159469100Y-96207000D02*
X159469100Y-95248700D01*
X158262000Y-97414100D02*
X159469100Y-96207000D01*
X158262000Y-98919000D02*
X158262000Y-97414100D01*
%TO.N,/REQ*%
X173003500Y-63800600D02*
X173003500Y-66025100D01*
X173894400Y-62909700D02*
X173003500Y-63800600D01*
X178360800Y-62909700D02*
X173894400Y-62909700D01*
X180664300Y-65213200D02*
X178360800Y-62909700D01*
X180664300Y-90366300D02*
X180664300Y-65213200D01*
X177129800Y-93900800D02*
X180664300Y-90366300D01*
X177129800Y-98729600D02*
X177129800Y-93900800D01*
X175204100Y-100655300D02*
X177129800Y-98729600D01*
X175204100Y-101235100D02*
X175204100Y-100655300D01*
X175534500Y-101565500D02*
X175204100Y-101235100D01*
X175534500Y-114118000D02*
X175534500Y-101565500D01*
X172411000Y-117241500D02*
X175534500Y-114118000D01*
X172411000Y-124158000D02*
X172411000Y-117241500D01*
%TO.N,/CS.SRAM*%
X170916000Y-117755400D02*
X170916000Y-124158000D01*
X170072200Y-116911600D02*
X170916000Y-117755400D01*
X170072200Y-108031600D02*
X170072200Y-116911600D01*
X172243700Y-105860100D02*
X170072200Y-108031600D01*
X172243700Y-102065600D02*
X172243700Y-105860100D01*
X176212700Y-98096600D02*
X172243700Y-102065600D01*
X176212700Y-91308600D02*
X176212700Y-98096600D01*
X175834400Y-90930300D02*
X176212700Y-91308600D01*
X175834400Y-90350500D02*
X175834400Y-90930300D01*
X176212700Y-89972200D02*
X175834400Y-90350500D01*
X176212700Y-88965400D02*
X176212700Y-89972200D01*
X178323300Y-86854800D02*
X176212700Y-88965400D01*
X178323300Y-72757500D02*
X178323300Y-86854800D01*
X174231200Y-68665400D02*
X178323300Y-72757500D01*
%TO.N,/A23*%
X169427000Y-124151000D02*
X169427000Y-119960900D01*
X165095600Y-115629500D02*
X168975000Y-119508900D01*
X165095600Y-115074700D02*
X165095600Y-115629500D01*
X163060400Y-113039500D02*
X165095600Y-115074700D01*
X159749700Y-113039500D02*
X163060400Y-113039500D01*
X159595100Y-113194100D02*
X159749700Y-113039500D01*
X158966500Y-113194100D02*
X159595100Y-113194100D01*
X158762000Y-113398600D02*
X158966500Y-113194100D01*
X158762000Y-114279000D02*
X158762000Y-113398600D01*
X168975000Y-119508900D02*
X169427000Y-119960900D01*
X123905700Y-80260200D02*
X124288700Y-79877200D01*
X123905700Y-93004600D02*
X123905700Y-80260200D01*
%TO.N,/A22*%
X158262000Y-113274500D02*
X158262000Y-114279000D01*
X159042500Y-112494000D02*
X158262000Y-113274500D01*
X167908000Y-124151000D02*
X167908000Y-119613200D01*
X133294000Y-76693000D02*
X133294000Y-81507900D01*
X134073000Y-75914000D02*
X133294000Y-76693000D01*
%TO.N,/A21*%
X166413000Y-124151000D02*
X166413000Y-119960900D01*
X165071600Y-118619500D02*
X165071600Y-118619400D01*
X166413000Y-119960900D02*
X165071600Y-118619500D01*
X128699200Y-81143500D02*
X128699200Y-91330200D01*
X159932700Y-116420100D02*
X160185900Y-116166900D01*
X159004300Y-116420100D02*
X159932700Y-116420100D01*
X157762000Y-115177800D02*
X159004300Y-116420100D01*
X157762000Y-114279000D02*
X157762000Y-115177800D01*
%TO.N,/A20*%
X132842800Y-69863900D02*
X132060600Y-69863900D01*
X137125000Y-74146100D02*
X132842800Y-69863900D01*
X137125000Y-75912000D02*
X137125000Y-74146100D01*
X164913000Y-124152000D02*
X164913000Y-119629200D01*
X157262000Y-113223500D02*
X157594300Y-112891200D01*
X157262000Y-114279000D02*
X157262000Y-113223500D01*
X129799400Y-80658500D02*
X127913700Y-78772800D01*
X129799400Y-81125300D02*
X129799400Y-80658500D01*
X132280700Y-83606600D02*
X129799400Y-81125300D01*
X132280700Y-94902200D02*
X132280700Y-83606600D01*
%TO.N,/A19*%
X163406000Y-124152000D02*
X163406000Y-119961900D01*
X156982800Y-116870100D02*
X161181900Y-116870100D01*
X156262000Y-116149300D02*
X156982800Y-116870100D01*
X156262000Y-114279000D02*
X156262000Y-116149300D01*
X162824500Y-115227500D02*
X161181900Y-116870100D01*
X162824500Y-113793700D02*
X162824500Y-115227500D01*
X161181900Y-117737800D02*
X161181900Y-116870100D01*
X163406000Y-119961900D02*
X161181900Y-117737800D01*
X178972800Y-69780800D02*
X178972800Y-69377300D01*
X179555200Y-70363200D02*
X178972800Y-69780800D01*
X179555200Y-88548600D02*
X179555200Y-70363200D01*
X177913400Y-90190400D02*
X179555200Y-88548600D01*
X177913400Y-90251600D02*
X177913400Y-90190400D01*
X176612800Y-91552200D02*
X177913400Y-90251600D01*
X176612800Y-98262300D02*
X176612800Y-91552200D01*
X172943900Y-101931200D02*
X176612800Y-98262300D01*
X172943900Y-105244100D02*
X172943900Y-101931200D01*
%TO.N,/A18*%
X161911000Y-124152000D02*
X161911000Y-119961900D01*
X155762000Y-116242800D02*
X155762000Y-114279000D01*
X156989500Y-117470300D02*
X155762000Y-116242800D01*
X159647300Y-117470300D02*
X156989500Y-117470300D01*
X161911000Y-119734000D02*
X159647300Y-117470300D01*
X161911000Y-119961900D02*
X161911000Y-119734000D01*
X136378400Y-79602600D02*
X136378400Y-80567800D01*
X140067000Y-75914000D02*
X136378400Y-79602600D01*
X155762000Y-110041600D02*
X150883300Y-105162900D01*
X155762000Y-114279000D02*
X155762000Y-110041600D01*
%TO.N,/A17*%
X160416000Y-124164000D02*
X160416000Y-119229100D01*
X155262000Y-116345000D02*
X155262000Y-114279000D01*
X156940400Y-118023400D02*
X155262000Y-116345000D01*
X159210300Y-118023400D02*
X156940400Y-118023400D01*
X160416000Y-119229100D02*
X159210300Y-118023400D01*
X135512600Y-82451000D02*
X134237200Y-82451000D01*
X141611000Y-76352600D02*
X135512600Y-82451000D01*
X141611000Y-74404000D02*
X141611000Y-76352600D01*
%TO.N,/A16*%
X158912000Y-124159000D02*
X158912000Y-119968900D01*
X158912000Y-119507800D02*
X158631100Y-119226900D01*
X158912000Y-119968900D02*
X158912000Y-119507800D01*
X154290700Y-114307700D02*
X154262000Y-114279000D01*
X154290700Y-116188800D02*
X154290700Y-114307700D01*
X157328800Y-119226900D02*
X154290700Y-116188800D01*
X158631100Y-119226900D02*
X157328800Y-119226900D01*
X128055700Y-79480500D02*
X127196700Y-79480500D01*
X129399300Y-80824100D02*
X128055700Y-79480500D01*
X129399300Y-90685000D02*
X129399300Y-80824100D01*
X129724000Y-91009700D02*
X129399300Y-90685000D01*
%TO.N,/CS.Rom.Sys*%
X135876500Y-111877100D02*
X134877000Y-110877600D01*
X135876500Y-116651700D02*
X135876500Y-111877100D01*
X133406000Y-119122200D02*
X135876500Y-116651700D01*
X133406000Y-124151000D02*
X133406000Y-119122200D01*
X144738100Y-106099000D02*
X145582000Y-106099000D01*
X141298300Y-102659200D02*
X144738100Y-106099000D01*
X141298300Y-102263000D02*
X141298300Y-102659200D01*
%TO.N,/Rd_Sys*%
X131915000Y-124151000D02*
X131915000Y-119960900D01*
X135171400Y-116704500D02*
X135171400Y-115844900D01*
X131915000Y-119960900D02*
X135171400Y-116704500D01*
X146968700Y-106158000D02*
X146968700Y-106685800D01*
X146409700Y-105599000D02*
X146968700Y-106158000D01*
X145582000Y-105599000D02*
X146409700Y-105599000D01*
%TO.N,/Write*%
X146938200Y-105099000D02*
X146971200Y-105132000D01*
X145582000Y-105099000D02*
X146938200Y-105099000D01*
X130408000Y-124151000D02*
X130408000Y-119960900D01*
X134465000Y-116461800D02*
X134465000Y-112008900D01*
X130965900Y-119960900D02*
X134465000Y-116461800D01*
X130408000Y-119960900D02*
X130965900Y-119960900D01*
%TO.N,/Clk*%
X128913000Y-124151000D02*
X128913000Y-119960900D01*
X132373600Y-116500300D02*
X133366400Y-116500300D01*
X128913000Y-119960900D02*
X132373600Y-116500300D01*
D33*
%TO.N,/USB.VBUS*%
X157466500Y-55592500D02*
X157466500Y-56917600D01*
X142064500Y-62419500D02*
X143264600Y-62419500D01*
X151964600Y-62419500D02*
X143264600Y-62419500D01*
X157466500Y-56917600D02*
X151964600Y-62419500D01*
X138899600Y-62419500D02*
X142064500Y-62419500D01*
X133355100Y-67964000D02*
X138899600Y-62419500D01*
X132055000Y-67964000D02*
X133355100Y-67964000D01*
D32*
%TO.N,/Cy.VREG*%
X160348200Y-64069400D02*
X161795500Y-62622100D01*
X157464500Y-64069400D02*
X160348200Y-64069400D01*
X157464500Y-65244500D02*
X157464500Y-64069400D01*
X161795500Y-61707000D02*
X161795500Y-62622100D01*
%TO.N,/USB.D-*%
X156198500Y-55593500D02*
X156198500Y-54418400D01*
X156198500Y-55593500D02*
X156198500Y-56768600D01*
X161790500Y-57005000D02*
X161790500Y-59885000D01*
X159202800Y-54417300D02*
X161790500Y-57005000D01*
X156199600Y-54417300D02*
X159202800Y-54417300D01*
X156198500Y-54418400D02*
X156199600Y-54417300D01*
X151632200Y-61334900D02*
X156198500Y-56768600D01*
X136184100Y-61334900D02*
X151632200Y-61334900D01*
X132055000Y-65464000D02*
X136184100Y-61334900D01*
%TO.N,/40MHz.Pin3*%
X161894700Y-105099000D02*
X162760000Y-105964300D01*
X160942000Y-105099000D02*
X161894700Y-105099000D01*
X171856000Y-98045400D02*
X171790000Y-98045400D01*
X173853400Y-96048000D02*
X171856000Y-98045400D01*
X171790000Y-98980500D02*
X171790000Y-98045400D01*
%TO.N,/40MHz.Pin1*%
X168694000Y-96045000D02*
X169744100Y-96045000D01*
X170828500Y-98050400D02*
X169968000Y-98050400D01*
X172358100Y-96520800D02*
X170828500Y-98050400D01*
X172358100Y-95587600D02*
X172358100Y-96520800D01*
X171740700Y-94970200D02*
X172358100Y-95587600D01*
X170818900Y-94970200D02*
X171740700Y-94970200D01*
X169744100Y-96045000D02*
X170818900Y-94970200D01*
X169968000Y-98985500D02*
X169968000Y-98050400D01*
X162457100Y-106664400D02*
X163489800Y-106664400D01*
X162041100Y-106248400D02*
X162457100Y-106664400D01*
X162041100Y-105877500D02*
X162041100Y-106248400D01*
X161762600Y-105599000D02*
X162041100Y-105877500D01*
X160942000Y-105599000D02*
X161762600Y-105599000D01*
%TO.N,/Const_high*%
X138266900Y-102270800D02*
X137966400Y-102571300D01*
X138266900Y-101815000D02*
X138266900Y-102270800D01*
X139202000Y-101815000D02*
X138266900Y-101815000D01*
X134126500Y-101915000D02*
X134126500Y-100999900D01*
X134490300Y-100999900D02*
X134793900Y-100696300D01*
X134126500Y-100999900D02*
X134490300Y-100999900D01*
X139202000Y-101815000D02*
X140137100Y-101815000D01*
X144644400Y-106599000D02*
X145582000Y-106599000D01*
X140137100Y-102091700D02*
X144644400Y-106599000D01*
X140137100Y-101815000D02*
X140137100Y-102091700D01*
D31*
%TO.N,/VCC_Internal*%
X163952000Y-108099000D02*
X164887500Y-109034500D01*
X160942000Y-108099000D02*
X163952000Y-108099000D01*
D33*
X164887500Y-109034500D02*
X164887500Y-109035000D01*
X136688000Y-106620000D02*
X136687500Y-106619500D01*
D31*
X151262000Y-100718000D02*
X151261000Y-100719000D01*
X151262000Y-98919000D02*
X151262000Y-100718000D01*
X164887500Y-109034500D02*
X164888000Y-109035000D01*
D33*
X165949500Y-109035000D02*
X166138000Y-109223500D01*
X164888000Y-109035000D02*
X165949500Y-109035000D01*
D31*
X136688000Y-106620000D02*
X139250800Y-106620000D01*
D33*
X139276000Y-106594800D02*
X139276000Y-106530000D01*
X139250800Y-106620000D02*
X139276000Y-106594800D01*
D31*
X139250800Y-106620000D02*
X141231700Y-106620000D01*
X144553000Y-107599000D02*
X145582000Y-107599000D01*
X143573000Y-106620000D02*
X144553000Y-107599000D01*
X141231700Y-106620000D02*
X143573000Y-106620000D01*
D33*
X141606600Y-106245100D02*
X141231700Y-106620000D01*
X141606600Y-104691600D02*
X141606600Y-106245100D01*
X151166400Y-101675700D02*
X151261000Y-101675700D01*
X149986000Y-102856100D02*
X151166400Y-101675700D01*
X149986000Y-103401500D02*
X149986000Y-102856100D01*
X151860900Y-102275600D02*
X151261000Y-101675700D01*
X155434600Y-102275600D02*
X151860900Y-102275600D01*
X156989100Y-100721100D02*
X155434600Y-102275600D01*
X156989100Y-100629100D02*
X156989100Y-100721100D01*
X151261000Y-101675700D02*
X151261000Y-100719000D01*
X132209600Y-99969700D02*
X133630000Y-98549300D01*
X132209600Y-113720100D02*
X132209600Y-99969700D01*
X128398200Y-117531500D02*
X132209600Y-113720100D01*
X165795700Y-113413200D02*
X165795700Y-115337500D01*
X164772600Y-112390100D02*
X165795700Y-113413200D01*
D32*
%TO.N,/SST.A16*%
X160072000Y-81173000D02*
X159121900Y-81173000D01*
X153308700Y-93567400D02*
X153308700Y-82211300D01*
X153762000Y-94020700D02*
X153308700Y-93567400D01*
X153762000Y-98919000D02*
X153762000Y-94020700D01*
X158020600Y-80071700D02*
X152238200Y-80071700D01*
X159121900Y-81173000D02*
X158020600Y-80071700D01*
%TO.N,/AD15*%
X160072000Y-82673000D02*
X161022100Y-82673000D01*
X153762000Y-115176600D02*
X153762000Y-114279000D01*
X153890600Y-115305200D02*
X153762000Y-115176600D01*
X153890600Y-116354400D02*
X153890600Y-115305200D01*
X157417000Y-119880800D02*
X153890600Y-116354400D01*
X157417000Y-124159000D02*
X157417000Y-119880800D01*
X161022100Y-80859200D02*
X161022100Y-82673000D01*
X159534500Y-79371600D02*
X161022100Y-80859200D01*
X147720300Y-79371600D02*
X159534500Y-79371600D01*
X144589000Y-76240300D02*
X147720300Y-79371600D01*
X144589000Y-74405000D02*
X144589000Y-76240300D01*
X153762000Y-112073900D02*
X153762000Y-114279000D01*
X149687900Y-107999800D02*
X153762000Y-112073900D01*
%TO.N,/AD7*%
X160072000Y-83173000D02*
X161022100Y-83173000D01*
X156575800Y-76286000D02*
X156575800Y-74405900D01*
X158601600Y-78311800D02*
X156575800Y-76286000D01*
X159087800Y-78311800D02*
X158601600Y-78311800D01*
X161422200Y-80646200D02*
X159087800Y-78311800D01*
X161422200Y-82838700D02*
X161422200Y-80646200D01*
X161087900Y-83173000D02*
X161422200Y-82838700D01*
X161022100Y-83173000D02*
X161087900Y-83173000D01*
X148262000Y-115896300D02*
X148659200Y-116293500D01*
X148262000Y-114279000D02*
X148262000Y-115896300D01*
X145417000Y-119535700D02*
X148659200Y-116293500D01*
X145417000Y-124160000D02*
X145417000Y-119535700D01*
%TO.N,/AD14*%
X155910000Y-119364100D02*
X155910000Y-124159000D01*
X153707300Y-117161400D02*
X155910000Y-119364100D01*
X153262000Y-115242500D02*
X153262000Y-114279000D01*
X153490500Y-115471000D02*
X153262000Y-115242500D01*
X153490500Y-116944600D02*
X153490500Y-115471000D01*
X153707300Y-117161400D02*
X153490500Y-116944600D01*
X155769100Y-83673000D02*
X160072000Y-83673000D01*
X155699400Y-83742700D02*
X155769100Y-83673000D01*
X146057000Y-74202200D02*
X146057000Y-75915000D01*
X147484500Y-72774700D02*
X146057000Y-74202200D01*
X175379800Y-72774700D02*
X147484500Y-72774700D01*
X176322800Y-73717700D02*
X175379800Y-72774700D01*
X176322800Y-76721200D02*
X176322800Y-73717700D01*
X173169600Y-79874400D02*
X176322800Y-76721200D01*
X173169600Y-94375100D02*
X173169600Y-79874400D01*
%TO.N,/AD6*%
X160072000Y-84173000D02*
X161022100Y-84173000D01*
X161822300Y-79696300D02*
X158040000Y-75914000D01*
X161822300Y-83372800D02*
X161822300Y-79696300D01*
X161022100Y-84173000D02*
X161822300Y-83372800D01*
X143910000Y-124160000D02*
X143910000Y-119969900D01*
X144748100Y-112099000D02*
X145582000Y-112099000D01*
X144460200Y-112386900D02*
X144748100Y-112099000D01*
X144460200Y-113096600D02*
X144460200Y-112386900D01*
X144721400Y-113357800D02*
X144460200Y-113096600D01*
X144721400Y-119158500D02*
X144721400Y-113357800D01*
X143910000Y-119969900D02*
X144721400Y-119158500D01*
%TO.N,/AD13*%
X152790400Y-117459700D02*
X152790400Y-115816400D01*
X154415000Y-119084300D02*
X152790400Y-117459700D01*
X154415000Y-124159000D02*
X154415000Y-119084300D01*
X152790400Y-114307400D02*
X152762000Y-114279000D01*
X152790400Y-115816400D02*
X152790400Y-114307400D01*
X147605000Y-74407000D02*
X147824500Y-74407000D01*
X149056700Y-73174800D02*
X147824500Y-74407000D01*
X175214100Y-73174800D02*
X149056700Y-73174800D01*
X175922700Y-73883400D02*
X175214100Y-73174800D01*
X175922700Y-76364700D02*
X175922700Y-73883400D01*
X172196700Y-80090700D02*
X175922700Y-76364700D01*
X172196700Y-90865800D02*
X172196700Y-80090700D01*
X147824500Y-74407000D02*
X147824500Y-76840700D01*
X154929500Y-83097900D02*
X155231700Y-82795700D01*
X154929500Y-83976800D02*
X154929500Y-83097900D01*
X155625700Y-84673000D02*
X154929500Y-83976800D01*
X160072000Y-84673000D02*
X155625700Y-84673000D01*
%TO.N,/AD5*%
X160072000Y-85173000D02*
X161022100Y-85173000D01*
X159592100Y-76796400D02*
X159592100Y-74405900D01*
X162222400Y-79426700D02*
X159592100Y-76796400D01*
X162222400Y-83972700D02*
X162222400Y-79426700D01*
X161022100Y-85173000D02*
X162222400Y-83972700D01*
X142427000Y-124160000D02*
X142427000Y-119969900D01*
X143455900Y-112760200D02*
X143455900Y-113753100D01*
X144617100Y-111599000D02*
X143455900Y-112760200D01*
X145582000Y-111599000D02*
X144617100Y-111599000D01*
X143455900Y-118941000D02*
X143455900Y-113753100D01*
X142427000Y-119969900D02*
X143455900Y-118941000D01*
%TO.N,/AD12*%
X152909000Y-124159000D02*
X152909000Y-118663100D01*
X155934300Y-85673000D02*
X160072000Y-85673000D01*
X154529400Y-84268100D02*
X155934300Y-85673000D01*
X154529400Y-82098600D02*
X154529400Y-84268100D01*
X154848500Y-81779500D02*
X154529400Y-82098600D01*
X152262000Y-113217800D02*
X152941500Y-112538300D01*
X152262000Y-114279000D02*
X152262000Y-113217800D01*
%TO.N,/AD4*%
X160072000Y-86173000D02*
X161022100Y-86173000D01*
X162622500Y-77436300D02*
X161100200Y-75914000D01*
X162622500Y-84572600D02*
X162622500Y-77436300D01*
X161022100Y-86173000D02*
X162622500Y-84572600D01*
X142336100Y-113269200D02*
X142336100Y-114193400D01*
X144506300Y-111099000D02*
X142336100Y-113269200D01*
X145582000Y-111099000D02*
X144506300Y-111099000D01*
X142336100Y-114558100D02*
X142336100Y-114193400D01*
X140908000Y-115986200D02*
X142336100Y-114558100D01*
X140908000Y-124160000D02*
X140908000Y-115986200D01*
D31*
%TO.N,/VCC*%
X164787000Y-103502000D02*
X164884000Y-103405000D01*
D33*
X164787500Y-103502000D02*
X164884500Y-103405000D01*
X164787000Y-103502000D02*
X164787500Y-103502000D01*
X127406000Y-124151000D02*
X127406000Y-119810900D01*
D31*
X163042000Y-86673000D02*
X164376000Y-88007000D01*
X160072000Y-86673000D02*
X163042000Y-86673000D01*
D33*
X138116800Y-99803300D02*
X138116800Y-100875000D01*
X138256500Y-99663600D02*
X138116800Y-99803300D01*
D31*
X144736000Y-103599000D02*
X145582000Y-103599000D01*
X142012000Y-100875000D02*
X144736000Y-103599000D01*
X138116800Y-100875000D02*
X142012000Y-100875000D01*
D33*
X138256500Y-98463500D02*
X138256500Y-99663600D01*
X164884500Y-103405000D02*
X164884500Y-102339900D01*
X164376000Y-88007000D02*
X164376000Y-86941900D01*
X134131500Y-103737000D02*
X134131500Y-104802100D01*
D31*
X136677000Y-101852000D02*
X137654000Y-100875000D01*
X137654000Y-100875000D02*
X138116800Y-100875000D01*
D33*
X133865200Y-104802100D02*
X134131500Y-104802100D01*
X136866500Y-57664000D02*
X137951600Y-57664000D01*
D31*
X145582000Y-103599000D02*
X147220000Y-103599000D01*
D34*
X150762000Y-112957300D02*
X150762000Y-114279000D01*
X150605200Y-112800500D02*
X150762000Y-112957300D01*
D31*
X164690000Y-103599000D02*
X164787000Y-103502000D01*
X160942000Y-103599000D02*
X164690000Y-103599000D01*
D33*
X132909800Y-105757500D02*
X133865200Y-104802100D01*
X132909800Y-108387400D02*
X132909800Y-105757500D01*
X132919400Y-108397000D02*
X132909800Y-108387400D01*
X134004500Y-108397000D02*
X132919400Y-108397000D01*
D31*
X155762000Y-98919000D02*
X155762000Y-100937500D01*
D33*
X164376000Y-88007000D02*
X165461100Y-88007000D01*
X127852000Y-119364900D02*
X127406000Y-119810900D01*
X161349900Y-114113700D02*
X159427300Y-114113700D01*
D34*
X159427300Y-114113700D02*
X159262000Y-114279000D01*
D33*
X147936000Y-102883000D02*
X147220000Y-103599000D01*
X147936000Y-101670700D02*
X147936000Y-102883000D01*
D31*
X160942000Y-103599000D02*
X158643200Y-103599000D01*
X156762000Y-114279000D02*
X156762000Y-112285000D01*
D33*
X155301200Y-101398300D02*
X152186000Y-101398300D01*
X155762000Y-100937500D02*
X155301200Y-101398300D01*
X156762000Y-105480200D02*
X156762000Y-112285000D01*
X158643200Y-103599000D02*
X156762000Y-105480200D01*
X134579600Y-98261000D02*
X134579600Y-99484500D01*
X133918300Y-97599700D02*
X134579600Y-98261000D01*
X133754900Y-97599700D02*
X133918300Y-97599700D01*
X125310600Y-89155400D02*
X133754900Y-97599700D01*
X125310600Y-65945500D02*
X125310600Y-89155400D01*
X129587200Y-61668900D02*
X125310600Y-65945500D01*
X129587200Y-56269400D02*
X129587200Y-61668900D01*
X131527800Y-54328800D02*
X129587200Y-56269400D01*
X137249500Y-54328800D02*
X131527800Y-54328800D01*
X137951600Y-55030900D02*
X137249500Y-54328800D01*
X137951600Y-57664000D02*
X137951600Y-55030900D01*
X133015900Y-101048200D02*
X134579600Y-99484500D01*
X133015900Y-103952800D02*
X133015900Y-101048200D01*
X133865200Y-104802100D02*
X133015900Y-103952800D01*
X136263500Y-99484500D02*
X137654000Y-100875000D01*
X134579600Y-99484500D02*
X136263500Y-99484500D01*
X136684500Y-109954500D02*
X135484400Y-109954500D01*
X134004500Y-109507100D02*
X134524900Y-110027500D01*
X134004500Y-108397000D02*
X134004500Y-109507100D01*
X135411400Y-110027500D02*
X134524900Y-110027500D01*
X135484400Y-109954500D02*
X135411400Y-110027500D01*
X133175800Y-114041100D02*
X127852000Y-119364900D01*
X133175800Y-111376600D02*
X133175800Y-114041100D01*
X134524900Y-110027500D02*
X133175800Y-111376600D01*
X147897300Y-104276300D02*
X147897300Y-106200000D01*
X147220000Y-103599000D02*
X147897300Y-104276300D01*
X147672500Y-109310500D02*
X147672500Y-108386100D01*
X148616500Y-110254500D02*
X147672500Y-109310500D01*
X148616500Y-110811800D02*
X148616500Y-110254500D01*
X150605200Y-112800500D02*
X148616500Y-110811800D01*
X164884500Y-101210700D02*
X164884500Y-102339900D01*
X164875500Y-101201700D02*
X164884500Y-101210700D01*
X164875500Y-101134000D02*
X164875500Y-101201700D01*
X174672000Y-76645900D02*
X164376000Y-86941900D01*
X174672000Y-74406000D02*
X174672000Y-76645900D01*
X166752800Y-89298700D02*
X166752800Y-98740600D01*
X165461100Y-88007000D02*
X166752800Y-89298700D01*
X166584600Y-100440900D02*
X166584600Y-101210700D01*
X164884500Y-101210700D02*
X166584600Y-101210700D01*
X168538700Y-103164800D02*
X168538700Y-104810000D01*
X166584600Y-101210700D02*
X168538700Y-103164800D01*
D32*
%TO.N,/AD11*%
X151407000Y-124159000D02*
X151407000Y-119968900D01*
X151750600Y-119625300D02*
X151750600Y-116978100D01*
X151407000Y-119968900D02*
X151750600Y-119625300D01*
X151762000Y-116966700D02*
X151762000Y-114279000D01*
X151750600Y-116978100D02*
X151762000Y-116966700D01*
X156363200Y-87661800D02*
X156363200Y-88577400D01*
X156852000Y-87173000D02*
X156363200Y-87661800D01*
X160072000Y-87173000D02*
X156852000Y-87173000D01*
%TO.N,/AD3*%
X161149500Y-87673000D02*
X161326300Y-87496200D01*
X160072000Y-87673000D02*
X161149500Y-87673000D01*
X141218000Y-113739800D02*
X141218000Y-114593600D01*
X144358800Y-110599000D02*
X141218000Y-113739800D01*
X145582000Y-110599000D02*
X144358800Y-110599000D01*
X139809100Y-116002500D02*
X141218000Y-114593600D01*
X139809100Y-119565800D02*
X139809100Y-116002500D01*
X139409000Y-119965900D02*
X139809100Y-119565800D01*
X139409000Y-124156000D02*
X139409000Y-119965900D01*
%TO.N,/AD10*%
X149924000Y-124159000D02*
X149924000Y-119968900D01*
X150263500Y-119629400D02*
X150263500Y-116736800D01*
X149924000Y-119968900D02*
X150263500Y-119629400D01*
X150263500Y-115776100D02*
X150263500Y-116736800D01*
X149762000Y-115274600D02*
X150263500Y-115776100D01*
X149762000Y-114279000D02*
X149762000Y-115274600D01*
X150263500Y-116736800D02*
X150557600Y-116736800D01*
X157390600Y-88173000D02*
X157116300Y-87898700D01*
X160072000Y-88173000D02*
X157390600Y-88173000D01*
%TO.N,/AD2*%
X161158000Y-88673000D02*
X161334600Y-88496400D01*
X160072000Y-88673000D02*
X161158000Y-88673000D01*
X144240600Y-110099000D02*
X145582000Y-110099000D01*
X139887100Y-114452500D02*
X144240600Y-110099000D01*
X139887100Y-114890900D02*
X139887100Y-114452500D01*
X139209100Y-115568900D02*
X139887100Y-114890900D01*
X139209100Y-116436500D02*
X139209100Y-115568900D01*
X137915000Y-117730600D02*
X139209100Y-116436500D01*
X137915000Y-124161000D02*
X137915000Y-117730600D01*
%TO.N,/AD9*%
X148417000Y-124159000D02*
X148417000Y-119968900D01*
X160072000Y-89173000D02*
X159121900Y-89173000D01*
X149563400Y-118822500D02*
X149563400Y-117565700D01*
X148417000Y-119968900D02*
X149563400Y-118822500D01*
X157516400Y-89051900D02*
X157363400Y-88898900D01*
X157516400Y-89052000D02*
X157516400Y-89051900D01*
X159000900Y-89052000D02*
X157516400Y-89052000D01*
X159121900Y-89173000D02*
X159000900Y-89052000D01*
X149262000Y-115340400D02*
X149262000Y-114279000D01*
X149759400Y-115837800D02*
X149262000Y-115340400D01*
X149759400Y-116749200D02*
X149759400Y-115837800D01*
X149710400Y-116798200D02*
X149759400Y-116749200D01*
X149710400Y-117418700D02*
X149710400Y-116798200D01*
X149563400Y-117565700D02*
X149710400Y-117418700D01*
%TO.N,/AD1*%
X161291100Y-89673000D02*
X161342800Y-89621300D01*
X160072000Y-89673000D02*
X161291100Y-89673000D01*
X136408000Y-118212900D02*
X136408000Y-124151000D01*
X138377900Y-116243000D02*
X136408000Y-118212900D01*
X138377900Y-115395900D02*
X138377900Y-116243000D01*
X144174800Y-109599000D02*
X138377900Y-115395900D01*
X145582000Y-109599000D02*
X144174800Y-109599000D01*
%TO.N,/AD8*%
X146910000Y-124159000D02*
X146910000Y-119968900D01*
X157396400Y-90173000D02*
X157228500Y-90340900D01*
X160072000Y-90173000D02*
X157396400Y-90173000D01*
X147766400Y-111038500D02*
X147766400Y-110606600D01*
X148762000Y-112034100D02*
X147766400Y-111038500D01*
X148762000Y-114279000D02*
X148762000Y-112034100D01*
X148762000Y-115406200D02*
X148762000Y-114279000D01*
X149359300Y-116003500D02*
X148762000Y-115406200D01*
X149359300Y-116583500D02*
X149359300Y-116003500D01*
X146910000Y-119032800D02*
X149359300Y-116583500D01*
X146910000Y-119968900D02*
X146910000Y-119032800D01*
%TO.N,/AD0*%
X134913000Y-124151000D02*
X134913000Y-119960900D01*
X161756400Y-90673000D02*
X161886600Y-90542800D01*
X160072000Y-90673000D02*
X161756400Y-90673000D01*
X134913000Y-118298900D02*
X134913000Y-119960900D01*
X136916600Y-116295300D02*
X134913000Y-118298900D01*
X136916600Y-116291400D02*
X136916600Y-116295300D01*
X144109000Y-109099000D02*
X136916600Y-116291400D01*
X145582000Y-109099000D02*
X144109000Y-109099000D01*
%TO.N,/SST.OE*%
X160072000Y-91173000D02*
X159121900Y-91173000D01*
X155262000Y-95032900D02*
X155262000Y-98919000D01*
X159121900Y-91173000D02*
X155262000Y-95032900D01*
%TO.N,/SST.CE*%
X160072000Y-92173000D02*
X159121900Y-92173000D01*
X156762000Y-94452400D02*
X156762000Y-98919000D01*
X159041400Y-92173000D02*
X156762000Y-94452400D01*
X159121900Y-92173000D02*
X159041400Y-92173000D01*
%TO.N,/SST.A0*%
X160072000Y-92673000D02*
X159121900Y-92673000D01*
X157262000Y-94532900D02*
X157262000Y-98919000D01*
X159121900Y-92673000D02*
X157262000Y-94532900D01*
%TO.N,/SST.A1*%
X140372000Y-92673000D02*
X141322100Y-92673000D01*
X141322100Y-92673000D02*
X141322100Y-95589000D01*
X146964900Y-102546500D02*
X146964900Y-102135700D01*
X146412400Y-103099000D02*
X146964900Y-102546500D01*
X145582000Y-103099000D02*
X146412400Y-103099000D01*
%TO.N,/SST.A2*%
X144492900Y-102599000D02*
X145582000Y-102599000D01*
X139421900Y-97528000D02*
X144492900Y-102599000D01*
X139421900Y-92173000D02*
X139421900Y-97528000D01*
X140372000Y-92173000D02*
X139421900Y-92173000D01*
%TO.N,/SST.A3*%
X144599500Y-102099000D02*
X145582000Y-102099000D01*
X142828500Y-100328000D02*
X144599500Y-102099000D01*
X142828500Y-93179400D02*
X142828500Y-100328000D01*
X141322100Y-91673000D02*
X142828500Y-93179400D01*
X140372000Y-91673000D02*
X141322100Y-91673000D01*
%TO.N,/SST.A4*%
X144672100Y-101599000D02*
X145582000Y-101599000D01*
X144019400Y-100946300D02*
X144672100Y-101599000D01*
X144019400Y-93784400D02*
X144019400Y-100946300D01*
X141408000Y-91173000D02*
X144019400Y-93784400D01*
X140372000Y-91173000D02*
X141408000Y-91173000D01*
%TO.N,/SST.A5*%
X139113000Y-90673000D02*
X139113000Y-90673100D01*
X140372000Y-90673000D02*
X139113000Y-90673000D01*
X144768700Y-101099000D02*
X145582000Y-101099000D01*
X144453200Y-100783500D02*
X144768700Y-101099000D01*
X144453200Y-96168100D02*
X144453200Y-100783500D01*
X144730900Y-95890400D02*
X144453200Y-96168100D01*
%TO.N,/SST.A6*%
X141183900Y-90173000D02*
X140372000Y-90173000D01*
X145582000Y-94571100D02*
X141183900Y-90173000D01*
X145582000Y-100599000D02*
X145582000Y-94571100D01*
%TO.N,/SST.A7*%
X140372000Y-89673000D02*
X141322100Y-89673000D01*
X145992000Y-97649000D02*
X147262000Y-98919000D01*
X145992000Y-94342900D02*
X145992000Y-97649000D01*
X141322100Y-89673000D02*
X145992000Y-94342900D01*
%TO.N,/SST.A17*%
X154262000Y-88799000D02*
X154262000Y-98919000D01*
X154008800Y-88545800D02*
X154262000Y-88799000D01*
X140372000Y-89173000D02*
X139421900Y-89173000D01*
X139421900Y-82638400D02*
X139117900Y-82334400D01*
X139421900Y-89173000D02*
X139421900Y-82638400D01*
%TO.N,/SST.A18*%
X146692100Y-94043000D02*
X146692100Y-94620800D01*
X141322100Y-88673000D02*
X146692100Y-94043000D01*
X140372000Y-88673000D02*
X141322100Y-88673000D01*
X154271700Y-100310500D02*
X152152500Y-100310500D01*
X154762000Y-99820200D02*
X154271700Y-100310500D01*
X154762000Y-98919000D02*
X154762000Y-99820200D01*
%TO.N,/SST.WE*%
X140372000Y-86173000D02*
X141322100Y-86173000D01*
X147762000Y-92612900D02*
X141322100Y-86173000D01*
X147762000Y-98919000D02*
X147762000Y-92612900D01*
%TO.N,/SST.A8*%
X140372000Y-84673000D02*
X141322100Y-84673000D01*
X148262000Y-91612900D02*
X141322100Y-84673000D01*
X148262000Y-98919000D02*
X148262000Y-91612900D01*
%TO.N,/SST.A9*%
X141410500Y-84173000D02*
X140372000Y-84173000D01*
X148762000Y-91524500D02*
X141410500Y-84173000D01*
X148762000Y-98919000D02*
X148762000Y-91524500D01*
%TO.N,/SST.A10*%
X141527900Y-83673000D02*
X140372000Y-83673000D01*
X149262000Y-91407100D02*
X141527900Y-83673000D01*
X149262000Y-98919000D02*
X149262000Y-91407100D01*
%TO.N,/SST.A11*%
X141670600Y-83173000D02*
X140372000Y-83173000D01*
X149762000Y-91264400D02*
X141670600Y-83173000D01*
X149762000Y-98919000D02*
X149762000Y-91264400D01*
%TO.N,/SST.A12*%
X151762000Y-94283900D02*
X151762000Y-98919000D01*
X151593600Y-94115500D02*
X151762000Y-94283900D01*
X151593600Y-92525500D02*
X151593600Y-94115500D01*
X141741100Y-82673000D02*
X151593600Y-92525500D01*
X140372000Y-82673000D02*
X141741100Y-82673000D01*
%TO.N,/SST.A13*%
X140372000Y-82173000D02*
X141322100Y-82173000D01*
X152262000Y-94218100D02*
X152262000Y-98919000D01*
X151993700Y-93949800D02*
X152262000Y-94218100D01*
X151993700Y-92350700D02*
X151993700Y-93949800D01*
X141816000Y-82173000D02*
X151993700Y-92350700D01*
X141322100Y-82173000D02*
X141816000Y-82173000D01*
%TO.N,/SST.A14*%
X152762000Y-94152300D02*
X152762000Y-98919000D01*
X152393800Y-93784100D02*
X152762000Y-94152300D01*
X152393800Y-92175900D02*
X152393800Y-93784100D01*
X141890900Y-81673000D02*
X152393800Y-92175900D01*
X140372000Y-81673000D02*
X141890900Y-81673000D01*
%TO.N,/SST.A15*%
X153262000Y-94086500D02*
X153262000Y-98919000D01*
X152793900Y-93618400D02*
X153262000Y-94086500D01*
X152793900Y-91987500D02*
X152793900Y-93618400D01*
X141979400Y-81173000D02*
X152793900Y-91987500D01*
X140372000Y-81173000D02*
X141979400Y-81173000D01*
%TO.N,/Button*%
X128662300Y-56758800D02*
X128662300Y-58852200D01*
X127646000Y-55742500D02*
X128662300Y-56758800D01*
X136861500Y-55842000D02*
X135926400Y-55842000D01*
X135606400Y-55522000D02*
X135926400Y-55842000D01*
X144203600Y-104099000D02*
X143555100Y-103450500D01*
X145582000Y-104099000D02*
X144203600Y-104099000D01*
%TO.N,/Switch*%
X134108600Y-105659900D02*
X133999500Y-105659900D01*
X135429100Y-104339400D02*
X134108600Y-105659900D01*
X135429100Y-103325300D02*
X135429100Y-104339400D01*
X133999500Y-106575000D02*
X133999500Y-105659900D01*
X130199500Y-79521300D02*
X129206000Y-78527800D01*
X130199500Y-80959600D02*
X130199500Y-79521300D01*
X135429800Y-86189900D02*
X130199500Y-80959600D01*
X135429800Y-98165500D02*
X135429800Y-86189900D01*
X159668200Y-111599000D02*
X159557900Y-111488700D01*
X160942000Y-111599000D02*
X159668200Y-111599000D01*
D31*
%TO.N,/GND*%
X164496000Y-107599000D02*
X164689000Y-107406000D01*
X160942000Y-107599000D02*
X164496000Y-107599000D01*
X164689000Y-107406000D02*
X164882000Y-107213000D01*
X150262000Y-98919000D02*
X150762000Y-98919000D01*
X160072000Y-91673000D02*
X161679500Y-91673000D01*
X162537000Y-91673000D02*
X164381000Y-89829000D01*
X161679500Y-91673000D02*
X162537000Y-91673000D01*
X161679500Y-99312000D02*
X164870000Y-99312000D01*
X151262000Y-112408000D02*
X151265000Y-112405000D01*
X151262000Y-114279000D02*
X151262000Y-112408000D01*
D35*
X127779000Y-75760200D02*
X127779000Y-75581500D01*
X127779000Y-75581500D02*
X127779000Y-75522000D01*
D33*
X127462000Y-75264500D02*
X127462000Y-73061400D01*
X127779000Y-75581500D02*
X127462000Y-75264500D01*
X154924500Y-65244500D02*
X154924500Y-66569600D01*
X139207000Y-103637000D02*
X138121900Y-103637000D01*
X138084900Y-103674000D02*
X138121900Y-103637000D01*
X136682000Y-103674000D02*
X138084900Y-103674000D01*
X164870000Y-99312000D02*
X164870500Y-99312000D01*
D31*
X159655000Y-99312000D02*
X161679500Y-99312000D01*
X159262000Y-98919000D02*
X159655000Y-99312000D01*
D34*
X150671800Y-99009200D02*
X150762000Y-98919000D01*
D31*
X147262000Y-114279000D02*
X147262000Y-112678000D01*
X158124000Y-82173000D02*
X158117000Y-82180000D01*
X160072000Y-82173000D02*
X158124000Y-82173000D01*
D36*
X146812500Y-108099000D02*
X145582000Y-108099000D01*
D33*
X161679500Y-99312000D02*
X161679500Y-91673000D01*
X162764400Y-66569600D02*
X165075000Y-64259000D01*
X154924500Y-66569600D02*
X162764400Y-66569600D01*
X138259500Y-94528400D02*
X138259500Y-93928400D01*
X138259500Y-94528400D02*
X138259500Y-95128500D01*
X139207000Y-103637000D02*
X140292100Y-103637000D01*
X140484000Y-103828900D02*
X140292100Y-103637000D01*
X164870500Y-99312000D02*
X165955600Y-99312000D01*
X138259500Y-95128500D02*
X138259500Y-97107800D01*
X176085100Y-101126100D02*
X175904200Y-100945200D01*
X176085100Y-114429900D02*
X176085100Y-101126100D01*
X174109000Y-116406000D02*
X176085100Y-114429900D01*
X174109000Y-124158000D02*
X174109000Y-116406000D01*
X130055000Y-70468100D02*
X130055000Y-67964000D01*
X127610500Y-72912600D02*
X130055000Y-70468100D01*
X126373000Y-58146900D02*
X126373000Y-57885500D01*
X127345000Y-59118900D02*
X126373000Y-58146900D01*
X127345000Y-60694000D02*
X127345000Y-59118900D01*
X127932800Y-75914000D02*
X127779000Y-75760200D01*
X128040500Y-75914000D02*
X127932800Y-75914000D01*
X134602000Y-59084500D02*
X133403000Y-57885500D01*
X142067500Y-59084500D02*
X134602000Y-59084500D01*
X132097000Y-56579500D02*
X132097000Y-55702500D01*
X133403000Y-57885500D02*
X132097000Y-56579500D01*
X136373300Y-83614000D02*
X136432300Y-83672900D01*
X134197700Y-83614000D02*
X136373300Y-83614000D01*
X132379900Y-81796200D02*
X134197700Y-83614000D01*
X132379900Y-80253400D02*
X132379900Y-81796200D01*
X128040500Y-75914000D02*
X132379900Y-80253400D01*
X138259500Y-85500200D02*
X138259500Y-93928400D01*
X136432300Y-83672900D02*
X138259500Y-85500200D01*
X139553000Y-80552200D02*
X136432300Y-83672900D01*
X150447400Y-80552200D02*
X139553000Y-80552200D01*
X150817000Y-80921800D02*
X150447400Y-80552200D01*
X156858800Y-80921800D02*
X150817000Y-80921800D01*
X158117000Y-82180000D02*
X156858800Y-80921800D01*
D31*
X139534000Y-108099000D02*
X139344300Y-108288700D01*
X145582000Y-108099000D02*
X139534000Y-108099000D01*
X139344300Y-108288700D02*
X139281000Y-108352000D01*
D33*
X136399500Y-104739100D02*
X136682000Y-104739100D01*
X135486600Y-105652000D02*
X136399500Y-104739100D01*
X135486600Y-107566800D02*
X135486600Y-105652000D01*
X136208500Y-108288700D02*
X135486600Y-107566800D01*
X139344300Y-108288700D02*
X136208500Y-108288700D01*
X136682000Y-103674000D02*
X136682000Y-104739100D01*
X146822400Y-112238400D02*
X147262000Y-112678000D01*
X146822400Y-108099000D02*
X146822400Y-112238400D01*
X146822400Y-108099000D02*
X146812500Y-108099000D01*
D31*
X154762000Y-114279000D02*
X154762000Y-112290000D01*
D33*
X149758700Y-106868300D02*
X149054400Y-106868300D01*
X154762000Y-111871600D02*
X149758700Y-106868300D01*
X154762000Y-112290000D02*
X154762000Y-111871600D01*
X149054400Y-106868300D02*
X148843700Y-106657600D01*
X148843700Y-102279200D02*
X148843700Y-106657600D01*
X150472600Y-100650300D02*
X148843700Y-102279200D01*
X150472600Y-99208400D02*
X150472600Y-100650300D01*
X150671800Y-99009200D02*
X150472600Y-99208400D01*
X146822400Y-108034000D02*
X146822400Y-108099000D01*
X147320400Y-107536000D02*
X146822400Y-108034000D01*
X147965300Y-107536000D02*
X147320400Y-107536000D01*
X148843700Y-106657600D02*
X147965300Y-107536000D01*
X148805400Y-107117300D02*
X149054400Y-106868300D01*
X148805400Y-109453100D02*
X148805400Y-107117300D01*
X151265000Y-111912700D02*
X148805400Y-109453100D01*
X151265000Y-112405000D02*
X151265000Y-111912700D01*
X164889500Y-105227000D02*
X165974600Y-105227000D01*
X164689500Y-107406000D02*
X164882500Y-107213000D01*
X164689000Y-107406000D02*
X164689500Y-107406000D01*
X164882500Y-107213000D02*
X164882500Y-106147900D01*
X165053700Y-106147900D02*
X165974600Y-105227000D01*
X164882500Y-106147900D02*
X165053700Y-106147900D01*
X180105300Y-88988800D02*
X178774900Y-90319200D01*
X180105300Y-66509300D02*
X180105300Y-88988800D01*
X177857000Y-64261000D02*
X180105300Y-66509300D01*
X166234300Y-99590700D02*
X168581000Y-99590700D01*
X165955600Y-99312000D02*
X166234300Y-99590700D01*
X168581000Y-98445100D02*
X168581000Y-99590700D01*
X170978100Y-96048000D02*
X168581000Y-98445100D01*
X171271000Y-96048000D02*
X170978100Y-96048000D01*
X166409600Y-105662000D02*
X165974600Y-105227000D01*
X168922100Y-105662000D02*
X166409600Y-105662000D01*
X169431600Y-105152500D02*
X168922100Y-105662000D01*
X169431600Y-100441300D02*
X169431600Y-105152500D01*
X168581000Y-99590700D02*
X169431600Y-100441300D01*
%TD*%
M02*
