M48
; DRILL file {KiCad (6.0.2)} date Thu Aug 25 20:59:30 2022
; FORMAT={-:-/ absolute / metric / decimal}
; #@! TF.CreationDate,2022-08-25T20:59:30-05:00
; #@! TF.GenerationSoftware,Kicad,Pcbnew,(6.0.2)
; #@! TF.FileFunction,Plated,1,2,PTH
FMAT,2
METRIC
; #@! TA.AperFunction,Plated,PTH,ViaDrill
T1C0.400
; #@! TA.AperFunction,Plated,PTH,ComponentDrill
T2C0.920
; #@! TA.AperFunction,Plated,PTH,ComponentDrill
T3C1.000
; #@! TA.AperFunction,Plated,PTH,ComponentDrill
T4C1.070
; #@! TA.AperFunction,Plated,PTH,ComponentDrill
T5C1.200
; #@! TA.AperFunction,Plated,PTH,ComponentDrill
T6C1.270
; #@! TA.AperFunction,Plated,PTH,ComponentDrill
T7C1.700
; #@! TA.AperFunction,Plated,PTH,ComponentDrill
T8C4.450
%
G90
G05
T1
X123.906Y-93.005
X124.289Y-79.877
X127.197Y-79.48
X127.744Y-69.2
X127.852Y-119.365
X127.914Y-78.773
X128.398Y-117.531
X128.444Y-68.478
X128.662Y-58.852
X128.699Y-81.144
X128.699Y-91.33
X129.206Y-78.528
X129.724Y-91.01
X132.061Y-69.864
X132.281Y-94.902
X133.294Y-81.508
X133.366Y-116.5
X133.63Y-98.549
X134.237Y-82.451
X134.465Y-112.009
X134.794Y-100.696
X134.877Y-110.878
X135.171Y-115.845
X135.429Y-103.325
X135.43Y-98.165
X135.606Y-55.522
X136.378Y-80.568
X136.917Y-116.295
X137.966Y-102.571
X138.26Y-97.108
X138.378Y-116.243
X139.113Y-90.673
X139.118Y-82.334
X139.887Y-114.891
X140.484Y-103.829
X141.218Y-114.594
X141.298Y-102.263
X141.322Y-95.589
X141.607Y-104.692
X142.336Y-114.193
X143.456Y-113.753
X143.555Y-103.45
X144.721Y-113.358
X144.731Y-95.89
X146.692Y-94.621
X146.965Y-102.136
X146.969Y-106.686
X146.971Y-105.132
X147.672Y-108.386
X147.766Y-110.607
X147.825Y-76.841
X147.897Y-106.2
X147.936Y-101.671
X148.659Y-116.293
X149.563Y-117.566
X149.688Y-108.0
X149.845Y-58.224
X149.883Y-105.091
X149.986Y-103.401
X150.558Y-116.737
X150.883Y-105.163
X151.052Y-70.474
X151.114Y-57.496
X151.22Y-102.837
X151.751Y-116.978
X152.153Y-100.31
X152.186Y-101.398
X152.238Y-80.072
X152.79Y-115.816
X152.909Y-118.663
X152.941Y-112.538
X153.309Y-82.211
X153.707Y-117.161
X154.009Y-88.546
X154.319Y-69.572
X154.849Y-81.779
X155.232Y-82.796
X155.58Y-69.579
X155.699Y-83.743
X156.363Y-88.577
X157.116Y-87.899
X157.228Y-90.341
X157.363Y-88.899
X157.594Y-112.891
X158.363Y-95.766
X158.425Y-108.451
X158.631Y-119.227
X159.042Y-112.494
X159.467Y-107.073
X159.469Y-95.249
X159.558Y-111.489
X160.186Y-116.167
X160.416Y-119.229
X161.326Y-87.496
X161.335Y-88.496
X161.343Y-89.621
X161.35Y-114.114
X161.887Y-90.543
X162.325Y-109.885
X162.347Y-102.104
X162.364Y-100.066
X162.379Y-101.082
X162.76Y-105.964
X162.825Y-113.794
X163.051Y-104.333
X163.49Y-106.664
X164.773Y-112.39
X164.913Y-119.629
X165.072Y-118.619
X165.796Y-115.337
X166.138Y-109.224
X166.585Y-100.441
X166.753Y-98.741
X167.908Y-119.613
X168.539Y-104.81
X168.975Y-119.509
X172.197Y-90.866
X172.944Y-105.244
X173.004Y-66.025
X173.17Y-94.375
X174.231Y-68.665
X175.362Y-87.27
X175.904Y-100.945
X176.534Y-90.64
X177.212Y-86.411
X178.145Y-88.366
X178.775Y-90.319
X178.973Y-69.377
T2
X130.055Y-65.464
X130.055Y-67.964
X132.055Y-65.464
X132.055Y-67.964
T3
X168.694Y-96.045
X171.271Y-96.048
X173.853Y-96.048
T4
X165.075Y-64.259
X168.532Y-64.257
X171.505Y-64.26
X174.408Y-64.259
X177.857Y-64.261
T5
X128.04Y-75.914
X129.544Y-74.407
X131.059Y-75.922
X132.566Y-74.407
X134.073Y-75.914
X135.58Y-74.407
X137.125Y-75.912
X138.676Y-74.409
X140.067Y-75.914
X141.611Y-74.404
X143.044Y-75.913
X144.589Y-74.405
X146.057Y-75.915
X147.605Y-74.407
X149.074Y-75.913
X150.619Y-74.406
X152.089Y-75.915
X153.64Y-74.405
X155.026Y-75.914
X156.576Y-74.406
X158.04Y-75.914
X159.592Y-74.406
X161.1Y-75.914
X162.649Y-74.407
X164.075Y-75.913
X165.625Y-74.406
X167.093Y-75.914
X168.639Y-74.406
X170.109Y-75.912
X171.657Y-74.406
X173.125Y-75.914
X174.672Y-74.406
T6
X126.373Y-57.886
X127.646Y-55.742
X132.097Y-55.703
X133.403Y-57.886
T8
X128.945Y-112.498
X172.809Y-112.54
T7
G00X127.705Y-60.694
M15
G01X126.985Y-60.694
M16
G05
G00X127.705Y-72.734
M15
G01X126.985Y-72.734
M16
G05
T0
M30
