%TF.GenerationSoftware,KiCad,Pcbnew,(6.0.2)*%
%TF.CreationDate,2022-08-25T20:59:28-05:00*%
%TF.ProjectId,REF1479,52454631-3437-4392-9e6b-696361645f70,rev?*%
%TF.SameCoordinates,Original*%
%TF.FileFunction,Profile,NP*%
%FSLAX46Y46*%
G04 Gerber Fmt 4.6, Leading zero omitted, Abs format (unit mm)*
G04 Created by KiCad (PCBNEW (6.0.2)) date 2022-08-25 20:59:28*
%MOMM*%
%LPD*%
G01*
G04 APERTURE LIST*
%TA.AperFunction,Profile*%
%ADD10C,0.002000*%
%TD*%
G04 APERTURE END LIST*
D10*
X175585000Y-116061521D02*
X175585000Y-128322000D01*
X124290000Y-94346400D02*
G75*
G03*
X123545000Y-93622400I-713915J10682D01*
G01*
X176309000Y-115316400D02*
X177440000Y-115316400D01*
X126502000Y-116040400D02*
G75*
G03*
X125757000Y-115316400I-713915J10682D01*
G01*
X176440000Y-52472000D02*
X176440000Y-57472400D01*
X176440000Y-57472400D02*
X177940000Y-58972400D01*
X178164080Y-93622400D02*
G75*
G03*
X177440000Y-94367521I-10573J-714103D01*
G01*
X177440000Y-94367521D02*
X177440000Y-115316400D01*
X124290000Y-94346400D02*
X124290000Y-115316400D01*
X125290000Y-57472400D02*
X123790000Y-58972400D01*
X181439800Y-58972400D02*
X181439800Y-93622400D01*
X120437000Y-93622400D02*
X123545000Y-93622400D01*
X125290000Y-52472000D02*
X176440000Y-52472000D01*
X126502000Y-116040400D02*
X126502000Y-128322000D01*
X175585000Y-128322000D02*
X126502000Y-128322000D01*
X124290000Y-115316400D02*
X125757000Y-115316400D01*
X176309000Y-115316400D02*
G75*
G03*
X175585000Y-116061521I-10570J-714029D01*
G01*
X120437000Y-58972400D02*
X123790000Y-58972400D01*
X177940000Y-58972400D02*
X181439800Y-58972400D01*
X125290000Y-52472000D02*
X125290000Y-57472400D01*
X178164080Y-93622400D02*
X181439800Y-93622400D01*
X120437000Y-93622400D02*
X120437000Y-58972400D01*
M02*
